<svg xmlns="http://www.w3.org/2000/svg" width="1200" height="640" viewBox="0 0 1200 640">
<style>.grid{stroke:#555;stroke-width:.6}.label{fill:#eee;font:16px sans-serif}.tick{fill:#c4c4c4;font:11px sans-serif}.marker{stroke:#fff;stroke-dasharray:4 3}.exit{stroke:#a78bfa;stroke-dasharray:3 3}</style>
<rect width="1200" height="640" fill="#171717"/><g><text x="4" y="15" class="label">#21 LONG · target</text><line x1="38" x2="522" y1="282.0" y2="282.0" class="grid"/><text x="34" y="285.0" text-anchor="end" class="tick">516.85</text><line x1="38" x2="522" y1="198.0" y2="198.0" class="grid"/><text x="34" y="201.0" text-anchor="end" class="tick">523.50</text><line x1="38" x2="522" y1="114.0" y2="114.0" class="grid"/><text x="34" y="117.0" text-anchor="end" class="tick">530.15</text><line x1="38" x2="522" y1="30.0" y2="30.0" class="grid"/><text x="34" y="33.0" text-anchor="end" class="tick">536.80</text><line x1="40.8" x2="40.8" y1="214.2" y2="229.2" stroke="#35a77a"/><rect x="39.3" y="215.2" width="3.1" height="8.5" fill="#35a77a"/><line x1="46.3" x2="46.3" y1="207.5" y2="218.3" stroke="#35a77a"/><rect x="44.8" y="213.8" width="3.1" height="1.5" fill="#35a77a"/><line x1="51.9" x2="51.9" y1="192.7" y2="217.0" stroke="#35a77a"/><rect x="50.4" y="194.1" width="3.1" height="19.8" fill="#35a77a"/><line x1="57.5" x2="57.5" y1="147.6" y2="195.0" stroke="#35a77a"/><rect x="55.9" y="149.4" width="3.1" height="44.6" fill="#35a77a"/><line x1="63.0" x2="63.0" y1="126.5" y2="133.8" stroke="#d76565"/><rect x="61.5" y="128.2" width="3.1" height="4.4" fill="#d76565"/><line x1="68.6" x2="68.6" y1="128.2" y2="149.5" stroke="#d76565"/><rect x="67.1" y="132.5" width="3.1" height="9.7" fill="#d76565"/><line x1="74.2" x2="74.2" y1="124.6" y2="148.3" stroke="#35a77a"/><rect x="72.6" y="138.5" width="3.1" height="3.7" fill="#35a77a"/><line x1="79.7" x2="79.7" y1="134.8" y2="141.8" stroke="#d76565"/><rect x="78.2" y="138.0" width="3.1" height="1.2" fill="#d76565"/><line x1="85.3" x2="85.3" y1="138.1" y2="151.6" stroke="#d76565"/><rect x="83.8" y="138.6" width="3.1" height="10.9" fill="#d76565"/><line x1="90.9" x2="90.9" y1="149.2" y2="170.2" stroke="#d76565"/><rect x="89.3" y="149.6" width="3.1" height="16.6" fill="#d76565"/><line x1="96.4" x2="96.4" y1="161.5" y2="174.0" stroke="#35a77a"/><rect x="94.9" y="164.6" width="3.1" height="1.4" fill="#35a77a"/><line x1="102.0" x2="102.0" y1="158.8" y2="166.0" stroke="#35a77a"/><rect x="100.4" y="161.4" width="3.1" height="2.9" fill="#35a77a"/><line x1="107.5" x2="107.5" y1="157.7" y2="169.7" stroke="#d76565"/><rect x="106.0" y="161.5" width="3.1" height="2.7" fill="#d76565"/><line x1="113.1" x2="113.1" y1="162.1" y2="169.9" stroke="#d76565"/><rect x="111.6" y="164.4" width="3.1" height="1.2" fill="#d76565"/><line x1="118.7" x2="118.7" y1="161.4" y2="187.4" stroke="#d76565"/><rect x="117.1" y="165.3" width="3.1" height="20.6" fill="#d76565"/><line x1="124.2" x2="124.2" y1="181.3" y2="196.1" stroke="#d76565"/><rect x="122.7" y="185.7" width="3.1" height="6.6" fill="#d76565"/><line x1="129.8" x2="129.8" y1="187.8" y2="200.0" stroke="#d76565"/><rect x="128.3" y="192.4" width="3.1" height="1.2" fill="#d76565"/><line x1="135.4" x2="135.4" y1="188.1" y2="201.7" stroke="#d76565"/><rect x="133.8" y="193.1" width="3.1" height="1.3" fill="#d76565"/><line x1="140.9" x2="140.9" y1="192.9" y2="209.4" stroke="#d76565"/><rect x="139.4" y="194.6" width="3.1" height="6.9" fill="#d76565"/><line x1="146.5" x2="146.5" y1="183.0" y2="202.3" stroke="#35a77a"/><rect x="145.0" y="183.5" width="3.1" height="17.9" fill="#35a77a"/><line x1="152.0" x2="152.0" y1="172.0" y2="184.4" stroke="#35a77a"/><rect x="150.5" y="174.2" width="3.1" height="9.4" fill="#35a77a"/><line x1="157.6" x2="157.6" y1="171.7" y2="181.1" stroke="#d76565"/><rect x="156.1" y="174.0" width="3.1" height="2.7" fill="#d76565"/><line x1="163.2" x2="163.2" y1="170.2" y2="183.2" stroke="#d76565"/><rect x="161.6" y="176.3" width="3.1" height="6.7" fill="#d76565"/><line x1="168.7" x2="168.7" y1="169.2" y2="183.1" stroke="#35a77a"/><rect x="167.2" y="177.7" width="3.1" height="5.1" fill="#35a77a"/><line x1="174.3" x2="174.3" y1="164.6" y2="177.7" stroke="#35a77a"/><rect x="172.8" y="169.7" width="3.1" height="8.0" fill="#35a77a"/><line x1="179.9" x2="179.9" y1="167.3" y2="175.4" stroke="#35a77a"/><rect x="178.3" y="169.6" width="3.1" height="1.2" fill="#35a77a"/><line x1="185.4" x2="185.4" y1="164.0" y2="172.0" stroke="#35a77a"/><rect x="183.9" y="166.5" width="3.1" height="3.0" fill="#35a77a"/><line x1="191.0" x2="191.0" y1="160.1" y2="168.1" stroke="#35a77a"/><rect x="189.5" y="163.3" width="3.1" height="3.2" fill="#35a77a"/><line x1="196.6" x2="196.6" y1="160.2" y2="169.8" stroke="#d76565"/><rect x="195.0" y="163.1" width="3.1" height="3.9" fill="#d76565"/><line x1="202.1" x2="202.1" y1="143.3" y2="167.7" stroke="#35a77a"/><rect x="200.6" y="144.0" width="3.1" height="23.1" fill="#35a77a"/><line x1="207.7" x2="207.7" y1="156.6" y2="169.3" stroke="#d76565"/><rect x="206.1" y="160.6" width="3.1" height="1.2" fill="#d76565"/><line x1="213.2" x2="213.2" y1="156.4" y2="166.8" stroke="#35a77a"/><rect x="211.7" y="160.2" width="3.1" height="1.2" fill="#35a77a"/><line x1="218.8" x2="218.8" y1="144.3" y2="169.7" stroke="#d76565"/><rect x="217.3" y="160.2" width="3.1" height="5.9" fill="#d76565"/><line x1="224.4" x2="224.4" y1="153.8" y2="167.4" stroke="#35a77a"/><rect x="222.8" y="153.8" width="3.1" height="12.8" fill="#35a77a"/><line x1="229.9" x2="229.9" y1="148.7" y2="162.7" stroke="#35a77a"/><rect x="228.4" y="151.4" width="3.1" height="2.5" fill="#35a77a"/><line x1="235.5" x2="235.5" y1="149.9" y2="168.7" stroke="#d76565"/><rect x="234.0" y="150.7" width="3.1" height="16.6" fill="#d76565"/><line x1="241.1" x2="241.1" y1="163.3" y2="171.2" stroke="#d76565"/><rect x="239.5" y="166.8" width="3.1" height="2.8" fill="#d76565"/><line x1="246.6" x2="246.6" y1="158.6" y2="169.8" stroke="#35a77a"/><rect x="245.1" y="168.2" width="3.1" height="1.3" fill="#35a77a"/><line x1="252.2" x2="252.2" y1="167.7" y2="177.3" stroke="#d76565"/><rect x="250.7" y="168.2" width="3.1" height="3.4" fill="#d76565"/><line x1="257.7" x2="257.7" y1="168.7" y2="176.1" stroke="#d76565"/><rect x="256.2" y="171.6" width="3.1" height="4.3" fill="#d76565"/><line x1="263.3" x2="263.3" y1="172.9" y2="179.6" stroke="#d76565"/><rect x="261.8" y="175.8" width="3.1" height="1.2" fill="#d76565"/><line x1="268.9" x2="268.9" y1="165.1" y2="178.7" stroke="#35a77a"/><rect x="267.3" y="166.3" width="3.1" height="9.7" fill="#35a77a"/><line x1="274.4" x2="274.4" y1="157.6" y2="170.7" stroke="#35a77a"/><rect x="272.9" y="159.3" width="3.1" height="6.8" fill="#35a77a"/><line x1="280.0" x2="280.0" y1="154.5" y2="167.3" stroke="#d76565"/><rect x="278.5" y="159.5" width="3.1" height="1.2" fill="#d76565"/><line x1="285.6" x2="285.6" y1="160.0" y2="170.3" stroke="#d76565"/><rect x="284.0" y="160.5" width="3.1" height="1.2" fill="#d76565"/><line x1="291.1" x2="291.1" y1="153.8" y2="164.4" stroke="#35a77a"/><rect x="289.6" y="154.0" width="3.1" height="7.2" fill="#35a77a"/><line x1="296.7" x2="296.7" y1="152.4" y2="162.1" stroke="#d76565"/><rect x="295.2" y="154.0" width="3.1" height="5.4" fill="#d76565"/><line x1="302.3" x2="302.3" y1="152.8" y2="159.3" stroke="#35a77a"/><rect x="300.7" y="155.8" width="3.1" height="3.3" fill="#35a77a"/><line x1="307.8" x2="307.8" y1="147.5" y2="157.4" stroke="#35a77a"/><rect x="306.3" y="149.0" width="3.1" height="7.2" fill="#35a77a"/><line x1="313.4" x2="313.4" y1="128.9" y2="149.0" stroke="#35a77a"/><rect x="311.8" y="129.4" width="3.1" height="19.2" fill="#35a77a"/><line x1="318.9" x2="318.9" y1="128.4" y2="135.8" stroke="#35a77a"/><rect x="317.4" y="129.1" width="3.1" height="1.2" fill="#35a77a"/><line x1="324.5" x2="324.5" y1="126.6" y2="138.4" stroke="#d76565"/><rect x="323.0" y="129.1" width="3.1" height="6.9" fill="#d76565"/><line x1="330.1" x2="330.1" y1="136.1" y2="158.7" stroke="#d76565"/><rect x="328.5" y="136.5" width="3.1" height="14.0" fill="#d76565"/><line x1="335.6" x2="335.6" y1="143.5" y2="151.5" stroke="#35a77a"/><rect x="334.1" y="145.6" width="3.1" height="4.8" fill="#35a77a"/><line x1="341.2" x2="341.2" y1="138.1" y2="153.8" stroke="#35a77a"/><rect x="339.7" y="138.1" width="3.1" height="7.3" fill="#35a77a"/><line x1="346.8" x2="346.8" y1="133.6" y2="147.1" stroke="#35a77a"/><rect x="345.2" y="136.7" width="3.1" height="1.5" fill="#35a77a"/><line x1="352.3" x2="352.3" y1="105.5" y2="117.5" stroke="#d76565"/><rect x="350.8" y="106.1" width="3.1" height="6.8" fill="#d76565"/><line x1="357.9" x2="357.9" y1="109.7" y2="122.1" stroke="#d76565"/><rect x="356.4" y="112.8" width="3.1" height="2.0" fill="#d76565"/><line x1="363.4" x2="363.4" y1="114.7" y2="132.0" stroke="#d76565"/><rect x="361.9" y="114.7" width="3.1" height="9.5" fill="#d76565"/><line x1="369.0" x2="369.0" y1="110.7" y2="126.0" stroke="#35a77a"/><rect x="367.5" y="112.6" width="3.1" height="11.9" fill="#35a77a"/><line x1="374.6" x2="374.6" y1="101.7" y2="112.3" stroke="#35a77a"/><rect x="373.0" y="108.0" width="3.1" height="4.3" fill="#35a77a"/><line x1="380.1" x2="380.1" y1="103.0" y2="109.8" stroke="#35a77a"/><rect x="378.6" y="103.7" width="3.1" height="4.3" fill="#35a77a"/><line x1="385.7" x2="385.7" y1="93.1" y2="103.9" stroke="#35a77a"/><rect x="384.2" y="93.9" width="3.1" height="10.0" fill="#35a77a"/><line x1="391.3" x2="391.3" y1="88.2" y2="95.1" stroke="#35a77a"/><rect x="389.7" y="91.6" width="3.1" height="2.1" fill="#35a77a"/><line x1="396.8" x2="396.8" y1="85.0" y2="92.4" stroke="#35a77a"/><rect x="395.3" y="86.4" width="3.1" height="5.3" fill="#35a77a"/><line x1="402.4" x2="402.4" y1="85.4" y2="91.7" stroke="#d76565"/><rect x="400.9" y="86.3" width="3.1" height="3.9" fill="#d76565"/><line x1="408.0" x2="408.0" y1="89.2" y2="93.0" stroke="#d76565"/><rect x="406.4" y="90.3" width="3.1" height="1.4" fill="#d76565"/><line x1="413.5" x2="413.5" y1="87.7" y2="94.0" stroke="#35a77a"/><rect x="412.0" y="89.0" width="3.1" height="3.0" fill="#35a77a"/><line x1="419.1" x2="419.1" y1="81.5" y2="89.6" stroke="#35a77a"/><rect x="417.6" y="83.4" width="3.1" height="5.6" fill="#35a77a"/><line x1="424.6" x2="424.6" y1="80.4" y2="85.0" stroke="#35a77a"/><rect x="423.1" y="82.5" width="3.1" height="1.2" fill="#35a77a"/><line x1="430.2" x2="430.2" y1="78.2" y2="84.0" stroke="#35a77a"/><rect x="428.7" y="79.2" width="3.1" height="3.2" fill="#35a77a"/><line x1="435.8" x2="435.8" y1="78.5" y2="88.7" stroke="#d76565"/><rect x="434.2" y="79.3" width="3.1" height="2.0" fill="#d76565"/><line x1="441.3" x2="441.3" y1="76.3" y2="82.8" stroke="#35a77a"/><rect x="439.8" y="79.2" width="3.1" height="2.1" fill="#35a77a"/><line x1="446.9" x2="446.9" y1="74.2" y2="80.9" stroke="#35a77a"/><rect x="445.4" y="74.7" width="3.1" height="4.7" fill="#35a77a"/><line x1="452.5" x2="452.5" y1="72.5" y2="77.8" stroke="#d76565"/><rect x="450.9" y="74.8" width="3.1" height="1.8" fill="#d76565"/><line x1="458.0" x2="458.0" y1="71.8" y2="76.9" stroke="#35a77a"/><rect x="456.5" y="71.9" width="3.1" height="4.8" fill="#35a77a"/><line x1="463.6" x2="463.6" y1="65.3" y2="72.5" stroke="#35a77a"/><rect x="462.1" y="65.8" width="3.1" height="5.9" fill="#35a77a"/><line x1="469.1" x2="469.1" y1="65.3" y2="68.2" stroke="#d76565"/><rect x="467.6" y="65.7" width="3.1" height="1.5" fill="#d76565"/><line x1="474.7" x2="474.7" y1="63.7" y2="68.9" stroke="#35a77a"/><rect x="473.2" y="64.3" width="3.1" height="2.8" fill="#35a77a"/><line x1="480.3" x2="480.3" y1="63.2" y2="69.9" stroke="#d76565"/><rect x="478.7" y="64.6" width="3.1" height="4.5" fill="#d76565"/><line x1="485.8" x2="485.8" y1="63.9" y2="71.4" stroke="#35a77a"/><rect x="484.3" y="68.2" width="3.1" height="1.2" fill="#35a77a"/><line x1="491.4" x2="491.4" y1="56.6" y2="74.9" stroke="#35a77a"/><rect x="489.9" y="57.1" width="3.1" height="11.2" fill="#35a77a"/><line x1="497.0" x2="497.0" y1="47.4" y2="56.9" stroke="#35a77a"/><rect x="495.4" y="47.6" width="3.1" height="5.3" fill="#35a77a"/><line x1="502.5" x2="502.5" y1="47.5" y2="61.2" stroke="#d76565"/><rect x="501.0" y="47.9" width="3.1" height="13.0" fill="#d76565"/><line x1="508.1" x2="508.1" y1="52.8" y2="61.0" stroke="#35a77a"/><rect x="506.6" y="56.4" width="3.1" height="4.7" fill="#35a77a"/><line x1="513.7" x2="513.7" y1="50.2" y2="58.9" stroke="#35a77a"/><rect x="512.1" y="51.9" width="3.1" height="4.3" fill="#35a77a"/><line x1="519.2" x2="519.2" y1="52.1" y2="57.7" stroke="#d76565"/><rect x="517.7" y="52.1" width="3.1" height="2.4" fill="#d76565"/><line x1="96.4" x2="522" y1="165.4" y2="165.4" stroke="#ffffff" stroke-width="1.25"/><text x="525" y="168.4" fill="#ffffff" class="tick">Entry</text><line x1="96.4" x2="522" y1="264.6" y2="264.6" stroke="#d76565" stroke-width="1.25"/><text x="525" y="267.6" fill="#d76565" class="tick">Stop</text><line x1="96.4" x2="522" y1="66.1" y2="66.1" stroke="#35a77a" stroke-width="1.25"/><text x="525" y="69.1" fill="#35a77a" class="tick">Target</text><line x1="96.4" x2="522" y1="66.8" y2="66.8" stroke="#a78bfa" stroke-width="1.25"/><text x="525" y="69.8" fill="#a78bfa" class="tick">Exit</text><line x1="96.4" x2="96.4" y1="30" y2="282" class="marker"/><line x1="463.6" x2="463.6" y1="30" y2="282" class="exit"/><text x="4" y="303" class="tick">Entry 2024-06-03T15:00 · Exit 2024-06-05T18:30 · Net $+148.04</text></g><g><text x="604" y="15" class="label">#22 SHORT · target</text><line x1="638" x2="1122" y1="282.0" y2="282.0" class="grid"/><text x="634" y="285.0" text-anchor="end" class="tick">526.48</text><line x1="638" x2="1122" y1="198.0" y2="198.0" class="grid"/><text x="634" y="201.0" text-anchor="end" class="tick">536.71</text><line x1="638" x2="1122" y1="114.0" y2="114.0" class="grid"/><text x="634" y="117.0" text-anchor="end" class="tick">546.94</text><line x1="638" x2="1122" y1="30.0" y2="30.0" class="grid"/><text x="634" y="33.0" text-anchor="end" class="tick">557.17</text><line x1="644.9" x2="644.9" y1="86.8" y2="101.4" stroke="#d76565"/><rect x="641.1" y="89.9" width="7.6" height="9.6" fill="#d76565"/><line x1="658.7" x2="658.7" y1="99.3" y2="111.5" stroke="#d76565"/><rect x="654.9" y="99.7" width="7.6" height="9.9" fill="#d76565"/><line x1="672.6" x2="672.6" y1="107.9" y2="121.5" stroke="#d76565"/><rect x="668.8" y="109.6" width="7.6" height="9.2" fill="#d76565"/><line x1="686.4" x2="686.4" y1="112.1" y2="121.7" stroke="#d76565"/><rect x="682.6" y="118.9" width="7.6" height="1.4" fill="#d76565"/><line x1="700.2" x2="700.2" y1="117.0" y2="133.4" stroke="#d76565"/><rect x="696.4" y="120.8" width="7.6" height="12.2" fill="#d76565"/><line x1="714.1" x2="714.1" y1="126.0" y2="136.7" stroke="#35a77a"/><rect x="710.3" y="132.2" width="7.6" height="1.2" fill="#35a77a"/><line x1="727.9" x2="727.9" y1="119.7" y2="133.9" stroke="#35a77a"/><rect x="724.1" y="122.9" width="7.6" height="9.4" fill="#35a77a"/><line x1="741.7" x2="741.7" y1="118.4" y2="134.9" stroke="#d76565"/><rect x="737.9" y="122.9" width="7.6" height="6.8" fill="#d76565"/><line x1="755.5" x2="755.5" y1="129.5" y2="144.6" stroke="#d76565"/><rect x="751.7" y="129.5" width="7.6" height="11.0" fill="#d76565"/><line x1="769.4" x2="769.4" y1="136.3" y2="145.2" stroke="#35a77a"/><rect x="765.6" y="140.3" width="7.6" height="1.2" fill="#35a77a"/><line x1="783.2" x2="783.2" y1="138.6" y2="149.6" stroke="#d76565"/><rect x="779.4" y="140.4" width="7.6" height="8.4" fill="#d76565"/><line x1="797.0" x2="797.0" y1="147.0" y2="156.0" stroke="#d76565"/><rect x="793.2" y="148.7" width="7.6" height="3.4" fill="#d76565"/><line x1="810.9" x2="810.9" y1="151.9" y2="166.2" stroke="#d76565"/><rect x="807.1" y="152.1" width="7.6" height="10.8" fill="#d76565"/><line x1="824.7" x2="824.7" y1="149.6" y2="167.1" stroke="#35a77a"/><rect x="820.9" y="150.0" width="7.6" height="12.9" fill="#35a77a"/><line x1="838.5" x2="838.5" y1="147.5" y2="164.5" stroke="#d76565"/><rect x="834.7" y="150.1" width="7.6" height="13.0" fill="#d76565"/><line x1="852.3" x2="852.3" y1="160.7" y2="172.6" stroke="#d76565"/><rect x="848.5" y="163.0" width="7.6" height="5.8" fill="#d76565"/><line x1="866.2" x2="866.2" y1="164.2" y2="173.1" stroke="#d76565"/><rect x="862.4" y="169.0" width="7.6" height="3.5" fill="#d76565"/><line x1="880.0" x2="880.0" y1="168.0" y2="175.7" stroke="#35a77a"/><rect x="876.2" y="171.2" width="7.6" height="1.4" fill="#35a77a"/><line x1="893.8" x2="893.8" y1="162.1" y2="173.5" stroke="#35a77a"/><rect x="890.0" y="166.2" width="7.6" height="4.9" fill="#35a77a"/><line x1="907.7" x2="907.7" y1="157.0" y2="169.8" stroke="#35a77a"/><rect x="903.9" y="158.9" width="7.6" height="7.4" fill="#35a77a"/><line x1="921.5" x2="921.5" y1="151.0" y2="161.5" stroke="#d76565"/><rect x="917.7" y="159.0" width="7.6" height="1.2" fill="#d76565"/><line x1="935.3" x2="935.3" y1="142.5" y2="159.8" stroke="#35a77a"/><rect x="931.5" y="146.0" width="7.6" height="13.6" fill="#35a77a"/><line x1="949.1" x2="949.1" y1="195.7" y2="220.2" stroke="#35a77a"/><rect x="945.3" y="202.3" width="7.6" height="3.9" fill="#35a77a"/><line x1="963.0" x2="963.0" y1="198.3" y2="221.2" stroke="#d76565"/><rect x="959.2" y="202.5" width="7.6" height="16.7" fill="#d76565"/><line x1="976.8" x2="976.8" y1="212.4" y2="255.1" stroke="#d76565"/><rect x="973.0" y="219.2" width="7.6" height="34.7" fill="#d76565"/><line x1="990.6" x2="990.6" y1="242.6" y2="256.5" stroke="#35a77a"/><rect x="986.8" y="249.2" width="7.6" height="4.5" fill="#35a77a"/><line x1="1004.5" x2="1004.5" y1="242.5" y2="261.0" stroke="#d76565"/><rect x="1000.7" y="249.0" width="7.6" height="6.7" fill="#d76565"/><line x1="1018.3" x2="1018.3" y1="240.8" y2="261.2" stroke="#d76565"/><rect x="1014.5" y="255.4" width="7.6" height="3.8" fill="#d76565"/><line x1="1032.1" x2="1032.1" y1="252.5" y2="264.1" stroke="#d76565"/><rect x="1028.3" y="259.1" width="7.6" height="1.2" fill="#d76565"/><line x1="1045.9" x2="1045.9" y1="253.4" y2="264.6" stroke="#35a77a"/><rect x="1042.1" y="257.9" width="7.6" height="1.7" fill="#35a77a"/><line x1="1059.8" x2="1059.8" y1="236.5" y2="259.7" stroke="#35a77a"/><rect x="1056.0" y="236.7" width="7.6" height="21.1" fill="#35a77a"/><line x1="1073.6" x2="1073.6" y1="230.0" y2="242.5" stroke="#35a77a"/><rect x="1069.8" y="235.2" width="7.6" height="1.8" fill="#35a77a"/><line x1="1087.4" x2="1087.4" y1="229.5" y2="244.7" stroke="#d76565"/><rect x="1083.6" y="235.1" width="7.6" height="5.7" fill="#d76565"/><line x1="1101.3" x2="1101.3" y1="226.8" y2="241.5" stroke="#35a77a"/><rect x="1097.5" y="230.8" width="7.6" height="9.9" fill="#35a77a"/><line x1="1115.1" x2="1115.1" y1="224.2" y2="235.4" stroke="#35a77a"/><rect x="1111.3" y="229.1" width="7.6" height="1.9" fill="#35a77a"/><line x1="783.2" x2="1122" y1="140.8" y2="140.8" stroke="#ffffff" stroke-width="1.25"/><text x="1125" y="143.8" fill="#ffffff" class="tick">Entry</text><line x1="783.2" x2="1122" y1="47.4" y2="47.4" stroke="#d76565" stroke-width="1.25"/><text x="1125" y="50.4" fill="#d76565" class="tick">Stop</text><line x1="783.2" x2="1122" y1="234.2" y2="234.2" stroke="#35a77a" stroke-width="1.25"/><text x="1125" y="237.2" fill="#35a77a" class="tick">Target</text><line x1="783.2" x2="1122" y1="233.8" y2="233.8" stroke="#a78bfa" stroke-width="1.25"/><text x="1125" y="236.8" fill="#a78bfa" class="tick">Exit</text><line x1="783.2" x2="783.2" y1="30" y2="282" class="marker"/><line x1="976.8" x2="976.8" y1="30" y2="282" class="exit"/><text x="604" y="303" class="tick">Entry 2024-08-01T17:00 · Exit 2024-08-02T14:00 · Net $+147.07</text></g><g><text x="4" y="345" class="label">#23 SHORT · stop</text><line x1="38" x2="522" y1="612.0" y2="612.0" class="grid"/><text x="34" y="615.0" text-anchor="end" class="tick">554.15</text><line x1="38" x2="522" y1="528.0" y2="528.0" class="grid"/><text x="34" y="531.0" text-anchor="end" class="tick">557.56</text><line x1="38" x2="522" y1="444.0" y2="444.0" class="grid"/><text x="34" y="447.0" text-anchor="end" class="tick">560.97</text><line x1="38" x2="522" y1="360.0" y2="360.0" class="grid"/><text x="34" y="363.0" text-anchor="end" class="tick">564.39</text><line x1="44.5" x2="44.5" y1="435.7" y2="466.5" stroke="#d76565"/><rect x="40.9" y="441.1" width="7.2" height="20.9" fill="#d76565"/><line x1="57.6" x2="57.6" y1="459.8" y2="481.5" stroke="#d76565"/><rect x="54.0" y="462.1" width="7.2" height="14.8" fill="#d76565"/><line x1="70.7" x2="70.7" y1="476.1" y2="513.8" stroke="#d76565"/><rect x="67.1" y="477.3" width="7.2" height="32.5" fill="#d76565"/><line x1="83.8" x2="83.8" y1="505.6" y2="524.6" stroke="#35a77a"/><rect x="80.2" y="509.6" width="7.2" height="1.2" fill="#35a77a"/><line x1="96.9" x2="96.9" y1="507.1" y2="524.1" stroke="#d76565"/><rect x="93.3" y="509.3" width="7.2" height="8.4" fill="#d76565"/><line x1="109.9" x2="109.9" y1="502.7" y2="521.6" stroke="#35a77a"/><rect x="106.3" y="506.1" width="7.2" height="11.1" fill="#35a77a"/><line x1="123.0" x2="123.0" y1="501.0" y2="520.4" stroke="#d76565"/><rect x="119.4" y="506.1" width="7.2" height="5.9" fill="#d76565"/><line x1="136.1" x2="136.1" y1="512.3" y2="544.5" stroke="#d76565"/><rect x="132.5" y="513.0" width="7.2" height="16.5" fill="#d76565"/><line x1="149.2" x2="149.2" y1="512.0" y2="534.2" stroke="#35a77a"/><rect x="145.6" y="513.5" width="7.2" height="16.0" fill="#35a77a"/><line x1="162.3" x2="162.3" y1="500.7" y2="518.4" stroke="#35a77a"/><rect x="158.7" y="503.2" width="7.2" height="10.6" fill="#35a77a"/><line x1="175.4" x2="175.4" y1="495.8" y2="525.8" stroke="#d76565"/><rect x="171.8" y="503.4" width="7.2" height="19.7" fill="#d76565"/><line x1="188.4" x2="188.4" y1="517.0" y2="526.1" stroke="#35a77a"/><rect x="184.8" y="518.4" width="7.2" height="4.7" fill="#35a77a"/><line x1="201.5" x2="201.5" y1="509.8" y2="531.5" stroke="#d76565"/><rect x="197.9" y="517.9" width="7.2" height="10.8" fill="#d76565"/><line x1="214.6" x2="214.6" y1="525.1" y2="585.9" stroke="#d76565"/><rect x="211.0" y="528.3" width="7.2" height="54.4" fill="#d76565"/><line x1="227.7" x2="227.7" y1="561.0" y2="590.1" stroke="#35a77a"/><rect x="224.1" y="569.1" width="7.2" height="13.3" fill="#35a77a"/><line x1="240.8" x2="240.8" y1="562.5" y2="578.0" stroke="#d76565"/><rect x="237.2" y="568.4" width="7.2" height="4.4" fill="#d76565"/><line x1="253.8" x2="253.8" y1="563.0" y2="577.5" stroke="#35a77a"/><rect x="250.2" y="572.1" width="7.2" height="1.2" fill="#35a77a"/><line x1="266.9" x2="266.9" y1="513.3" y2="578.7" stroke="#35a77a"/><rect x="263.3" y="515.7" width="7.2" height="56.1" fill="#35a77a"/><line x1="280.0" x2="280.0" y1="498.0" y2="538.1" stroke="#d76565"/><rect x="276.4" y="516.2" width="7.2" height="14.0" fill="#d76565"/><line x1="293.1" x2="293.1" y1="501.7" y2="529.8" stroke="#35a77a"/><rect x="289.5" y="503.7" width="7.2" height="26.1" fill="#35a77a"/><line x1="306.2" x2="306.2" y1="497.0" y2="515.2" stroke="#d76565"/><rect x="302.6" y="503.7" width="7.2" height="1.2" fill="#d76565"/><line x1="319.2" x2="319.2" y1="483.7" y2="516.2" stroke="#d76565"/><rect x="315.6" y="504.4" width="7.2" height="4.7" fill="#d76565"/><line x1="332.3" x2="332.3" y1="442.4" y2="477.1" stroke="#d76565"/><rect x="328.7" y="460.3" width="7.2" height="14.8" fill="#d76565"/><line x1="345.4" x2="345.4" y1="436.5" y2="483.5" stroke="#35a77a"/><rect x="341.8" y="440.9" width="7.2" height="34.2" fill="#35a77a"/><line x1="358.5" x2="358.5" y1="421.2" y2="451.2" stroke="#35a77a"/><rect x="354.9" y="439.2" width="7.2" height="1.7" fill="#35a77a"/><line x1="371.6" x2="371.6" y1="420.0" y2="465.5" stroke="#35a77a"/><rect x="368.0" y="425.9" width="7.2" height="13.0" fill="#35a77a"/><line x1="384.6" x2="384.6" y1="407.2" y2="427.8" stroke="#35a77a"/><rect x="381.1" y="413.6" width="7.2" height="11.6" fill="#35a77a"/><line x1="397.7" x2="397.7" y1="399.0" y2="423.9" stroke="#d76565"/><rect x="394.1" y="414.1" width="7.2" height="1.7" fill="#d76565"/><line x1="410.8" x2="410.8" y1="396.3" y2="417.3" stroke="#35a77a"/><rect x="407.2" y="397.3" width="7.2" height="19.2" fill="#35a77a"/><line x1="423.9" x2="423.9" y1="389.4" y2="431.8" stroke="#d76565"/><rect x="420.3" y="398.1" width="7.2" height="17.7" fill="#d76565"/><line x1="437.0" x2="437.0" y1="405.4" y2="420.7" stroke="#d76565"/><rect x="433.4" y="415.5" width="7.2" height="2.7" fill="#d76565"/><line x1="450.1" x2="450.1" y1="405.9" y2="419.7" stroke="#35a77a"/><rect x="446.5" y="406.9" width="7.2" height="11.1" fill="#35a77a"/><line x1="463.1" x2="463.1" y1="382.3" y2="408.4" stroke="#35a77a"/><rect x="459.5" y="384.5" width="7.2" height="22.4" fill="#35a77a"/><line x1="476.2" x2="476.2" y1="380.8" y2="400.8" stroke="#d76565"/><rect x="472.6" y="384.5" width="7.2" height="2.7" fill="#d76565"/><line x1="489.3" x2="489.3" y1="379.3" y2="388.9" stroke="#35a77a"/><rect x="485.7" y="382.3" width="7.2" height="5.2" fill="#35a77a"/><line x1="502.4" x2="502.4" y1="377.4" y2="402.2" stroke="#d76565"/><rect x="498.8" y="382.1" width="7.2" height="9.4" fill="#d76565"/><line x1="515.5" x2="515.5" y1="391.2" y2="415.0" stroke="#d76565"/><rect x="511.9" y="391.2" width="7.2" height="15.3" fill="#d76565"/><line x1="175.4" x2="522" y1="504.8" y2="504.8" stroke="#ffffff" stroke-width="1.25"/><text x="525" y="507.8" fill="#ffffff" class="tick">Entry</text><line x1="175.4" x2="522" y1="415.0" y2="415.0" stroke="#d76565" stroke-width="1.25"/><text x="525" y="418.0" fill="#d76565" class="tick">Stop</text><line x1="175.4" x2="522" y1="594.6" y2="594.6" stroke="#35a77a" stroke-width="1.25"/><text x="525" y="597.6" fill="#35a77a" class="tick">Target</text><line x1="175.4" x2="522" y1="413.6" y2="413.6" stroke="#a78bfa" stroke-width="1.25"/><text x="525" y="416.6" fill="#a78bfa" class="tick">Exit</text><line x1="175.4" x2="175.4" y1="360" y2="612" class="marker"/><line x1="384.6" x2="384.6" y1="360" y2="612" class="exit"/><text x="4" y="633" class="tick">Entry 2024-08-28T17:00 · Exit 2024-08-29T14:30 · Net $-152.33</text></g><g><text x="604" y="345" class="label">#24 SHORT · target</text><line x1="638" x2="1122" y1="612.0" y2="612.0" class="grid"/><text x="634" y="615.0" text-anchor="end" class="tick">575.38</text><line x1="638" x2="1122" y1="528.0" y2="528.0" class="grid"/><text x="634" y="531.0" text-anchor="end" class="tick">579.00</text><line x1="638" x2="1122" y1="444.0" y2="444.0" class="grid"/><text x="634" y="447.0" text-anchor="end" class="tick">582.61</text><line x1="638" x2="1122" y1="360.0" y2="360.0" class="grid"/><text x="634" y="363.0" text-anchor="end" class="tick">586.23</text><line x1="641.5" x2="641.5" y1="405.6" y2="417.9" stroke="#35a77a"/><rect x="639.6" y="410.7" width="3.9" height="4.2" fill="#35a77a"/><line x1="648.5" x2="648.5" y1="400.9" y2="413.0" stroke="#35a77a"/><rect x="646.6" y="410.9" width="3.9" height="1.2" fill="#35a77a"/><line x1="655.5" x2="655.5" y1="397.0" y2="411.4" stroke="#35a77a"/><rect x="653.6" y="397.0" width="3.9" height="13.7" fill="#35a77a"/><line x1="662.6" x2="662.6" y1="392.1" y2="416.2" stroke="#d76565"/><rect x="660.6" y="397.9" width="3.9" height="15.8" fill="#d76565"/><line x1="669.6" x2="669.6" y1="412.5" y2="440.4" stroke="#d76565"/><rect x="667.6" y="413.5" width="3.9" height="18.8" fill="#d76565"/><line x1="676.6" x2="676.6" y1="432.3" y2="456.9" stroke="#d76565"/><rect x="674.7" y="432.3" width="3.9" height="12.1" fill="#d76565"/><line x1="683.6" x2="683.6" y1="443.2" y2="487.8" stroke="#d76565"/><rect x="681.7" y="444.3" width="3.9" height="26.5" fill="#d76565"/><line x1="690.6" x2="690.6" y1="470.1" y2="489.2" stroke="#d76565"/><rect x="688.7" y="470.8" width="3.9" height="14.6" fill="#d76565"/><line x1="697.6" x2="697.6" y1="465.0" y2="490.8" stroke="#35a77a"/><rect x="695.7" y="467.1" width="3.9" height="18.1" fill="#35a77a"/><line x1="704.6" x2="704.6" y1="443.6" y2="467.6" stroke="#35a77a"/><rect x="702.7" y="450.2" width="3.9" height="16.7" fill="#35a77a"/><line x1="711.7" x2="711.7" y1="447.4" y2="462.9" stroke="#d76565"/><rect x="709.7" y="450.6" width="3.9" height="6.5" fill="#d76565"/><line x1="718.7" x2="718.7" y1="449.0" y2="460.4" stroke="#35a77a"/><rect x="716.7" y="454.3" width="3.9" height="2.8" fill="#35a77a"/><line x1="725.7" x2="725.7" y1="448.3" y2="460.6" stroke="#d76565"/><rect x="723.8" y="453.6" width="3.9" height="1.2" fill="#d76565"/><line x1="732.7" x2="732.7" y1="437.6" y2="456.4" stroke="#35a77a"/><rect x="730.8" y="439.2" width="3.9" height="15.1" fill="#35a77a"/><line x1="739.7" x2="739.7" y1="431.3" y2="441.1" stroke="#35a77a"/><rect x="737.8" y="431.6" width="3.9" height="7.4" fill="#35a77a"/><line x1="746.7" x2="746.7" y1="430.4" y2="444.3" stroke="#d76565"/><rect x="744.8" y="431.6" width="3.9" height="5.6" fill="#d76565"/><line x1="753.7" x2="753.7" y1="432.0" y2="437.8" stroke="#35a77a"/><rect x="751.8" y="434.8" width="3.9" height="2.1" fill="#35a77a"/><line x1="760.8" x2="760.8" y1="426.2" y2="435.3" stroke="#35a77a"/><rect x="758.8" y="429.2" width="3.9" height="5.6" fill="#35a77a"/><line x1="767.8" x2="767.8" y1="428.3" y2="438.8" stroke="#d76565"/><rect x="765.8" y="428.6" width="3.9" height="10.0" fill="#d76565"/><line x1="774.8" x2="774.8" y1="432.3" y2="450.2" stroke="#d76565"/><rect x="772.9" y="438.5" width="3.9" height="4.9" fill="#d76565"/><line x1="781.8" x2="781.8" y1="439.0" y2="451.1" stroke="#d76565"/><rect x="779.9" y="443.2" width="3.9" height="6.7" fill="#d76565"/><line x1="788.8" x2="788.8" y1="444.1" y2="452.2" stroke="#35a77a"/><rect x="786.9" y="449.2" width="3.9" height="1.2" fill="#35a77a"/><line x1="795.8" x2="795.8" y1="431.8" y2="454.3" stroke="#35a77a"/><rect x="793.9" y="434.4" width="3.9" height="15.1" fill="#35a77a"/><line x1="802.8" x2="802.8" y1="430.4" y2="438.3" stroke="#d76565"/><rect x="800.9" y="434.6" width="3.9" height="2.1" fill="#d76565"/><line x1="809.9" x2="809.9" y1="437.4" y2="451.5" stroke="#d76565"/><rect x="807.9" y="437.4" width="3.9" height="9.5" fill="#d76565"/><line x1="816.9" x2="816.9" y1="418.1" y2="448.3" stroke="#35a77a"/><rect x="814.9" y="419.5" width="3.9" height="27.2" fill="#35a77a"/><line x1="823.9" x2="823.9" y1="474.3" y2="495.9" stroke="#d76565"/><rect x="822.0" y="480.3" width="3.9" height="3.0" fill="#d76565"/><line x1="830.9" x2="830.9" y1="469.9" y2="486.2" stroke="#35a77a"/><rect x="829.0" y="474.1" width="3.9" height="8.6" fill="#35a77a"/><line x1="837.9" x2="837.9" y1="452.7" y2="480.8" stroke="#35a77a"/><rect x="836.0" y="456.4" width="3.9" height="17.4" fill="#35a77a"/><line x1="844.9" x2="844.9" y1="454.3" y2="477.3" stroke="#d76565"/><rect x="843.0" y="456.9" width="3.9" height="15.1" fill="#d76565"/><line x1="851.9" x2="851.9" y1="466.4" y2="477.6" stroke="#d76565"/><rect x="850.0" y="471.5" width="3.9" height="6.0" fill="#d76565"/><line x1="859.0" x2="859.0" y1="454.1" y2="481.0" stroke="#35a77a"/><rect x="857.0" y="458.5" width="3.9" height="19.0" fill="#35a77a"/><line x1="866.0" x2="866.0" y1="452.0" y2="462.0" stroke="#35a77a"/><rect x="864.0" y="457.6" width="3.9" height="1.2" fill="#35a77a"/><line x1="873.0" x2="873.0" y1="446.7" y2="469.0" stroke="#35a77a"/><rect x="871.1" y="456.4" width="3.9" height="1.2" fill="#35a77a"/><line x1="880.0" x2="880.0" y1="450.2" y2="457.4" stroke="#35a77a"/><rect x="878.1" y="452.9" width="3.9" height="3.9" fill="#35a77a"/><line x1="887.0" x2="887.0" y1="451.3" y2="458.0" stroke="#d76565"/><rect x="885.1" y="453.2" width="3.9" height="4.6" fill="#d76565"/><line x1="894.0" x2="894.0" y1="456.0" y2="466.6" stroke="#d76565"/><rect x="892.1" y="458.0" width="3.9" height="1.2" fill="#d76565"/><line x1="901.0" x2="901.0" y1="453.9" y2="468.3" stroke="#d76565"/><rect x="899.1" y="459.2" width="3.9" height="4.6" fill="#d76565"/><line x1="908.1" x2="908.1" y1="453.4" y2="465.2" stroke="#35a77a"/><rect x="906.1" y="462.2" width="3.9" height="1.6" fill="#35a77a"/><line x1="915.1" x2="915.1" y1="443.0" y2="463.4" stroke="#35a77a"/><rect x="913.1" y="445.3" width="3.9" height="18.1" fill="#35a77a"/><line x1="922.1" x2="922.1" y1="441.8" y2="451.8" stroke="#d76565"/><rect x="920.2" y="445.0" width="3.9" height="1.6" fill="#d76565"/><line x1="929.1" x2="929.1" y1="441.8" y2="448.8" stroke="#35a77a"/><rect x="927.2" y="443.0" width="3.9" height="3.5" fill="#35a77a"/><line x1="936.1" x2="936.1" y1="419.0" y2="443.6" stroke="#35a77a"/><rect x="934.2" y="424.6" width="3.9" height="18.1" fill="#35a77a"/><line x1="943.1" x2="943.1" y1="412.3" y2="425.8" stroke="#35a77a"/><rect x="941.2" y="412.3" width="3.9" height="12.3" fill="#35a77a"/><line x1="950.1" x2="950.1" y1="400.2" y2="423.7" stroke="#d76565"/><rect x="948.2" y="412.8" width="3.9" height="10.9" fill="#d76565"/><line x1="957.2" x2="957.2" y1="414.6" y2="423.9" stroke="#35a77a"/><rect x="955.2" y="419.3" width="3.9" height="4.2" fill="#35a77a"/><line x1="964.2" x2="964.2" y1="418.6" y2="428.3" stroke="#d76565"/><rect x="962.2" y="419.0" width="3.9" height="7.4" fill="#d76565"/><line x1="971.2" x2="971.2" y1="422.7" y2="438.5" stroke="#d76565"/><rect x="969.3" y="426.0" width="3.9" height="8.6" fill="#d76565"/><line x1="978.2" x2="978.2" y1="424.1" y2="437.6" stroke="#35a77a"/><rect x="976.3" y="424.6" width="3.9" height="10.2" fill="#35a77a"/><line x1="985.2" x2="985.2" y1="418.8" y2="426.2" stroke="#35a77a"/><rect x="983.3" y="420.2" width="3.9" height="4.9" fill="#35a77a"/><line x1="992.2" x2="992.2" y1="410.4" y2="421.8" stroke="#35a77a"/><rect x="990.3" y="416.5" width="3.9" height="3.5" fill="#35a77a"/><line x1="999.2" x2="999.2" y1="405.8" y2="429.7" stroke="#d76565"/><rect x="997.3" y="416.7" width="3.9" height="10.9" fill="#d76565"/><line x1="1006.3" x2="1006.3" y1="465.0" y2="482.4" stroke="#d76565"/><rect x="1004.3" y="475.5" width="3.9" height="1.6" fill="#d76565"/><line x1="1013.3" x2="1013.3" y1="468.7" y2="479.2" stroke="#35a77a"/><rect x="1011.3" y="474.3" width="3.9" height="3.0" fill="#35a77a"/><line x1="1020.3" x2="1020.3" y1="472.4" y2="499.6" stroke="#d76565"/><rect x="1018.4" y="474.8" width="3.9" height="12.3" fill="#d76565"/><line x1="1027.3" x2="1027.3" y1="478.0" y2="502.4" stroke="#35a77a"/><rect x="1025.4" y="481.7" width="3.9" height="5.1" fill="#35a77a"/><line x1="1034.3" x2="1034.3" y1="470.8" y2="487.1" stroke="#35a77a"/><rect x="1032.4" y="473.8" width="3.9" height="7.9" fill="#35a77a"/><line x1="1041.3" x2="1041.3" y1="466.6" y2="495.0" stroke="#d76565"/><rect x="1039.4" y="473.4" width="3.9" height="20.0" fill="#d76565"/><line x1="1048.3" x2="1048.3" y1="487.1" y2="529.4" stroke="#d76565"/><rect x="1046.4" y="492.9" width="3.9" height="27.4" fill="#d76565"/><line x1="1055.4" x2="1055.4" y1="509.8" y2="531.9" stroke="#d76565"/><rect x="1053.4" y="521.9" width="3.9" height="8.4" fill="#d76565"/><line x1="1062.4" x2="1062.4" y1="514.0" y2="533.1" stroke="#35a77a"/><rect x="1060.4" y="514.3" width="3.9" height="16.5" fill="#35a77a"/><line x1="1069.4" x2="1069.4" y1="507.1" y2="521.2" stroke="#35a77a"/><rect x="1067.5" y="508.4" width="3.9" height="6.0" fill="#35a77a"/><line x1="1076.4" x2="1076.4" y1="508.7" y2="534.9" stroke="#d76565"/><rect x="1074.5" y="508.7" width="3.9" height="24.4" fill="#d76565"/><line x1="1083.4" x2="1083.4" y1="528.2" y2="549.1" stroke="#d76565"/><rect x="1081.5" y="533.1" width="3.9" height="13.5" fill="#d76565"/><line x1="1090.4" x2="1090.4" y1="537.7" y2="559.8" stroke="#35a77a"/><rect x="1088.5" y="542.6" width="3.9" height="4.4" fill="#35a77a"/><line x1="1097.4" x2="1097.4" y1="531.7" y2="554.2" stroke="#d76565"/><rect x="1095.5" y="542.4" width="3.9" height="5.3" fill="#d76565"/><line x1="1104.5" x2="1104.5" y1="547.7" y2="583.5" stroke="#d76565"/><rect x="1102.5" y="547.7" width="3.9" height="34.8" fill="#d76565"/><line x1="1111.5" x2="1111.5" y1="573.9" y2="587.0" stroke="#35a77a"/><rect x="1109.5" y="574.4" width="3.9" height="7.9" fill="#35a77a"/><line x1="1118.5" x2="1118.5" y1="574.9" y2="594.6" stroke="#d76565"/><rect x="1116.6" y="575.1" width="3.9" height="14.4" fill="#d76565"/><line x1="711.7" x2="1122" y1="452.0" y2="452.0" stroke="#ffffff" stroke-width="1.25"/><text x="1125" y="455.0" fill="#ffffff" class="tick">Entry</text><line x1="711.7" x2="1122" y1="377.4" y2="377.4" stroke="#d76565" stroke-width="1.25"/><text x="1125" y="380.4" fill="#d76565" class="tick">Stop</text><line x1="711.7" x2="1122" y1="526.6" y2="526.6" stroke="#35a77a" stroke-width="1.25"/><text x="1125" y="529.6" fill="#35a77a" class="tick">Target</text><line x1="711.7" x2="1122" y1="525.2" y2="525.2" stroke="#a78bfa" stroke-width="1.25"/><text x="1125" y="528.2" fill="#a78bfa" class="tick">Exit</text><line x1="711.7" x2="711.7" y1="360" y2="612" class="marker"/><line x1="1048.3" x2="1048.3" y1="360" y2="612" class="exit"/><text x="604" y="633" class="tick">Entry 2024-10-21T16:00 · Exit 2024-10-23T15:00 · Net $+147.74</text></g></svg>