<svg xmlns="http://www.w3.org/2000/svg" width="1200" height="650" viewBox="0 0 1200 650"><style>.title{font:500 19px sans-serif;fill:#f2f2f2}.sub{font:13px sans-serif;fill:#b8b8b8}.tick{font:11px sans-serif;fill:#b8b8b8}.label{font:500 11px sans-serif}.grid{stroke:#353535;stroke-width:1}</style><rect width="1200" height="650" fill="#171717"/><text x="74" y="27" class="title">Zone #1584 · DEMAND · qualified score 2</text><text x="74" y="50" class="sub">2026-07-15T20:00:00Z · pivot|volume_profile</text><line x1="74" x2="1075" y1="585.0" y2="585.0" class="grid"/><text x="66" y="589.0" text-anchor="end" class="tick">747.26</text><line x1="74" x2="1075" y1="482.0" y2="482.0" class="grid"/><text x="66" y="486.0" text-anchor="end" class="tick">749.05</text><line x1="74" x2="1075" y1="379.0" y2="379.0" class="grid"/><text x="66" y="383.0" text-anchor="end" class="tick">750.84</text><line x1="74" x2="1075" y1="276.0" y2="276.0" class="grid"/><text x="66" y="280.0" text-anchor="end" class="tick">752.62</text><line x1="74" x2="1075" y1="173.0" y2="173.0" class="grid"/><text x="66" y="177.0" text-anchor="end" class="tick">754.41</text><line x1="74" x2="1075" y1="70.0" y2="70.0" class="grid"/><text x="66" y="74.0" text-anchor="end" class="tick">756.20</text><rect x="840.4" y="345.2" width="234.6" height="70.5" fill="#2db784" fill-opacity="0.22" stroke="#2db784" stroke-width="1.6"/><line x1="89.6" x2="89.6" y1="188.5" y2="265.2" stroke="#35a77a"/><rect x="82.6" y="196.0" width="14.0" height="69.2" fill="#35a77a"/><line x1="120.9" x2="120.9" y1="173.0" y2="226.6" stroke="#d76565"/><rect x="113.9" y="196.0" width="14.0" height="1.4" fill="#d76565"/><line x1="152.2" x2="152.2" y1="155.1" y2="200.7" stroke="#35a77a"/><rect x="145.2" y="167.8" width="14.0" height="28.8" fill="#35a77a"/><line x1="183.5" x2="183.5" y1="114.7" y2="170.7" stroke="#35a77a"/><rect x="176.5" y="144.7" width="14.0" height="23.1" fill="#35a77a"/><line x1="214.8" x2="214.8" y1="201.8" y2="316.5" stroke="#35a77a"/><rect x="207.8" y="218.5" width="14.0" height="66.3" fill="#35a77a"/><line x1="246.0" x2="246.0" y1="201.2" y2="410.0" stroke="#d76565"/><rect x="239.0" y="218.0" width="14.0" height="51.3" fill="#d76565"/><line x1="277.3" x2="277.3" y1="250.8" y2="364.4" stroke="#d76565"/><rect x="270.3" y="269.3" width="14.0" height="86.5" fill="#d76565"/><line x1="308.6" x2="308.6" y1="322.9" y2="488.9" stroke="#d76565"/><rect x="301.6" y="356.3" width="14.0" height="78.4" fill="#d76565"/><line x1="339.9" x2="339.9" y1="390.3" y2="472.8" stroke="#d76565"/><rect x="332.9" y="433.0" width="14.0" height="38.1" fill="#d76565"/><line x1="371.2" x2="371.2" y1="415.1" y2="486.6" stroke="#35a77a"/><rect x="364.2" y="452.6" width="14.0" height="17.3" fill="#35a77a"/><line x1="402.5" x2="402.5" y1="429.0" y2="542.6" stroke="#d76565"/><rect x="395.5" y="451.5" width="14.0" height="27.7" fill="#d76565"/><line x1="433.7" x2="433.7" y1="324.0" y2="459.5" stroke="#35a77a"/><rect x="426.7" y="351.7" width="14.0" height="24.2" fill="#35a77a"/><line x1="465.0" x2="465.0" y1="234.7" y2="504.5" stroke="#35a77a"/><rect x="458.0" y="328.7" width="14.0" height="22.5" fill="#35a77a"/><line x1="496.3" x2="496.3" y1="249.7" y2="391.5" stroke="#d76565"/><rect x="489.3" y="328.7" width="14.0" height="42.1" fill="#d76565"/><line x1="527.6" x2="527.6" y1="320.6" y2="427.2" stroke="#35a77a"/><rect x="520.6" y="320.6" width="14.0" height="49.6" fill="#35a77a"/><line x1="558.9" x2="558.9" y1="276.8" y2="340.8" stroke="#35a77a"/><rect x="551.9" y="295.8" width="14.0" height="23.6" fill="#35a77a"/><line x1="590.1" x2="590.1" y1="267.5" y2="331.5" stroke="#d76565"/><rect x="583.1" y="295.8" width="14.0" height="6.3" fill="#d76565"/><line x1="621.4" x2="621.4" y1="282.0" y2="328.7" stroke="#d76565"/><rect x="614.4" y="301.0" width="14.0" height="20.2" fill="#d76565"/><line x1="652.7" x2="652.7" y1="105.5" y2="243.9" stroke="#35a77a"/><rect x="645.7" y="170.7" width="14.0" height="12.1" fill="#35a77a"/><line x1="684.0" x2="684.0" y1="106.7" y2="269.3" stroke="#d76565"/><rect x="677.0" y="166.6" width="14.0" height="61.1" fill="#d76565"/><line x1="715.3" x2="715.3" y1="187.4" y2="300.4" stroke="#d76565"/><rect x="708.3" y="226.6" width="14.0" height="46.7" fill="#d76565"/><line x1="746.5" x2="746.5" y1="264.1" y2="415.7" stroke="#d76565"/><rect x="739.5" y="275.0" width="14.0" height="55.9" fill="#d76565"/><line x1="777.8" x2="777.8" y1="164.9" y2="336.1" stroke="#35a77a"/><rect x="770.8" y="185.7" width="14.0" height="144.7" fill="#35a77a"/><line x1="809.1" x2="809.1" y1="143.6" y2="248.5" stroke="#d76565"/><rect x="802.1" y="185.1" width="14.0" height="58.2" fill="#d76565"/><line x1="840.4" x2="840.4" y1="150.5" y2="251.4" stroke="#35a77a"/><rect x="833.4" y="151.1" width="14.0" height="92.3" fill="#35a77a"/><line x1="871.7" x2="871.7" y1="224.3" y2="388.6" stroke="#d76565"/><rect x="864.7" y="269.3" width="14.0" height="47.9" fill="#d76565"/><line x1="903.0" x2="903.0" y1="163.8" y2="332.7" stroke="#35a77a"/><rect x="896.0" y="186.8" width="14.0" height="130.9" fill="#35a77a"/><line x1="934.2" x2="934.2" y1="171.2" y2="255.4" stroke="#d76565"/><rect x="927.2" y="185.1" width="14.0" height="36.3" fill="#d76565"/><line x1="965.5" x2="965.5" y1="219.7" y2="343.6" stroke="#d76565"/><rect x="958.5" y="219.7" width="14.0" height="42.7" fill="#d76565"/><line x1="996.8" x2="996.8" y1="259.5" y2="365.0" stroke="#d76565"/><rect x="989.8" y="261.2" width="14.0" height="90.5" fill="#d76565"/><line x1="1028.1" x2="1028.1" y1="328.7" y2="431.9" stroke="#d76565"/><rect x="1021.1" y="350.6" width="14.0" height="63.4" fill="#d76565"/><line x1="1059.4" x2="1059.4" y1="367.3" y2="549.5" stroke="#35a77a"/><rect x="1052.4" y="383.4" width="14.0" height="31.1" fill="#35a77a"/><line x1="840.4" x2="840.4" y1="70" y2="585" stroke="#f2f2f2" stroke-width="1.4" stroke-dasharray="5 4"/><text x="845.4" y="86" fill="#f2f2f2" class="label">AVAILABLE / QUALIFIED</text><circle cx="871.7" cy="415.7" r="5" fill="#f4c95d"/><text x="871.7" y="406.7" text-anchor="middle" fill="#f4c95d" class="label">T</text><circle cx="871.7" cy="415.7" r="5" fill="#62cf7c"/><text x="871.7" y="406.7" text-anchor="middle" fill="#62cf7c" class="label">R</text><circle cx="996.8" cy="415.7" r="5" fill="#f4c95d"/><text x="996.8" y="406.7" text-anchor="middle" fill="#f4c95d" class="label">T</text><text x="89.6" y="609" text-anchor="middle" class="tick">07-10 16:00</text><text x="246.0" y="609" text-anchor="middle" class="tick">07-13 14:00</text><text x="402.5" y="609" text-anchor="middle" class="tick">07-13 19:00</text><text x="558.9" y="609" text-anchor="middle" class="tick">07-14 17:00</text><text x="715.3" y="609" text-anchor="middle" class="tick">07-15 15:00</text><text x="871.7" y="609" text-anchor="middle" class="tick">07-16 13:30</text><text x="1028.1" y="609" text-anchor="middle" class="tick">07-16 18:00</text><text x="1083" y="349.2" fill="#2db784" class="label">Upper 751.42</text><text x="1083" y="419.7" fill="#2db784" class="label">Lower 750.20</text><text x="74" y="635" class="sub">T touch · R rejection · B broken · F verified role-flip retest</text></svg>