<svg xmlns="http://www.w3.org/2000/svg" width="1200" height="650" viewBox="0 0 1200 650"><style>.title{font:500 19px sans-serif;fill:#f2f2f2}.sub{font:13px sans-serif;fill:#b8b8b8}.tick{font:11px sans-serif;fill:#b8b8b8}.label{font:500 11px sans-serif}.grid{stroke:#353535;stroke-width:1}</style><rect width="1200" height="650" fill="#171717"/><text x="74" y="27" class="title">Zone #1 · DEMAND · qualified score 2</text><text x="74" y="50" class="sub">2021-04-21T15:00:00Z · pivot|volume_profile</text><line x1="74" x2="1075" y1="585.0" y2="585.0" class="grid"/><text x="66" y="589.0" text-anchor="end" class="tick">409.96</text><line x1="74" x2="1075" y1="482.0" y2="482.0" class="grid"/><text x="66" y="486.0" text-anchor="end" class="tick">411.78</text><line x1="74" x2="1075" y1="379.0" y2="379.0" class="grid"/><text x="66" y="383.0" text-anchor="end" class="tick">413.61</text><line x1="74" x2="1075" y1="276.0" y2="276.0" class="grid"/><text x="66" y="280.0" text-anchor="end" class="tick">415.43</text><line x1="74" x2="1075" y1="173.0" y2="173.0" class="grid"/><text x="66" y="177.0" text-anchor="end" class="tick">417.26</text><line x1="74" x2="1075" y1="70.0" y2="70.0" class="grid"/><text x="66" y="74.0" text-anchor="end" class="tick">419.08</text><rect x="372.4" y="534.8" width="702.6" height="14.7" fill="#2db784" fill-opacity="0.22" stroke="#2db784" stroke-width="1.6"/><line x1="83.6" x2="83.6" y1="202.1" y2="232.0" stroke="#35a77a"/><rect x="78.2" y="208.9" width="10.8" height="21.5" fill="#35a77a"/><line x1="102.9" x2="102.9" y1="206.1" y2="335.4" stroke="#d76565"/><rect x="97.5" y="208.9" width="10.8" height="71.7" fill="#d76565"/><line x1="122.1" x2="122.1" y1="260.3" y2="343.3" stroke="#d76565"/><rect x="116.7" y="280.6" width="10.8" height="28.8" fill="#d76565"/><line x1="141.4" x2="141.4" y1="285.7" y2="368.7" stroke="#d76565"/><rect x="136.0" y="310.6" width="10.8" height="34.5" fill="#d76565"/><line x1="160.6" x2="160.6" y1="295.3" y2="354.6" stroke="#35a77a"/><rect x="155.2" y="319.0" width="10.8" height="26.0" fill="#35a77a"/><line x1="179.9" x2="179.9" y1="293.6" y2="336.0" stroke="#35a77a"/><rect x="174.5" y="295.9" width="10.8" height="23.2" fill="#35a77a"/><line x1="199.1" x2="199.1" y1="281.2" y2="349.0" stroke="#35a77a"/><rect x="193.7" y="285.1" width="10.8" height="10.7" fill="#35a77a"/><line x1="218.4" x2="218.4" y1="318.5" y2="372.1" stroke="#35a77a"/><rect x="213.0" y="337.7" width="10.8" height="24.3" fill="#35a77a"/><line x1="237.6" x2="237.6" y1="324.7" y2="483.4" stroke="#d76565"/><rect x="232.2" y="337.7" width="10.8" height="112.4" fill="#d76565"/><line x1="256.9" x2="256.9" y1="441.0" y2="547.8" stroke="#d76565"/><rect x="251.5" y="450.1" width="10.8" height="50.3" fill="#d76565"/><line x1="276.1" x2="276.1" y1="447.2" y2="509.4" stroke="#35a77a"/><rect x="270.7" y="468.1" width="10.8" height="32.2" fill="#35a77a"/><line x1="295.4" x2="295.4" y1="467.0" y2="515.0" stroke="#d76565"/><rect x="290.0" y="468.7" width="10.8" height="6.2" fill="#d76565"/><line x1="314.6" x2="314.6" y1="464.2" y2="549.5" stroke="#d76565"/><rect x="309.2" y="475.5" width="10.8" height="59.3" fill="#d76565"/><line x1="333.9" x2="333.9" y1="432.0" y2="535.4" stroke="#35a77a"/><rect x="328.5" y="457.4" width="10.8" height="77.4" fill="#35a77a"/><line x1="353.1" x2="353.1" y1="389.1" y2="506.0" stroke="#35a77a"/><rect x="347.7" y="390.2" width="10.8" height="107.3" fill="#35a77a"/><line x1="372.4" x2="372.4" y1="351.2" y2="413.9" stroke="#35a77a"/><rect x="367.0" y="369.9" width="10.8" height="20.3" fill="#35a77a"/><line x1="391.6" x2="391.6" y1="304.3" y2="378.9" stroke="#35a77a"/><rect x="386.2" y="306.6" width="10.8" height="63.3" fill="#35a77a"/><line x1="410.9" x2="410.9" y1="304.9" y2="336.5" stroke="#d76565"/><rect x="405.5" y="306.6" width="10.8" height="23.7" fill="#d76565"/><line x1="430.1" x2="430.1" y1="303.8" y2="331.5" stroke="#35a77a"/><rect x="424.7" y="304.9" width="10.8" height="26.0" fill="#35a77a"/><line x1="449.4" x2="449.4" y1="285.7" y2="313.9" stroke="#35a77a"/><rect x="444.0" y="302.6" width="10.8" height="2.3" fill="#35a77a"/><line x1="468.6" x2="468.6" y1="227.5" y2="310.6" stroke="#35a77a"/><rect x="463.2" y="239.4" width="10.8" height="63.8" fill="#35a77a"/><line x1="487.9" x2="487.9" y1="249.0" y2="316.8" stroke="#d76565"/><rect x="482.5" y="250.7" width="10.8" height="33.3" fill="#d76565"/><line x1="507.1" x2="507.1" y1="234.9" y2="326.9" stroke="#35a77a"/><rect x="501.7" y="251.8" width="10.8" height="32.2" fill="#35a77a"/><line x1="526.4" x2="526.4" y1="218.5" y2="260.3" stroke="#35a77a"/><rect x="521.0" y="239.4" width="10.8" height="11.9" fill="#35a77a"/><line x1="545.6" x2="545.6" y1="201.0" y2="256.9" stroke="#35a77a"/><rect x="540.2" y="201.5" width="10.8" height="36.7" fill="#35a77a"/><line x1="564.9" x2="564.9" y1="199.8" y2="498.1" stroke="#d76565"/><rect x="559.5" y="201.5" width="10.8" height="278.5" fill="#d76565"/><line x1="584.1" x2="584.1" y1="387.9" y2="519.0" stroke="#35a77a"/><rect x="578.7" y="413.4" width="10.8" height="66.1" fill="#35a77a"/><line x1="603.4" x2="603.4" y1="388.5" y2="484.0" stroke="#d76565"/><rect x="598.0" y="413.4" width="10.8" height="38.4" fill="#d76565"/><line x1="622.6" x2="622.6" y1="345.6" y2="425.2" stroke="#35a77a"/><rect x="617.2" y="346.7" width="10.8" height="74.0" fill="#35a77a"/><line x1="641.9" x2="641.9" y1="242.8" y2="350.7" stroke="#35a77a"/><rect x="636.5" y="245.6" width="10.8" height="100.5" fill="#35a77a"/><line x1="661.1" x2="661.1" y1="216.8" y2="265.9" stroke="#35a77a"/><rect x="655.7" y="229.8" width="10.8" height="16.4" fill="#35a77a"/><line x1="680.4" x2="680.4" y1="171.6" y2="229.8" stroke="#35a77a"/><rect x="675.0" y="181.8" width="10.8" height="48.0" fill="#35a77a"/><line x1="699.6" x2="699.6" y1="166.0" y2="193.1" stroke="#d76565"/><rect x="694.2" y="181.8" width="10.8" height="4.5" fill="#d76565"/><line x1="718.9" x2="718.9" y1="154.7" y2="201.5" stroke="#35a77a"/><rect x="713.5" y="166.0" width="10.8" height="20.3" fill="#35a77a"/><line x1="738.1" x2="738.1" y1="116.8" y2="206.6" stroke="#d76565"/><rect x="732.7" y="166.5" width="10.8" height="36.7" fill="#d76565"/><line x1="757.4" x2="757.4" y1="132.1" y2="176.1" stroke="#35a77a"/><rect x="752.0" y="148.4" width="10.8" height="14.1" fill="#35a77a"/><line x1="776.6" x2="776.6" y1="121.3" y2="153.5" stroke="#35a77a"/><rect x="771.2" y="145.1" width="10.8" height="3.4" fill="#35a77a"/><line x1="795.9" x2="795.9" y1="122.5" y2="153.0" stroke="#d76565"/><rect x="790.5" y="145.1" width="10.8" height="3.4" fill="#d76565"/><line x1="815.1" x2="815.1" y1="141.7" y2="171.6" stroke="#d76565"/><rect x="809.7" y="149.0" width="10.8" height="4.5" fill="#d76565"/><line x1="834.4" x2="834.4" y1="146.8" y2="171.0" stroke="#35a77a"/><rect x="829.0" y="147.9" width="10.8" height="5.6" fill="#35a77a"/><line x1="853.6" x2="853.6" y1="124.7" y2="147.9" stroke="#35a77a"/><rect x="848.2" y="125.9" width="10.8" height="21.5" fill="#35a77a"/><line x1="872.9" x2="872.9" y1="118.5" y2="189.1" stroke="#d76565"/><rect x="867.5" y="125.9" width="10.8" height="24.9" fill="#d76565"/><line x1="892.1" x2="892.1" y1="131.5" y2="199.8" stroke="#d76565"/><rect x="886.7" y="134.9" width="10.8" height="61.0" fill="#d76565"/><line x1="911.4" x2="911.4" y1="167.1" y2="227.0" stroke="#35a77a"/><rect x="906.0" y="177.8" width="10.8" height="18.1" fill="#35a77a"/><line x1="930.6" x2="930.6" y1="150.1" y2="190.2" stroke="#35a77a"/><rect x="925.2" y="156.9" width="10.8" height="21.5" fill="#35a77a"/><line x1="949.9" x2="949.9" y1="145.6" y2="188.5" stroke="#d76565"/><rect x="944.5" y="156.9" width="10.8" height="25.4" fill="#d76565"/><line x1="969.1" x2="969.1" y1="154.7" y2="184.6" stroke="#35a77a"/><rect x="963.7" y="165.4" width="10.8" height="16.9" fill="#35a77a"/><line x1="988.4" x2="988.4" y1="141.1" y2="183.5" stroke="#35a77a"/><rect x="983.0" y="153.0" width="10.8" height="11.9" fill="#35a77a"/><line x1="1007.6" x2="1007.6" y1="123.0" y2="172.7" stroke="#d76565"/><rect x="1002.2" y="153.0" width="10.8" height="7.3" fill="#d76565"/><line x1="1026.9" x2="1026.9" y1="107.8" y2="169.3" stroke="#35a77a"/><rect x="1021.5" y="109.5" width="10.8" height="31.1" fill="#35a77a"/><line x1="1046.1" x2="1046.1" y1="105.5" y2="145.6" stroke="#d76565"/><rect x="1040.7" y="108.9" width="10.8" height="20.3" fill="#d76565"/><line x1="1065.4" x2="1065.4" y1="124.7" y2="174.4" stroke="#d76565"/><rect x="1060.0" y="129.2" width="10.8" height="41.2" fill="#d76565"/><line x1="372.4" x2="372.4" y1="70" y2="585" stroke="#f2f2f2" stroke-width="1.4" stroke-dasharray="5 4"/><text x="377.4" y="86" fill="#f2f2f2" class="label">AVAILABLE / QUALIFIED</text><text x="83.6" y="609" text-anchor="middle" class="tick">04-19 13:30</text><text x="237.6" y="609" text-anchor="middle" class="tick">04-20 14:00</text><text x="391.6" y="609" text-anchor="middle" class="tick">04-21 15:00</text><text x="545.6" y="609" text-anchor="middle" class="tick">04-22 16:00</text><text x="699.6" y="609" text-anchor="middle" class="tick">04-23 17:00</text><text x="853.6" y="609" text-anchor="middle" class="tick">04-26 18:00</text><text x="1007.6" y="609" text-anchor="middle" class="tick">04-27 19:00</text><text x="1083" y="538.8" fill="#2db784" class="label">Upper 410.85</text><text x="1083" y="553.5" fill="#2db784" class="label">Lower 410.59</text><text x="74" y="635" class="sub">T touch · R rejection · B broken · F verified role-flip retest</text></svg>