<svg xmlns="http://www.w3.org/2000/svg" width="1200" height="650" viewBox="0 0 1200 650"><style>.title{font:500 19px sans-serif;fill:#f2f2f2}.sub{font:13px sans-serif;fill:#b8b8b8}.tick{font:11px sans-serif;fill:#b8b8b8}.label{font:500 11px sans-serif}.grid{stroke:#353535;stroke-width:1}</style><rect width="1200" height="650" fill="#171717"/><text x="74" y="27" class="title">Zone #435 · SUPPLY · qualified score 2</text><text x="74" y="50" class="sub">2022-10-04T19:00:00Z · pivot|repeated_pivot</text><line x1="74" x2="1075" y1="585.0" y2="585.0" class="grid"/><text x="66" y="589.0" text-anchor="end" class="tick">353.81</text><line x1="74" x2="1075" y1="482.0" y2="482.0" class="grid"/><text x="66" y="486.0" text-anchor="end" class="tick">359.32</text><line x1="74" x2="1075" y1="379.0" y2="379.0" class="grid"/><text x="66" y="383.0" text-anchor="end" class="tick">364.83</text><line x1="74" x2="1075" y1="276.0" y2="276.0" class="grid"/><text x="66" y="280.0" text-anchor="end" class="tick">370.34</text><line x1="74" x2="1075" y1="173.0" y2="173.0" class="grid"/><text x="66" y="177.0" text-anchor="end" class="tick">375.85</text><line x1="74" x2="1075" y1="70.0" y2="70.0" class="grid"/><text x="66" y="74.0" text-anchor="end" class="tick">381.36</text><rect x="476.0" y="139.2" width="599.0" height="33.8" fill="#dc5b69" fill-opacity="0.22" stroke="#dc5b69" stroke-width="1.6"/><line x1="82.2" x2="82.2" y1="382.0" y2="429.7" stroke="#35a77a"/><rect x="77.6" y="394.3" width="9.2" height="27.1" fill="#35a77a"/><line x1="98.6" x2="98.6" y1="386.5" y2="428.7" stroke="#d76565"/><rect x="94.0" y="394.5" width="9.2" height="32.3" fill="#d76565"/><line x1="115.0" x2="115.0" y1="423.3" y2="461.1" stroke="#d76565"/><rect x="110.4" y="426.7" width="9.2" height="33.3" fill="#d76565"/><line x1="131.4" x2="131.4" y1="439.8" y2="474.9" stroke="#d76565"/><rect x="126.8" y="459.8" width="9.2" height="11.0" fill="#d76565"/><line x1="147.8" x2="147.8" y1="408.3" y2="471.5" stroke="#35a77a"/><rect x="143.2" y="417.1" width="9.2" height="53.6" fill="#35a77a"/><line x1="164.3" x2="164.3" y1="400.3" y2="466.3" stroke="#35a77a"/><rect x="159.7" y="411.3" width="9.2" height="24.3" fill="#35a77a"/><line x1="180.7" x2="180.7" y1="383.1" y2="439.6" stroke="#35a77a"/><rect x="176.1" y="391.5" width="9.2" height="20.2" fill="#35a77a"/><line x1="197.1" x2="197.1" y1="358.8" y2="418.6" stroke="#d76565"/><rect x="192.5" y="390.8" width="9.2" height="23.4" fill="#d76565"/><line x1="213.5" x2="213.5" y1="405.9" y2="435.6" stroke="#d76565"/><rect x="208.9" y="414.0" width="9.2" height="5.6" fill="#d76565"/><line x1="229.9" x2="229.9" y1="413.6" y2="456.8" stroke="#d76565"/><rect x="225.3" y="420.1" width="9.2" height="30.7" fill="#d76565"/><line x1="246.3" x2="246.3" y1="436.2" y2="485.6" stroke="#d76565"/><rect x="241.7" y="451.0" width="9.2" height="31.0" fill="#d76565"/><line x1="262.7" x2="262.7" y1="454.9" y2="523.3" stroke="#d76565"/><rect x="258.1" y="481.8" width="9.2" height="39.3" fill="#d76565"/><line x1="279.1" x2="279.1" y1="438.8" y2="484.1" stroke="#d76565"/><rect x="274.5" y="449.1" width="9.2" height="8.0" fill="#d76565"/><line x1="295.5" x2="295.5" y1="376.8" y2="458.4" stroke="#35a77a"/><rect x="290.9" y="388.5" width="9.2" height="69.5" fill="#35a77a"/><line x1="311.9" x2="311.9" y1="367.4" y2="405.0" stroke="#d76565"/><rect x="307.3" y="388.7" width="9.2" height="10.1" fill="#d76565"/><line x1="328.4" x2="328.4" y1="376.4" y2="405.7" stroke="#35a77a"/><rect x="323.8" y="389.1" width="9.2" height="9.5" fill="#35a77a"/><line x1="344.8" x2="344.8" y1="353.6" y2="391.3" stroke="#35a77a"/><rect x="340.2" y="363.1" width="9.2" height="26.0" fill="#35a77a"/><line x1="361.2" x2="361.2" y1="309.5" y2="363.5" stroke="#35a77a"/><rect x="356.6" y="317.5" width="9.2" height="45.8" fill="#35a77a"/><line x1="377.6" x2="377.6" y1="312.8" y2="355.6" stroke="#d76565"/><rect x="373.0" y="317.5" width="9.2" height="26.2" fill="#d76565"/><line x1="394.0" x2="394.0" y1="168.9" y2="239.2" stroke="#35a77a"/><rect x="389.4" y="170.2" width="9.2" height="67.3" fill="#35a77a"/><line x1="410.4" x2="410.4" y1="144.2" y2="172.3" stroke="#35a77a"/><rect x="405.8" y="147.4" width="9.2" height="22.6" fill="#35a77a"/><line x1="426.8" x2="426.8" y1="139.2" y2="162.7" stroke="#d76565"/><rect x="422.2" y="147.4" width="9.2" height="3.6" fill="#d76565"/><line x1="443.2" x2="443.2" y1="140.3" y2="172.8" stroke="#d76565"/><rect x="438.6" y="150.9" width="9.2" height="16.1" fill="#d76565"/><line x1="459.6" x2="459.6" y1="155.6" y2="205.7" stroke="#35a77a"/><rect x="455.0" y="164.8" width="9.2" height="2.4" fill="#35a77a"/><line x1="476.0" x2="476.0" y1="143.8" y2="180.1" stroke="#35a77a"/><rect x="471.4" y="149.8" width="9.2" height="14.8" fill="#35a77a"/><line x1="492.5" x2="492.5" y1="133.0" y2="180.3" stroke="#35a77a"/><rect x="487.9" y="133.2" width="9.2" height="16.5" fill="#35a77a"/><line x1="508.9" x2="508.9" y1="185.5" y2="220.7" stroke="#35a77a"/><rect x="504.3" y="201.8" width="9.2" height="17.2" fill="#35a77a"/><line x1="525.3" x2="525.3" y1="201.2" y2="264.6" stroke="#d76565"/><rect x="520.7" y="202.3" width="9.2" height="54.8" fill="#d76565"/><line x1="541.7" x2="541.7" y1="218.2" y2="259.7" stroke="#35a77a"/><rect x="537.1" y="225.5" width="9.2" height="31.8" fill="#35a77a"/><line x1="558.1" x2="558.1" y1="169.8" y2="240.7" stroke="#35a77a"/><rect x="553.5" y="184.2" width="9.2" height="41.1" fill="#35a77a"/><line x1="574.5" x2="574.5" y1="141.4" y2="186.3" stroke="#35a77a"/><rect x="569.9" y="173.4" width="9.2" height="10.5" fill="#35a77a"/><line x1="590.9" x2="590.9" y1="137.5" y2="176.2" stroke="#35a77a"/><rect x="586.3" y="138.8" width="9.2" height="34.6" fill="#35a77a"/><line x1="607.3" x2="607.3" y1="105.5" y2="161.4" stroke="#d76565"/><rect x="602.7" y="138.6" width="9.2" height="10.1" fill="#d76565"/><line x1="623.7" x2="623.7" y1="119.4" y2="182.5" stroke="#35a77a"/><rect x="619.1" y="165.9" width="9.2" height="11.4" fill="#35a77a"/><line x1="640.1" x2="640.1" y1="161.0" y2="218.6" stroke="#35a77a"/><rect x="635.5" y="162.3" width="9.2" height="3.4" fill="#35a77a"/><line x1="656.5" x2="656.5" y1="152.6" y2="196.7" stroke="#d76565"/><rect x="652.0" y="162.2" width="9.2" height="32.7" fill="#d76565"/><line x1="673.0" x2="673.0" y1="164.4" y2="208.0" stroke="#35a77a"/><rect x="668.4" y="180.3" width="9.2" height="14.6" fill="#35a77a"/><line x1="689.4" x2="689.4" y1="170.9" y2="194.5" stroke="#d76565"/><rect x="684.8" y="180.1" width="9.2" height="1.4" fill="#d76565"/><line x1="705.8" x2="705.8" y1="180.5" y2="231.1" stroke="#d76565"/><rect x="701.2" y="181.2" width="9.2" height="36.5" fill="#d76565"/><line x1="722.2" x2="722.2" y1="196.4" y2="232.3" stroke="#d76565"/><rect x="717.6" y="218.1" width="9.2" height="4.1" fill="#d76565"/><line x1="738.6" x2="738.6" y1="294.1" y2="369.1" stroke="#d76565"/><rect x="734.0" y="301.6" width="9.2" height="64.3" fill="#d76565"/><line x1="755.0" x2="755.0" y1="335.8" y2="380.1" stroke="#35a77a"/><rect x="750.4" y="348.5" width="9.2" height="17.2" fill="#35a77a"/><line x1="771.4" x2="771.4" y1="336.2" y2="378.3" stroke="#d76565"/><rect x="766.8" y="348.7" width="9.2" height="21.7" fill="#d76565"/><line x1="787.8" x2="787.8" y1="360.5" y2="405.0" stroke="#d76565"/><rect x="783.2" y="370.4" width="9.2" height="27.7" fill="#d76565"/><line x1="804.2" x2="804.2" y1="387.6" y2="411.2" stroke="#d76565"/><rect x="799.6" y="398.1" width="9.2" height="7.1" fill="#d76565"/><line x1="820.6" x2="820.6" y1="397.9" y2="426.7" stroke="#d76565"/><rect x="816.1" y="405.2" width="9.2" height="12.2" fill="#d76565"/><line x1="837.1" x2="837.1" y1="403.9" y2="451.7" stroke="#35a77a"/><rect x="832.5" y="417.1" width="9.2" height="1.4" fill="#35a77a"/><line x1="853.5" x2="853.5" y1="390.6" y2="440.5" stroke="#d76565"/><rect x="848.9" y="395.1" width="9.2" height="43.4" fill="#d76565"/><line x1="869.9" x2="869.9" y1="413.2" y2="475.6" stroke="#d76565"/><rect x="865.3" y="438.6" width="9.2" height="26.7" fill="#d76565"/><line x1="886.3" x2="886.3" y1="441.8" y2="482.4" stroke="#35a77a"/><rect x="881.7" y="454.5" width="9.2" height="11.0" fill="#35a77a"/><line x1="902.7" x2="902.7" y1="450.8" y2="500.1" stroke="#d76565"/><rect x="898.1" y="454.3" width="9.2" height="45.4" fill="#d76565"/><line x1="919.1" x2="919.1" y1="425.0" y2="512.8" stroke="#35a77a"/><rect x="914.5" y="441.2" width="9.2" height="58.9" fill="#35a77a"/><line x1="935.5" x2="935.5" y1="436.4" y2="470.4" stroke="#d76565"/><rect x="930.9" y="441.6" width="9.2" height="17.6" fill="#d76565"/><line x1="951.9" x2="951.9" y1="432.3" y2="468.7" stroke="#d76565"/><rect x="947.3" y="458.8" width="9.2" height="9.2" fill="#d76565"/><line x1="968.3" x2="968.3" y1="489.9" y2="534.7" stroke="#d76565"/><rect x="963.7" y="501.8" width="9.2" height="31.2" fill="#d76565"/><line x1="984.7" x2="984.7" y1="494.5" y2="547.6" stroke="#35a77a"/><rect x="980.2" y="515.8" width="9.2" height="17.2" fill="#35a77a"/><line x1="1001.2" x2="1001.2" y1="441.4" y2="517.0" stroke="#35a77a"/><rect x="996.6" y="455.1" width="9.2" height="60.4" fill="#35a77a"/><line x1="1017.6" x2="1017.6" y1="412.6" y2="479.0" stroke="#35a77a"/><rect x="1013.0" y="429.1" width="9.2" height="26.0" fill="#35a77a"/><line x1="1034.0" x2="1034.0" y1="424.8" y2="453.0" stroke="#d76565"/><rect x="1029.4" y="428.9" width="9.2" height="5.0" fill="#d76565"/><line x1="1050.4" x2="1050.4" y1="429.5" y2="522.4" stroke="#d76565"/><rect x="1045.8" y="434.1" width="9.2" height="85.2" fill="#d76565"/><line x1="1066.8" x2="1066.8" y1="502.2" y2="549.5" stroke="#35a77a"/><rect x="1062.2" y="511.5" width="9.2" height="8.2" fill="#35a77a"/><line x1="476.0" x2="476.0" y1="70" y2="585" stroke="#f2f2f2" stroke-width="1.4" stroke-dasharray="5 4"/><text x="481.0" y="86" fill="#f2f2f2" class="label">AVAILABLE / QUALIFIED</text><circle cx="394.0" cy="141.4" r="5" fill="#f4c95d"/><text x="394.0" y="132.4" text-anchor="middle" fill="#f4c95d" class="label">T</text><circle cx="492.5" cy="139.2" r="5" fill="#ff6b6b"/><text x="492.5" y="130.2" text-anchor="middle" fill="#ff6b6b" class="label">B</text><circle cx="590.9" cy="172.9" r="5" fill="#a78bfa"/><text x="590.9" y="163.9" text-anchor="middle" fill="#a78bfa" class="label">F</text><circle cx="590.9" cy="172.9" r="5" fill="#60a5fa"/><text x="590.9" y="163.9" text-anchor="middle" fill="#60a5fa" class="label">U</text><circle cx="656.5" cy="172.9" r="5" fill="#ff6b6b"/><text x="656.5" y="163.9" text-anchor="middle" fill="#ff6b6b" class="label">B</text><circle cx="673.0" cy="139.2" r="5" fill="#a78bfa"/><text x="673.0" y="130.2" text-anchor="middle" fill="#a78bfa" class="label">F</text><circle cx="689.4" cy="139.2" r="5" fill="#62cf7c"/><text x="689.4" y="130.2" text-anchor="middle" fill="#62cf7c" class="label">R</text><text x="82.2" y="609" text-anchor="middle" class="tick">09-29 15:00</text><text x="246.3" y="609" text-anchor="middle" class="tick">09-30 18:00</text><text x="410.4" y="609" text-anchor="middle" class="tick">10-04 14:00</text><text x="574.5" y="609" text-anchor="middle" class="tick">10-05 17:00</text><text x="738.6" y="609" text-anchor="middle" class="tick">10-07 13:30</text><text x="902.7" y="609" text-anchor="middle" class="tick">10-10 16:00</text><text x="1066.8" y="609" text-anchor="middle" class="tick">10-11 19:00</text><text x="1083" y="143.2" fill="#dc5b69" class="label">Upper 377.66</text><text x="1083" y="176.9" fill="#dc5b69" class="label">Lower 375.85</text><text x="74" y="635" class="sub">T touch · R rejection · B broken · F role flip · U later evidence upgrade</text></svg>