<svg xmlns="http://www.w3.org/2000/svg" width="1200" height="650" viewBox="0 0 1200 650"><style>.title{font:500 19px sans-serif;fill:#f2f2f2}.sub{font:13px sans-serif;fill:#b8b8b8}.tick{font:11px sans-serif;fill:#b8b8b8}.label{font:500 11px sans-serif}.grid{stroke:#353535;stroke-width:1}</style><rect width="1200" height="650" fill="#171717"/><text x="74" y="27" class="title">Zone #1026 · DEMAND · qualified score 3</text><text x="74" y="50" class="sub">2024-09-20T19:00:00Z · pivot|repeated_pivot|role_flip</text><line x1="74" x2="1075" y1="585.0" y2="585.0" class="grid"/><text x="66" y="589.0" text-anchor="end" class="tick">559.68</text><line x1="74" x2="1075" y1="482.0" y2="482.0" class="grid"/><text x="66" y="486.0" text-anchor="end" class="tick">562.91</text><line x1="74" x2="1075" y1="379.0" y2="379.0" class="grid"/><text x="66" y="383.0" text-anchor="end" class="tick">566.14</text><line x1="74" x2="1075" y1="276.0" y2="276.0" class="grid"/><text x="66" y="280.0" text-anchor="end" class="tick">569.36</text><line x1="74" x2="1075" y1="173.0" y2="173.0" class="grid"/><text x="66" y="177.0" text-anchor="end" class="tick">572.59</text><line x1="74" x2="1075" y1="70.0" y2="70.0" class="grid"/><text x="66" y="74.0" text-anchor="end" class="tick">575.82</text><rect x="476.0" y="364.8" width="599.0" height="45.0" fill="#2db784" fill-opacity="0.22" stroke="#2db784" stroke-width="1.6"/><line x1="82.2" x2="82.2" y1="384.3" y2="422.5" stroke="#d76565"/><rect x="77.6" y="410.1" width="9.2" height="5.4" fill="#d76565"/><line x1="98.6" x2="98.6" y1="409.1" y2="543.4" stroke="#d76565"/><rect x="94.0" y="416.2" width="9.2" height="100.1" fill="#d76565"/><line x1="115.0" x2="115.0" y1="476.4" y2="549.5" stroke="#35a77a"/><rect x="110.4" y="491.1" width="9.2" height="25.2" fill="#35a77a"/><line x1="131.4" x2="131.4" y1="473.3" y2="532.3" stroke="#d76565"/><rect x="126.8" y="490.8" width="9.2" height="19.5" fill="#d76565"/><line x1="147.8" x2="147.8" y1="473.6" y2="532.3" stroke="#35a77a"/><rect x="143.2" y="475.8" width="9.2" height="34.4" fill="#35a77a"/><line x1="164.3" x2="164.3" y1="449.3" y2="494.0" stroke="#d76565"/><rect x="159.7" y="455.4" width="9.2" height="23.6" fill="#d76565"/><line x1="180.7" x2="180.7" y1="467.8" y2="506.7" stroke="#d76565"/><rect x="176.1" y="478.4" width="9.2" height="7.0" fill="#d76565"/><line x1="197.1" x2="197.1" y1="473.9" y2="525.2" stroke="#d76565"/><rect x="192.5" y="485.7" width="9.2" height="36.7" fill="#d76565"/><line x1="213.5" x2="213.5" y1="456.0" y2="531.9" stroke="#35a77a"/><rect x="208.9" y="459.2" width="9.2" height="63.5" fill="#35a77a"/><line x1="229.9" x2="229.9" y1="438.2" y2="483.8" stroke="#d76565"/><rect x="225.3" y="458.9" width="9.2" height="15.3" fill="#d76565"/><line x1="246.3" x2="246.3" y1="297.5" y2="517.3" stroke="#35a77a"/><rect x="241.7" y="453.8" width="9.2" height="20.7" fill="#35a77a"/><line x1="262.7" x2="262.7" y1="387.8" y2="548.2" stroke="#d76565"/><rect x="258.1" y="453.2" width="9.2" height="79.1" fill="#d76565"/><line x1="279.1" x2="279.1" y1="221.0" y2="317.0" stroke="#d76565"/><rect x="274.5" y="223.5" width="9.2" height="45.6" fill="#d76565"/><line x1="295.5" x2="295.5" y1="195.5" y2="275.8" stroke="#35a77a"/><rect x="290.9" y="258.6" width="9.2" height="9.6" fill="#35a77a"/><line x1="311.9" x2="311.9" y1="218.1" y2="273.9" stroke="#35a77a"/><rect x="307.3" y="243.0" width="9.2" height="15.3" fill="#35a77a"/><line x1="328.4" x2="328.4" y1="190.4" y2="245.2" stroke="#35a77a"/><rect x="323.8" y="207.9" width="9.2" height="35.1" fill="#35a77a"/><line x1="344.8" x2="344.8" y1="163.9" y2="214.3" stroke="#35a77a"/><rect x="340.2" y="176.0" width="9.2" height="31.9" fill="#35a77a"/><line x1="361.2" x2="361.2" y1="168.3" y2="227.4" stroke="#d76565"/><rect x="356.6" y="176.3" width="9.2" height="18.2" fill="#d76565"/><line x1="377.6" x2="377.6" y1="188.4" y2="244.6" stroke="#d76565"/><rect x="373.0" y="194.5" width="9.2" height="31.9" fill="#d76565"/><line x1="394.0" x2="394.0" y1="303.6" y2="353.7" stroke="#d76565"/><rect x="389.4" y="324.6" width="9.2" height="22.0" fill="#d76565"/><line x1="410.4" x2="410.4" y1="327.2" y2="375.0" stroke="#d76565"/><rect x="405.8" y="349.2" width="9.2" height="21.7" fill="#d76565"/><line x1="426.8" x2="426.8" y1="339.9" y2="409.8" stroke="#35a77a"/><rect x="422.2" y="353.7" width="9.2" height="16.9" fill="#35a77a"/><line x1="443.2" x2="443.2" y1="303.6" y2="360.0" stroke="#35a77a"/><rect x="438.6" y="314.7" width="9.2" height="38.3" fill="#35a77a"/><line x1="459.6" x2="459.6" y1="298.8" y2="323.7" stroke="#d76565"/><rect x="455.0" y="315.1" width="9.2" height="2.2" fill="#d76565"/><line x1="476.0" x2="476.0" y1="315.1" y2="380.4" stroke="#d76565"/><rect x="471.4" y="317.3" width="9.2" height="18.8" fill="#d76565"/><line x1="492.5" x2="492.5" y1="277.7" y2="347.6" stroke="#35a77a"/><rect x="487.9" y="316.3" width="9.2" height="19.8" fill="#35a77a"/><line x1="508.9" x2="508.9" y1="274.2" y2="311.6" stroke="#d76565"/><rect x="504.3" y="276.8" width="9.2" height="17.2" fill="#d76565"/><line x1="525.3" x2="525.3" y1="244.9" y2="306.8" stroke="#35a77a"/><rect x="520.7" y="260.5" width="9.2" height="34.1" fill="#35a77a"/><line x1="541.7" x2="541.7" y1="251.0" y2="296.2" stroke="#d76565"/><rect x="537.1" y="260.2" width="9.2" height="8.3" fill="#d76565"/><line x1="558.1" x2="558.1" y1="266.9" y2="311.6" stroke="#d76565"/><rect x="553.5" y="268.8" width="9.2" height="30.6" fill="#d76565"/><line x1="574.5" x2="574.5" y1="276.8" y2="316.3" stroke="#35a77a"/><rect x="569.9" y="278.1" width="9.2" height="21.1" fill="#35a77a"/><line x1="590.9" x2="590.9" y1="270.4" y2="293.1" stroke="#35a77a"/><rect x="586.3" y="273.0" width="9.2" height="5.4" fill="#35a77a"/><line x1="607.3" x2="607.3" y1="258.6" y2="286.0" stroke="#35a77a"/><rect x="602.7" y="268.5" width="9.2" height="4.1" fill="#35a77a"/><line x1="623.7" x2="623.7" y1="238.2" y2="280.3" stroke="#d76565"/><rect x="619.1" y="240.7" width="9.2" height="36.4" fill="#d76565"/><line x1="640.1" x2="640.1" y1="265.0" y2="332.3" stroke="#35a77a"/><rect x="635.5" y="271.7" width="9.2" height="5.1" fill="#35a77a"/><line x1="656.5" x2="656.5" y1="221.6" y2="277.4" stroke="#35a77a"/><rect x="652.0" y="236.6" width="9.2" height="35.4" fill="#35a77a"/><line x1="673.0" x2="673.0" y1="217.5" y2="247.4" stroke="#d76565"/><rect x="668.4" y="236.3" width="9.2" height="5.1" fill="#d76565"/><line x1="689.4" x2="689.4" y1="223.5" y2="247.1" stroke="#35a77a"/><rect x="684.8" y="240.7" width="9.2" height="1.4" fill="#35a77a"/><line x1="705.8" x2="705.8" y1="233.4" y2="273.9" stroke="#d76565"/><rect x="701.2" y="239.8" width="9.2" height="1.6" fill="#d76565"/><line x1="722.2" x2="722.2" y1="212.4" y2="244.3" stroke="#35a77a"/><rect x="717.6" y="216.2" width="9.2" height="25.8" fill="#35a77a"/><line x1="738.6" x2="738.6" y1="197.4" y2="228.3" stroke="#35a77a"/><rect x="734.0" y="206.6" width="9.2" height="12.8" fill="#35a77a"/><line x1="755.0" x2="755.0" y1="195.5" y2="236.6" stroke="#d76565"/><rect x="750.4" y="205.3" width="9.2" height="11.2" fill="#d76565"/><line x1="771.4" x2="771.4" y1="210.8" y2="245.5" stroke="#d76565"/><rect x="766.8" y="216.2" width="9.2" height="15.9" fill="#d76565"/><line x1="787.8" x2="787.8" y1="229.3" y2="259.6" stroke="#d76565"/><rect x="783.2" y="232.1" width="9.2" height="23.9" fill="#d76565"/><line x1="804.2" x2="804.2" y1="245.5" y2="290.5" stroke="#35a77a"/><rect x="799.6" y="247.1" width="9.2" height="9.2" fill="#35a77a"/><line x1="820.6" x2="820.6" y1="243.6" y2="286.7" stroke="#d76565"/><rect x="816.1" y="247.8" width="9.2" height="7.3" fill="#d76565"/><line x1="837.1" x2="837.1" y1="247.4" y2="277.1" stroke="#d76565"/><rect x="832.5" y="255.1" width="9.2" height="1.4" fill="#d76565"/><line x1="853.5" x2="853.5" y1="105.5" y2="155.0" stroke="#d76565"/><rect x="848.9" y="115.4" width="9.2" height="27.1" fill="#d76565"/><line x1="869.9" x2="869.9" y1="123.4" y2="222.9" stroke="#d76565"/><rect x="865.3" y="142.2" width="9.2" height="74.0" fill="#d76565"/><line x1="886.3" x2="886.3" y1="173.5" y2="227.0" stroke="#35a77a"/><rect x="881.7" y="178.6" width="9.2" height="37.6" fill="#35a77a"/><line x1="902.7" x2="902.7" y1="178.6" y2="229.3" stroke="#d76565"/><rect x="898.1" y="178.9" width="9.2" height="42.4" fill="#d76565"/><line x1="919.1" x2="919.1" y1="199.6" y2="258.9" stroke="#35a77a"/><rect x="914.5" y="206.9" width="9.2" height="14.7" fill="#35a77a"/><line x1="935.5" x2="935.5" y1="168.7" y2="206.6" stroke="#35a77a"/><rect x="930.9" y="183.7" width="9.2" height="22.6" fill="#35a77a"/><line x1="951.9" x2="951.9" y1="168.0" y2="197.7" stroke="#35a77a"/><rect x="947.3" y="182.7" width="9.2" height="1.6" fill="#35a77a"/><line x1="968.3" x2="968.3" y1="142.2" y2="169.6" stroke="#d76565"/><rect x="963.7" y="147.6" width="9.2" height="12.4" fill="#d76565"/><line x1="984.7" x2="984.7" y1="121.1" y2="171.5" stroke="#35a77a"/><rect x="980.2" y="137.4" width="9.2" height="22.0" fill="#35a77a"/><line x1="1001.2" x2="1001.2" y1="137.1" y2="178.9" stroke="#d76565"/><rect x="996.6" y="138.7" width="9.2" height="39.2" fill="#d76565"/><line x1="1017.6" x2="1017.6" y1="171.9" y2="196.7" stroke="#d76565"/><rect x="1013.0" y="177.9" width="9.2" height="8.0" fill="#d76565"/><line x1="1034.0" x2="1034.0" y1="169.3" y2="206.9" stroke="#35a77a"/><rect x="1029.4" y="178.2" width="9.2" height="7.7" fill="#35a77a"/><line x1="1050.4" x2="1050.4" y1="171.2" y2="242.3" stroke="#d76565"/><rect x="1045.8" y="178.2" width="9.2" height="7.7" fill="#d76565"/><line x1="1066.8" x2="1066.8" y1="181.1" y2="213.6" stroke="#d76565"/><rect x="1062.2" y="185.9" width="9.2" height="24.9" fill="#d76565"/><line x1="476.0" x2="476.0" y1="70" y2="585" stroke="#f2f2f2" stroke-width="1.4" stroke-dasharray="5 4"/><text x="481.0" y="86" fill="#f2f2f2" class="label">AVAILABLE / QUALIFIED</text><circle cx="246.3" cy="364.8" r="5" fill="#f4c95d"/><text x="246.3" y="355.8" text-anchor="middle" fill="#f4c95d" class="label">T</text><circle cx="246.3" cy="364.8" r="5" fill="#62cf7c"/><text x="246.3" y="355.8" text-anchor="middle" fill="#62cf7c" class="label">R</text><circle cx="279.1" cy="364.8" r="5" fill="#ff6b6b"/><text x="279.1" y="355.8" text-anchor="middle" fill="#ff6b6b" class="label">B</text><circle cx="426.8" cy="402.9" r="5" fill="#a78bfa"/><text x="426.8" y="393.9" text-anchor="middle" fill="#a78bfa" class="label">F</text><circle cx="476.0" cy="402.9" r="5" fill="#f4c95d"/><text x="476.0" y="393.9" text-anchor="middle" fill="#f4c95d" class="label">T</text><circle cx="476.0" cy="402.9" r="5" fill="#62cf7c"/><text x="476.0" y="393.9" text-anchor="middle" fill="#62cf7c" class="label">R</text><text x="82.2" y="609" text-anchor="middle" class="tick">09-17 15:00</text><text x="246.3" y="609" text-anchor="middle" class="tick">09-18 18:00</text><text x="410.4" y="609" text-anchor="middle" class="tick">09-20 14:00</text><text x="574.5" y="609" text-anchor="middle" class="tick">09-23 17:00</text><text x="738.6" y="609" text-anchor="middle" class="tick">09-25 13:30</text><text x="902.7" y="609" text-anchor="middle" class="tick">09-26 16:00</text><text x="1066.8" y="609" text-anchor="middle" class="tick">09-27 19:00</text><text x="1083" y="368.8" fill="#2db784" class="label">Upper 566.58</text><text x="1083" y="413.8" fill="#2db784" class="label">Lower 565.17</text><text x="74" y="635" class="sub">T touch · R rejection · B broken · F role flip · U later evidence upgrade</text></svg>