<svg xmlns="http://www.w3.org/2000/svg" width="1200" height="650" viewBox="0 0 1200 650"><style>.title{font:500 19px sans-serif;fill:#f2f2f2}.sub{font:13px sans-serif;fill:#b8b8b8}.tick{font:11px sans-serif;fill:#b8b8b8}.label{font:500 11px sans-serif}.grid{stroke:#353535;stroke-width:1}</style><rect width="1200" height="650" fill="#171717"/><text x="74" y="27" class="title">Zone #386 · DEMAND · qualified score 2</text><text x="74" y="50" class="sub">2022-07-20T15:00:00Z · order_block|volume_profile</text><line x1="74" x2="1075" y1="585.0" y2="585.0" class="grid"/><text x="66" y="589.0" text-anchor="end" class="tick">373.52</text><line x1="74" x2="1075" y1="482.0" y2="482.0" class="grid"/><text x="66" y="486.0" text-anchor="end" class="tick">379.24</text><line x1="74" x2="1075" y1="379.0" y2="379.0" class="grid"/><text x="66" y="383.0" text-anchor="end" class="tick">384.96</text><line x1="74" x2="1075" y1="276.0" y2="276.0" class="grid"/><text x="66" y="280.0" text-anchor="end" class="tick">390.69</text><line x1="74" x2="1075" y1="173.0" y2="173.0" class="grid"/><text x="66" y="177.0" text-anchor="end" class="tick">396.41</text><line x1="74" x2="1075" y1="70.0" y2="70.0" class="grid"/><text x="66" y="74.0" text-anchor="end" class="tick">402.13</text><rect x="476.0" y="245.0" width="599.0" height="19.8" fill="#2db784" fill-opacity="0.22" stroke="#2db784" stroke-width="1.6"/><line x1="82.2" x2="82.2" y1="497.8" y2="549.5" stroke="#35a77a"/><rect x="77.6" y="508.3" width="9.2" height="39.1" fill="#35a77a"/><line x1="98.6" x2="98.6" y1="494.1" y2="521.8" stroke="#35a77a"/><rect x="94.0" y="504.9" width="9.2" height="3.4" fill="#35a77a"/><line x1="115.0" x2="115.0" y1="408.2" y2="458.6" stroke="#d76565"/><rect x="110.4" y="422.4" width="9.2" height="20.5" fill="#d76565"/><line x1="131.4" x2="131.4" y1="390.4" y2="442.6" stroke="#35a77a"/><rect x="126.8" y="401.6" width="9.2" height="37.3" fill="#35a77a"/><line x1="147.8" x2="147.8" y1="381.0" y2="403.9" stroke="#35a77a"/><rect x="143.2" y="396.3" width="9.2" height="5.4" fill="#35a77a"/><line x1="164.3" x2="164.3" y1="390.8" y2="410.4" stroke="#d76565"/><rect x="159.7" y="396.2" width="9.2" height="4.3" fill="#d76565"/><line x1="180.7" x2="180.7" y1="382.3" y2="400.7" stroke="#35a77a"/><rect x="176.1" y="392.9" width="9.2" height="7.4" fill="#35a77a"/><line x1="197.1" x2="197.1" y1="382.3" y2="401.6" stroke="#35a77a"/><rect x="192.5" y="390.0" width="9.2" height="2.9" fill="#35a77a"/><line x1="213.5" x2="213.5" y1="373.8" y2="403.5" stroke="#35a77a"/><rect x="208.9" y="376.5" width="9.2" height="13.5" fill="#35a77a"/><line x1="229.9" x2="229.9" y1="304.7" y2="330.3" stroke="#d76565"/><rect x="225.3" y="317.5" width="9.2" height="1.4" fill="#d76565"/><line x1="246.3" x2="246.3" y1="311.8" y2="338.7" stroke="#d76565"/><rect x="241.7" y="319.3" width="9.2" height="6.1" fill="#d76565"/><line x1="262.7" x2="262.7" y1="316.3" y2="336.9" stroke="#35a77a"/><rect x="258.1" y="317.9" width="9.2" height="7.6" fill="#35a77a"/><line x1="279.1" x2="279.1" y1="317.2" y2="342.3" stroke="#d76565"/><rect x="274.5" y="317.9" width="9.2" height="21.6" fill="#d76565"/><line x1="295.5" x2="295.5" y1="335.9" y2="390.4" stroke="#d76565"/><rect x="290.9" y="339.6" width="9.2" height="47.3" fill="#d76565"/><line x1="311.9" x2="311.9" y1="376.2" y2="414.9" stroke="#d76565"/><rect x="307.3" y="387.2" width="9.2" height="25.0" fill="#d76565"/><line x1="328.4" x2="328.4" y1="396.5" y2="456.4" stroke="#d76565"/><rect x="323.8" y="412.2" width="9.2" height="20.3" fill="#d76565"/><line x1="344.8" x2="344.8" y1="343.8" y2="371.3" stroke="#35a77a"/><rect x="340.2" y="344.7" width="9.2" height="14.2" fill="#35a77a"/><line x1="361.2" x2="361.2" y1="306.7" y2="356.2" stroke="#35a77a"/><rect x="356.6" y="309.8" width="9.2" height="34.7" fill="#35a77a"/><line x1="377.6" x2="377.6" y1="290.2" y2="311.6" stroke="#35a77a"/><rect x="373.0" y="294.1" width="9.2" height="15.5" fill="#35a77a"/><line x1="394.0" x2="394.0" y1="279.4" y2="310.1" stroke="#35a77a"/><rect x="389.4" y="279.5" width="9.2" height="14.6" fill="#35a77a"/><line x1="410.4" x2="410.4" y1="259.0" y2="292.3" stroke="#35a77a"/><rect x="405.8" y="259.6" width="9.2" height="20.0" fill="#35a77a"/><line x1="426.8" x2="426.8" y1="246.2" y2="269.5" stroke="#35a77a"/><rect x="422.2" y="257.0" width="9.2" height="2.5" fill="#35a77a"/><line x1="443.2" x2="443.2" y1="236.7" y2="264.2" stroke="#35a77a"/><rect x="438.6" y="247.9" width="9.2" height="8.6" fill="#35a77a"/><line x1="459.6" x2="459.6" y1="235.6" y2="264.8" stroke="#d76565"/><rect x="455.0" y="245.0" width="9.2" height="17.1" fill="#d76565"/><line x1="476.0" x2="476.0" y1="181.3" y2="269.8" stroke="#35a77a"/><rect x="471.4" y="181.3" width="9.2" height="80.8" fill="#35a77a"/><line x1="492.5" x2="492.5" y1="180.7" y2="204.7" stroke="#d76565"/><rect x="487.9" y="181.3" width="9.2" height="3.2" fill="#d76565"/><line x1="508.9" x2="508.9" y1="175.7" y2="227.9" stroke="#d76565"/><rect x="504.3" y="184.5" width="9.2" height="19.4" fill="#d76565"/><line x1="525.3" x2="525.3" y1="202.5" y2="244.8" stroke="#d76565"/><rect x="520.7" y="204.1" width="9.2" height="38.5" fill="#d76565"/><line x1="541.7" x2="541.7" y1="200.4" y2="243.9" stroke="#35a77a"/><rect x="537.1" y="206.7" width="9.2" height="36.0" fill="#35a77a"/><line x1="558.1" x2="558.1" y1="183.4" y2="210.1" stroke="#35a77a"/><rect x="553.5" y="202.2" width="9.2" height="4.9" fill="#35a77a"/><line x1="574.5" x2="574.5" y1="189.4" y2="238.5" stroke="#35a77a"/><rect x="569.9" y="199.8" width="9.2" height="13.7" fill="#35a77a"/><line x1="590.9" x2="590.9" y1="184.7" y2="259.0" stroke="#d76565"/><rect x="586.3" y="199.1" width="9.2" height="9.9" fill="#d76565"/><line x1="607.3" x2="607.3" y1="181.1" y2="217.6" stroke="#35a77a"/><rect x="602.7" y="189.7" width="9.2" height="19.3" fill="#35a77a"/><line x1="623.7" x2="623.7" y1="150.5" y2="191.5" stroke="#35a77a"/><rect x="619.1" y="156.4" width="9.2" height="33.7" fill="#35a77a"/><line x1="640.1" x2="640.1" y1="151.8" y2="186.7" stroke="#d76565"/><rect x="635.5" y="156.3" width="9.2" height="15.5" fill="#d76565"/><line x1="656.5" x2="656.5" y1="155.0" y2="175.9" stroke="#35a77a"/><rect x="652.0" y="163.3" width="9.2" height="8.3" fill="#35a77a"/><line x1="673.0" x2="673.0" y1="129.3" y2="164.2" stroke="#35a77a"/><rect x="668.4" y="129.8" width="9.2" height="33.3" fill="#35a77a"/><line x1="689.4" x2="689.4" y1="105.5" y2="146.0" stroke="#d76565"/><rect x="684.8" y="127.8" width="9.2" height="17.3" fill="#d76565"/><line x1="705.8" x2="705.8" y1="121.7" y2="158.6" stroke="#35a77a"/><rect x="701.2" y="131.8" width="9.2" height="13.1" fill="#35a77a"/><line x1="722.2" x2="722.2" y1="129.8" y2="192.6" stroke="#d76565"/><rect x="717.6" y="131.4" width="9.2" height="43.6" fill="#d76565"/><line x1="738.6" x2="738.6" y1="169.0" y2="199.5" stroke="#d76565"/><rect x="734.0" y="175.5" width="9.2" height="18.5" fill="#d76565"/><line x1="755.0" x2="755.0" y1="193.9" y2="229.3" stroke="#d76565"/><rect x="750.4" y="193.9" width="9.2" height="22.1" fill="#d76565"/><line x1="771.4" x2="771.4" y1="213.9" y2="238.9" stroke="#d76565"/><rect x="766.8" y="215.8" width="9.2" height="5.8" fill="#d76565"/><line x1="787.8" x2="787.8" y1="194.8" y2="227.5" stroke="#35a77a"/><rect x="783.2" y="196.2" width="9.2" height="25.2" fill="#35a77a"/><line x1="804.2" x2="804.2" y1="179.5" y2="215.8" stroke="#d76565"/><rect x="799.6" y="184.9" width="9.2" height="4.5" fill="#d76565"/><line x1="820.6" x2="820.6" y1="182.5" y2="221.1" stroke="#d76565"/><rect x="816.1" y="188.8" width="9.2" height="5.6" fill="#d76565"/><line x1="837.1" x2="837.1" y1="175.2" y2="211.5" stroke="#35a77a"/><rect x="832.5" y="182.2" width="9.2" height="12.4" fill="#35a77a"/><line x1="853.5" x2="853.5" y1="171.9" y2="203.6" stroke="#d76565"/><rect x="848.9" y="182.0" width="9.2" height="1.6" fill="#d76565"/><line x1="869.9" x2="869.9" y1="174.8" y2="207.9" stroke="#d76565"/><rect x="865.3" y="183.6" width="9.2" height="23.9" fill="#d76565"/><line x1="886.3" x2="886.3" y1="203.2" y2="222.7" stroke="#d76565"/><rect x="881.7" y="207.4" width="9.2" height="12.8" fill="#d76565"/><line x1="902.7" x2="902.7" y1="184.9" y2="230.6" stroke="#35a77a"/><rect x="898.1" y="188.5" width="9.2" height="31.5" fill="#35a77a"/><line x1="919.1" x2="919.1" y1="215.3" y2="244.8" stroke="#d76565"/><rect x="914.5" y="219.3" width="9.2" height="10.8" fill="#d76565"/><line x1="935.5" x2="935.5" y1="220.9" y2="250.0" stroke="#d76565"/><rect x="930.9" y="230.1" width="9.2" height="6.7" fill="#d76565"/><line x1="951.9" x2="951.9" y1="232.8" y2="279.2" stroke="#d76565"/><rect x="947.3" y="236.5" width="9.2" height="40.7" fill="#d76565"/><line x1="968.3" x2="968.3" y1="256.1" y2="280.8" stroke="#35a77a"/><rect x="963.7" y="259.6" width="9.2" height="17.8" fill="#35a77a"/><line x1="984.7" x2="984.7" y1="245.5" y2="266.2" stroke="#d76565"/><rect x="980.2" y="259.2" width="9.2" height="6.3" fill="#d76565"/><line x1="1001.2" x2="1001.2" y1="246.2" y2="284.4" stroke="#d76565"/><rect x="996.6" y="265.3" width="9.2" height="9.9" fill="#d76565"/><line x1="1017.6" x2="1017.6" y1="261.2" y2="289.3" stroke="#35a77a"/><rect x="1013.0" y="272.0" width="9.2" height="3.1" fill="#35a77a"/><line x1="1034.0" x2="1034.0" y1="185.8" y2="215.5" stroke="#35a77a"/><rect x="1029.4" y="192.4" width="9.2" height="17.5" fill="#35a77a"/><line x1="1050.4" x2="1050.4" y1="177.5" y2="199.1" stroke="#35a77a"/><rect x="1045.8" y="178.2" width="9.2" height="14.6" fill="#35a77a"/><line x1="1066.8" x2="1066.8" y1="164.7" y2="184.2" stroke="#35a77a"/><rect x="1062.2" y="168.7" width="9.2" height="9.2" fill="#35a77a"/><line x1="476.0" x2="476.0" y1="70" y2="585" stroke="#f2f2f2" stroke-width="1.4" stroke-dasharray="5 4"/><text x="481.0" y="86" fill="#f2f2f2" class="label">AVAILABLE / QUALIFIED</text><circle cx="590.9" cy="264.8" r="5" fill="#f4c95d"/><text x="590.9" y="255.8" text-anchor="middle" fill="#f4c95d" class="label">T</text><circle cx="590.9" cy="264.8" r="5" fill="#62cf7c"/><text x="590.9" y="255.8" text-anchor="middle" fill="#62cf7c" class="label">R</text><circle cx="640.1" cy="264.8" r="5" fill="#60a5fa"/><text x="640.1" y="255.8" text-anchor="middle" fill="#60a5fa" class="label">U</text><circle cx="935.5" cy="264.8" r="5" fill="#f4c95d"/><text x="935.5" y="255.8" text-anchor="middle" fill="#f4c95d" class="label">T</text><circle cx="935.5" cy="264.8" r="5" fill="#62cf7c"/><text x="935.5" y="255.8" text-anchor="middle" fill="#62cf7c" class="label">R</text><circle cx="951.9" cy="264.8" r="5" fill="#ff6b6b"/><text x="951.9" y="255.8" text-anchor="middle" fill="#ff6b6b" class="label">B</text><circle cx="984.7" cy="245.0" r="5" fill="#a78bfa"/><text x="984.7" y="236.0" text-anchor="middle" fill="#a78bfa" class="label">F</text><circle cx="1001.2" cy="245.0" r="5" fill="#62cf7c"/><text x="1001.2" y="236.0" text-anchor="middle" fill="#62cf7c" class="label">R</text><circle cx="1034.0" cy="245.0" r="5" fill="#ff6b6b"/><text x="1034.0" y="236.0" text-anchor="middle" fill="#ff6b6b" class="label">B</text><text x="82.2" y="609" text-anchor="middle" class="tick">07-14 18:00</text><text x="246.3" y="609" text-anchor="middle" class="tick">07-18 14:00</text><text x="410.4" y="609" text-anchor="middle" class="tick">07-19 17:00</text><text x="574.5" y="609" text-anchor="middle" class="tick">07-21 13:30</text><text x="738.6" y="609" text-anchor="middle" class="tick">07-22 16:00</text><text x="902.7" y="609" text-anchor="middle" class="tick">07-25 19:00</text><text x="1066.8" y="609" text-anchor="middle" class="tick">07-27 15:00</text><text x="1083" y="249.0" fill="#2db784" class="label">Upper 392.41</text><text x="1083" y="268.8" fill="#2db784" class="label">Lower 391.31</text><text x="74" y="635" class="sub">T touch · R rejection · B broken · F role flip · U later evidence upgrade</text></svg>