<svg xmlns="http://www.w3.org/2000/svg" width="1200" height="650" viewBox="0 0 1200 650"><style>.title{font:500 19px sans-serif;fill:#f2f2f2}.sub{font:13px sans-serif;fill:#b8b8b8}.tick{font:11px sans-serif;fill:#b8b8b8}.label{font:500 11px sans-serif}.grid{stroke:#353535;stroke-width:1}</style><rect width="1200" height="650" fill="#171717"/><text x="74" y="27" class="title">Zone #599 · DEMAND · qualified score 3</text><text x="74" y="50" class="sub">2023-04-12T19:00:00Z · pivot|repeated_pivot|role_flip</text><line x1="74" x2="1075" y1="585.0" y2="585.0" class="grid"/><text x="66" y="589.0" text-anchor="end" class="tick">405.19</text><line x1="74" x2="1075" y1="482.0" y2="482.0" class="grid"/><text x="66" y="486.0" text-anchor="end" class="tick">407.45</text><line x1="74" x2="1075" y1="379.0" y2="379.0" class="grid"/><text x="66" y="383.0" text-anchor="end" class="tick">409.71</text><line x1="74" x2="1075" y1="276.0" y2="276.0" class="grid"/><text x="66" y="280.0" text-anchor="end" class="tick">411.98</text><line x1="74" x2="1075" y1="173.0" y2="173.0" class="grid"/><text x="66" y="177.0" text-anchor="end" class="tick">414.24</text><line x1="74" x2="1075" y1="70.0" y2="70.0" class="grid"/><text x="66" y="74.0" text-anchor="end" class="tick">416.50</text><rect x="476.0" y="389.7" width="599.0" height="56.9" fill="#2db784" fill-opacity="0.22" stroke="#2db784" stroke-width="1.6"/><line x1="82.2" x2="82.2" y1="450.7" y2="537.6" stroke="#35a77a"/><rect x="77.6" y="451.6" width="9.2" height="77.0" fill="#35a77a"/><line x1="98.6" x2="98.6" y1="404.7" y2="451.6" stroke="#35a77a"/><rect x="94.0" y="430.2" width="9.2" height="21.4" fill="#35a77a"/><line x1="115.0" x2="115.0" y1="401.5" y2="437.9" stroke="#35a77a"/><rect x="110.4" y="417.9" width="9.2" height="11.4" fill="#35a77a"/><line x1="131.4" x2="131.4" y1="389.7" y2="422.4" stroke="#35a77a"/><rect x="126.8" y="414.7" width="9.2" height="2.7" fill="#35a77a"/><line x1="147.8" x2="147.8" y1="399.7" y2="435.6" stroke="#35a77a"/><rect x="143.2" y="402.4" width="9.2" height="11.8" fill="#35a77a"/><line x1="164.3" x2="164.3" y1="509.9" y2="549.5" stroke="#d76565"/><rect x="159.7" y="520.8" width="9.2" height="18.2" fill="#d76565"/><line x1="180.7" x2="180.7" y1="484.8" y2="547.2" stroke="#35a77a"/><rect x="176.1" y="517.2" width="9.2" height="21.9" fill="#35a77a"/><line x1="197.1" x2="197.1" y1="466.6" y2="515.8" stroke="#35a77a"/><rect x="192.5" y="502.1" width="9.2" height="13.7" fill="#35a77a"/><line x1="213.5" x2="213.5" y1="441.6" y2="534.9" stroke="#35a77a"/><rect x="208.9" y="443.4" width="9.2" height="58.3" fill="#35a77a"/><line x1="229.9" x2="229.9" y1="416.1" y2="448.4" stroke="#35a77a"/><rect x="225.3" y="427.9" width="9.2" height="15.0" fill="#35a77a"/><line x1="246.3" x2="246.3" y1="405.6" y2="440.7" stroke="#35a77a"/><rect x="241.7" y="408.3" width="9.2" height="20.5" fill="#35a77a"/><line x1="262.7" x2="262.7" y1="380.1" y2="427.9" stroke="#35a77a"/><rect x="258.1" y="381.5" width="9.2" height="26.4" fill="#35a77a"/><line x1="279.1" x2="279.1" y1="352.8" y2="392.8" stroke="#d76565"/><rect x="274.5" y="353.7" width="9.2" height="34.2" fill="#d76565"/><line x1="295.5" x2="295.5" y1="364.6" y2="415.2" stroke="#d76565"/><rect x="290.9" y="386.9" width="9.2" height="7.3" fill="#d76565"/><line x1="311.9" x2="311.9" y1="360.5" y2="395.6" stroke="#35a77a"/><rect x="307.3" y="364.6" width="9.2" height="28.7" fill="#35a77a"/><line x1="328.4" x2="328.4" y1="341.4" y2="373.7" stroke="#35a77a"/><rect x="323.8" y="347.3" width="9.2" height="17.3" fill="#35a77a"/><line x1="344.8" x2="344.8" y1="325.9" y2="359.6" stroke="#35a77a"/><rect x="340.2" y="329.1" width="9.2" height="17.8" fill="#35a77a"/><line x1="361.2" x2="361.2" y1="315.0" y2="341.4" stroke="#35a77a"/><rect x="356.6" y="322.7" width="9.2" height="5.5" fill="#35a77a"/><line x1="377.6" x2="377.6" y1="312.2" y2="401.0" stroke="#d76565"/><rect x="373.0" y="322.7" width="9.2" height="56.5" fill="#d76565"/><line x1="394.0" x2="394.0" y1="267.2" y2="359.6" stroke="#d76565"/><rect x="389.4" y="280.8" width="9.2" height="51.0" fill="#d76565"/><line x1="410.4" x2="410.4" y1="281.7" y2="407.4" stroke="#d76565"/><rect x="405.8" y="332.3" width="9.2" height="71.5" fill="#d76565"/><line x1="426.8" x2="426.8" y1="344.6" y2="446.6" stroke="#35a77a"/><rect x="422.2" y="350.5" width="9.2" height="52.8" fill="#35a77a"/><line x1="443.2" x2="443.2" y1="321.8" y2="355.0" stroke="#35a77a"/><rect x="438.6" y="326.8" width="9.2" height="23.7" fill="#35a77a"/><line x1="459.6" x2="459.6" y1="298.6" y2="345.0" stroke="#35a77a"/><rect x="455.0" y="325.9" width="9.2" height="1.4" fill="#35a77a"/><line x1="476.0" x2="476.0" y1="298.6" y2="433.4" stroke="#d76565"/><rect x="471.4" y="325.9" width="9.2" height="84.7" fill="#d76565"/><line x1="492.5" x2="492.5" y1="392.4" y2="482.5" stroke="#d76565"/><rect x="487.9" y="410.1" width="9.2" height="43.7" fill="#d76565"/><line x1="508.9" x2="508.9" y1="387.4" y2="425.2" stroke="#d76565"/><rect x="504.3" y="400.6" width="9.2" height="4.6" fill="#d76565"/><line x1="525.3" x2="525.3" y1="325.9" y2="413.8" stroke="#35a77a"/><rect x="520.7" y="354.1" width="9.2" height="51.5" fill="#35a77a"/><line x1="541.7" x2="541.7" y1="316.8" y2="354.6" stroke="#35a77a"/><rect x="537.1" y="322.7" width="9.2" height="31.9" fill="#35a77a"/><line x1="558.1" x2="558.1" y1="294.9" y2="322.7" stroke="#35a77a"/><rect x="553.5" y="298.1" width="9.2" height="24.6" fill="#35a77a"/><line x1="574.5" x2="574.5" y1="239.4" y2="316.3" stroke="#35a77a"/><rect x="569.9" y="244.4" width="9.2" height="53.7" fill="#35a77a"/><line x1="590.9" x2="590.9" y1="199.3" y2="249.9" stroke="#35a77a"/><rect x="586.3" y="203.9" width="9.2" height="40.1" fill="#35a77a"/><line x1="607.3" x2="607.3" y1="191.1" y2="223.5" stroke="#d76565"/><rect x="602.7" y="203.9" width="9.2" height="5.5" fill="#d76565"/><line x1="623.7" x2="623.7" y1="134.2" y2="239.8" stroke="#35a77a"/><rect x="619.1" y="146.0" width="9.2" height="91.5" fill="#35a77a"/><line x1="640.1" x2="640.1" y1="139.7" y2="288.1" stroke="#d76565"/><rect x="635.5" y="147.9" width="9.2" height="117.0" fill="#d76565"/><line x1="656.5" x2="656.5" y1="254.0" y2="308.1" stroke="#d76565"/><rect x="652.0" y="264.0" width="9.2" height="21.4" fill="#d76565"/><line x1="673.0" x2="673.0" y1="281.7" y2="360.1" stroke="#d76565"/><rect x="668.4" y="284.5" width="9.2" height="65.6" fill="#d76565"/><line x1="689.4" x2="689.4" y1="295.9" y2="363.2" stroke="#35a77a"/><rect x="684.8" y="319.5" width="9.2" height="30.5" fill="#35a77a"/><line x1="705.8" x2="705.8" y1="266.3" y2="334.6" stroke="#35a77a"/><rect x="701.2" y="271.3" width="9.2" height="47.8" fill="#35a77a"/><line x1="722.2" x2="722.2" y1="238.9" y2="336.4" stroke="#35a77a"/><rect x="717.6" y="252.6" width="9.2" height="18.2" fill="#35a77a"/><line x1="738.6" x2="738.6" y1="220.7" y2="264.4" stroke="#35a77a"/><rect x="734.0" y="243.9" width="9.2" height="14.1" fill="#35a77a"/><line x1="755.0" x2="755.0" y1="221.2" y2="278.1" stroke="#d76565"/><rect x="750.4" y="243.5" width="9.2" height="15.9" fill="#d76565"/><line x1="771.4" x2="771.4" y1="243.5" y2="310.9" stroke="#d76565"/><rect x="766.8" y="259.0" width="9.2" height="31.0" fill="#d76565"/><line x1="787.8" x2="787.8" y1="274.9" y2="308.6" stroke="#35a77a"/><rect x="783.2" y="285.4" width="9.2" height="4.1" fill="#35a77a"/><line x1="804.2" x2="804.2" y1="269.4" y2="310.0" stroke="#d76565"/><rect x="799.6" y="285.8" width="9.2" height="20.0" fill="#d76565"/><line x1="820.6" x2="820.6" y1="238.0" y2="316.8" stroke="#35a77a"/><rect x="816.1" y="243.0" width="9.2" height="62.8" fill="#35a77a"/><line x1="837.1" x2="837.1" y1="185.7" y2="243.0" stroke="#35a77a"/><rect x="832.5" y="186.6" width="9.2" height="56.5" fill="#35a77a"/><line x1="853.5" x2="853.5" y1="105.5" y2="161.5" stroke="#d76565"/><rect x="848.9" y="111.9" width="9.2" height="41.0" fill="#d76565"/><line x1="869.9" x2="869.9" y1="151.5" y2="232.6" stroke="#d76565"/><rect x="865.3" y="152.9" width="9.2" height="62.4" fill="#d76565"/><line x1="886.3" x2="886.3" y1="191.1" y2="239.4" stroke="#d76565"/><rect x="881.7" y="215.3" width="9.2" height="4.1" fill="#d76565"/><line x1="902.7" x2="902.7" y1="172.5" y2="224.4" stroke="#35a77a"/><rect x="898.1" y="193.4" width="9.2" height="25.0" fill="#35a77a"/><line x1="919.1" x2="919.1" y1="162.9" y2="203.9" stroke="#35a77a"/><rect x="914.5" y="186.1" width="9.2" height="7.3" fill="#35a77a"/><line x1="935.5" x2="935.5" y1="161.5" y2="225.7" stroke="#d76565"/><rect x="930.9" y="185.7" width="9.2" height="5.9" fill="#d76565"/><line x1="951.9" x2="951.9" y1="156.5" y2="192.0" stroke="#35a77a"/><rect x="947.3" y="173.8" width="9.2" height="17.8" fill="#35a77a"/><line x1="968.3" x2="968.3" y1="241.2" y2="267.6" stroke="#35a77a"/><rect x="963.7" y="261.2" width="9.2" height="3.6" fill="#35a77a"/><line x1="984.7" x2="984.7" y1="202.5" y2="263.1" stroke="#35a77a"/><rect x="980.2" y="214.8" width="9.2" height="46.0" fill="#35a77a"/><line x1="1001.2" x2="1001.2" y1="193.4" y2="230.7" stroke="#35a77a"/><rect x="996.6" y="196.6" width="9.2" height="17.3" fill="#35a77a"/><line x1="1017.6" x2="1017.6" y1="174.3" y2="205.2" stroke="#35a77a"/><rect x="1013.0" y="182.5" width="9.2" height="13.7" fill="#35a77a"/><line x1="1034.0" x2="1034.0" y1="157.4" y2="191.1" stroke="#35a77a"/><rect x="1029.4" y="159.2" width="9.2" height="22.8" fill="#35a77a"/><line x1="1050.4" x2="1050.4" y1="134.7" y2="175.6" stroke="#d76565"/><rect x="1045.8" y="159.2" width="9.2" height="1.4" fill="#d76565"/><line x1="1066.8" x2="1066.8" y1="148.3" y2="200.7" stroke="#d76565"/><rect x="1062.2" y="159.7" width="9.2" height="14.6" fill="#d76565"/><line x1="476.0" x2="476.0" y1="70" y2="585" stroke="#f2f2f2" stroke-width="1.4" stroke-dasharray="5 4"/><text x="481.0" y="86" fill="#f2f2f2" class="label">AVAILABLE / QUALIFIED</text><circle cx="246.3" cy="389.7" r="5" fill="#f4c95d"/><text x="246.3" y="380.7" text-anchor="middle" fill="#f4c95d" class="label">T</text><circle cx="262.7" cy="389.7" r="5" fill="#ff6b6b"/><text x="262.7" y="380.7" text-anchor="middle" fill="#ff6b6b" class="label">B</text><circle cx="279.1" cy="414.7" r="5" fill="#a78bfa"/><text x="279.1" y="405.7" text-anchor="middle" fill="#a78bfa" class="label">F</text><circle cx="311.9" cy="414.7" r="5" fill="#62cf7c"/><text x="311.9" y="405.7" text-anchor="middle" fill="#62cf7c" class="label">R</text><circle cx="377.6" cy="414.7" r="5" fill="#f4c95d"/><text x="377.6" y="405.7" text-anchor="middle" fill="#f4c95d" class="label">T</text><circle cx="377.6" cy="414.7" r="5" fill="#62cf7c"/><text x="377.6" y="405.7" text-anchor="middle" fill="#62cf7c" class="label">R</text><circle cx="410.4" cy="414.7" r="5" fill="#f4c95d"/><text x="410.4" y="405.7" text-anchor="middle" fill="#f4c95d" class="label">T</text><circle cx="426.8" cy="414.7" r="5" fill="#62cf7c"/><text x="426.8" y="405.7" text-anchor="middle" fill="#62cf7c" class="label">R</text><circle cx="476.0" cy="414.7" r="5" fill="#f4c95d"/><text x="476.0" y="405.7" text-anchor="middle" fill="#f4c95d" class="label">T</text><circle cx="492.5" cy="446.6" r="5" fill="#ff6b6b"/><text x="492.5" y="437.6" text-anchor="middle" fill="#ff6b6b" class="label">B</text><text x="82.2" y="609" text-anchor="middle" class="tick">04-06 15:00</text><text x="246.3" y="609" text-anchor="middle" class="tick">04-10 18:00</text><text x="410.4" y="609" text-anchor="middle" class="tick">04-12 14:00</text><text x="574.5" y="609" text-anchor="middle" class="tick">04-13 17:00</text><text x="738.6" y="609" text-anchor="middle" class="tick">04-17 13:30</text><text x="902.7" y="609" text-anchor="middle" class="tick">04-18 16:00</text><text x="1066.8" y="609" text-anchor="middle" class="tick">04-19 19:00</text><text x="1083" y="393.7" fill="#2db784" class="label">Upper 409.48</text><text x="1083" y="450.6" fill="#2db784" class="label">Lower 408.23</text><text x="74" y="635" class="sub">T touch · R rejection · B broken · F role flip · U later evidence upgrade</text></svg>