<svg xmlns="http://www.w3.org/2000/svg" width="1200" height="650" viewBox="0 0 1200 650"><style>.title{font:500 19px sans-serif;fill:#f2f2f2}.sub{font:13px sans-serif;fill:#b8b8b8}.tick{font:11px sans-serif;fill:#b8b8b8}.label{font:500 11px sans-serif}.grid{stroke:#353535;stroke-width:1}</style><rect width="1200" height="650" fill="#171717"/><text x="74" y="27" class="title">Zone #1124 · DEMAND · qualified score 3</text><text x="74" y="50" class="sub">2025-01-16T16:00:00Z · pivot|role_flip|volume_profile</text><line x1="74" x2="1075" y1="585.0" y2="585.0" class="grid"/><text x="66" y="589.0" text-anchor="end" class="tick">572.52</text><line x1="74" x2="1075" y1="482.0" y2="482.0" class="grid"/><text x="66" y="486.0" text-anchor="end" class="tick">580.74</text><line x1="74" x2="1075" y1="379.0" y2="379.0" class="grid"/><text x="66" y="383.0" text-anchor="end" class="tick">588.96</text><line x1="74" x2="1075" y1="276.0" y2="276.0" class="grid"/><text x="66" y="280.0" text-anchor="end" class="tick">597.17</text><line x1="74" x2="1075" y1="173.0" y2="173.0" class="grid"/><text x="66" y="177.0" text-anchor="end" class="tick">605.39</text><line x1="74" x2="1075" y1="70.0" y2="70.0" class="grid"/><text x="66" y="74.0" text-anchor="end" class="tick">613.61</text><rect x="476.0" y="328.7" width="599.0" height="12.8" fill="#2db784" fill-opacity="0.22" stroke="#2db784" stroke-width="1.6"/><line x1="82.2" x2="82.2" y1="435.3" y2="475.8" stroke="#d76565"/><rect x="77.6" y="435.6" width="9.2" height="29.3" fill="#d76565"/><line x1="98.6" x2="98.6" y1="461.5" y2="495.0" stroke="#d76565"/><rect x="94.0" y="465.0" width="9.2" height="19.8" fill="#d76565"/><line x1="115.0" x2="115.0" y1="512.3" y2="549.5" stroke="#35a77a"/><rect x="110.4" y="517.9" width="9.2" height="26.3" fill="#35a77a"/><line x1="131.4" x2="131.4" y1="501.5" y2="542.1" stroke="#35a77a"/><rect x="126.8" y="517.5" width="9.2" height="1.4" fill="#35a77a"/><line x1="147.8" x2="147.8" y1="513.6" y2="542.8" stroke="#d76565"/><rect x="143.2" y="517.5" width="9.2" height="23.8" fill="#d76565"/><line x1="164.3" x2="164.3" y1="496.9" y2="545.3" stroke="#35a77a"/><rect x="159.7" y="498.0" width="9.2" height="43.1" fill="#35a77a"/><line x1="180.7" x2="180.7" y1="487.6" y2="505.2" stroke="#35a77a"/><rect x="176.1" y="491.1" width="9.2" height="6.9" fill="#35a77a"/><line x1="197.1" x2="197.1" y1="478.7" y2="504.1" stroke="#35a77a"/><rect x="192.5" y="485.2" width="9.2" height="5.9" fill="#35a77a"/><line x1="213.5" x2="213.5" y1="469.3" y2="492.8" stroke="#35a77a"/><rect x="208.9" y="471.9" width="9.2" height="13.4" fill="#35a77a"/><line x1="229.9" x2="229.9" y1="428.6" y2="466.5" stroke="#d76565"/><rect x="225.3" y="437.1" width="9.2" height="25.3" fill="#d76565"/><line x1="246.3" x2="246.3" y1="433.1" y2="468.8" stroke="#d76565"/><rect x="241.7" y="462.4" width="9.2" height="6.4" fill="#d76565"/><line x1="262.7" x2="262.7" y1="466.7" y2="506.6" stroke="#d76565"/><rect x="258.1" y="468.5" width="9.2" height="38.1" fill="#d76565"/><line x1="279.1" x2="279.1" y1="484.2" y2="511.9" stroke="#35a77a"/><rect x="274.5" y="488.5" width="9.2" height="18.4" fill="#35a77a"/><line x1="295.5" x2="295.5" y1="444.1" y2="490.0" stroke="#35a77a"/><rect x="290.9" y="447.5" width="9.2" height="41.1" fill="#35a77a"/><line x1="311.9" x2="311.9" y1="443.5" y2="486.3" stroke="#d76565"/><rect x="307.3" y="447.7" width="9.2" height="36.5" fill="#d76565"/><line x1="328.4" x2="328.4" y1="462.5" y2="505.0" stroke="#35a77a"/><rect x="323.8" y="463.8" width="9.2" height="20.6" fill="#35a77a"/><line x1="344.8" x2="344.8" y1="339.1" y2="376.1" stroke="#35a77a"/><rect x="340.2" y="341.7" width="9.2" height="19.8" fill="#35a77a"/><line x1="361.2" x2="361.2" y1="328.7" y2="352.2" stroke="#d76565"/><rect x="356.6" y="341.5" width="9.2" height="9.8" fill="#d76565"/><line x1="377.6" x2="377.6" y1="340.8" y2="372.2" stroke="#d76565"/><rect x="373.0" y="351.2" width="9.2" height="14.3" fill="#d76565"/><line x1="394.0" x2="394.0" y1="341.5" y2="366.9" stroke="#35a77a"/><rect x="389.4" y="353.4" width="9.2" height="12.2" fill="#35a77a"/><line x1="410.4" x2="410.4" y1="332.6" y2="353.4" stroke="#35a77a"/><rect x="405.8" y="334.2" width="9.2" height="19.2" fill="#35a77a"/><line x1="426.8" x2="426.8" y1="319.3" y2="335.3" stroke="#35a77a"/><rect x="422.2" y="323.3" width="9.2" height="10.9" fill="#35a77a"/><line x1="443.2" x2="443.2" y1="316.5" y2="332.3" stroke="#d76565"/><rect x="438.6" y="323.3" width="9.2" height="7.8" fill="#d76565"/><line x1="459.6" x2="459.6" y1="312.0" y2="340.1" stroke="#d76565"/><rect x="455.0" y="313.5" width="9.2" height="24.9" fill="#d76565"/><line x1="476.0" x2="476.0" y1="322.6" y2="349.4" stroke="#35a77a"/><rect x="471.4" y="322.6" width="9.2" height="16.0" fill="#35a77a"/><line x1="492.5" x2="492.5" y1="311.4" y2="343.1" stroke="#35a77a"/><rect x="487.9" y="321.9" width="9.2" height="1.4" fill="#35a77a"/><line x1="508.9" x2="508.9" y1="318.2" y2="331.1" stroke="#d76565"/><rect x="504.3" y="322.0" width="9.2" height="6.5" fill="#d76565"/><line x1="525.3" x2="525.3" y1="321.5" y2="354.3" stroke="#d76565"/><rect x="520.7" y="328.7" width="9.2" height="19.7" fill="#d76565"/><line x1="541.7" x2="541.7" y1="327.3" y2="352.5" stroke="#35a77a"/><rect x="537.1" y="329.2" width="9.2" height="19.4" fill="#35a77a"/><line x1="558.1" x2="558.1" y1="324.2" y2="347.4" stroke="#d76565"/><rect x="553.5" y="329.2" width="9.2" height="15.5" fill="#d76565"/><line x1="574.5" x2="574.5" y1="274.4" y2="295.6" stroke="#d76565"/><rect x="569.9" y="278.8" width="9.2" height="8.3" fill="#d76565"/><line x1="590.9" x2="590.9" y1="263.4" y2="290.1" stroke="#35a77a"/><rect x="586.3" y="263.7" width="9.2" height="23.1" fill="#35a77a"/><line x1="607.3" x2="607.3" y1="251.9" y2="269.3" stroke="#35a77a"/><rect x="602.7" y="261.9" width="9.2" height="2.0" fill="#35a77a"/><line x1="623.7" x2="623.7" y1="251.9" y2="267.9" stroke="#35a77a"/><rect x="619.1" y="254.8" width="9.2" height="7.4" fill="#35a77a"/><line x1="640.1" x2="640.1" y1="248.6" y2="263.5" stroke="#d76565"/><rect x="635.5" y="254.5" width="9.2" height="3.8" fill="#d76565"/><line x1="656.5" x2="656.5" y1="256.1" y2="265.4" stroke="#d76565"/><rect x="652.0" y="258.8" width="9.2" height="3.9" fill="#d76565"/><line x1="673.0" x2="673.0" y1="258.3" y2="273.8" stroke="#d76565"/><rect x="668.4" y="262.9" width="9.2" height="8.1" fill="#d76565"/><line x1="689.4" x2="689.4" y1="222.2" y2="246.5" stroke="#d76565"/><rect x="684.8" y="232.2" width="9.2" height="1.9" fill="#d76565"/><line x1="705.8" x2="705.8" y1="232.8" y2="257.3" stroke="#d76565"/><rect x="701.2" y="233.7" width="9.2" height="2.3" fill="#d76565"/><line x1="722.2" x2="722.2" y1="222.2" y2="242.7" stroke="#35a77a"/><rect x="717.6" y="223.3" width="9.2" height="12.8" fill="#35a77a"/><line x1="738.6" x2="738.6" y1="209.4" y2="228.9" stroke="#35a77a"/><rect x="734.0" y="209.9" width="9.2" height="13.8" fill="#35a77a"/><line x1="755.0" x2="755.0" y1="204.5" y2="214.7" stroke="#35a77a"/><rect x="750.4" y="207.8" width="9.2" height="2.3" fill="#35a77a"/><line x1="771.4" x2="771.4" y1="205.3" y2="219.7" stroke="#d76565"/><rect x="766.8" y="207.8" width="9.2" height="5.8" fill="#d76565"/><line x1="787.8" x2="787.8" y1="203.3" y2="215.7" stroke="#35a77a"/><rect x="783.2" y="204.0" width="9.2" height="9.3" fill="#35a77a"/><line x1="804.2" x2="804.2" y1="158.3" y2="173.4" stroke="#35a77a"/><rect x="799.6" y="159.3" width="9.2" height="7.1" fill="#35a77a"/><line x1="820.6" x2="820.6" y1="151.9" y2="165.4" stroke="#35a77a"/><rect x="816.1" y="158.5" width="9.2" height="1.4" fill="#35a77a"/><line x1="837.1" x2="837.1" y1="143.1" y2="162.2" stroke="#35a77a"/><rect x="832.5" y="144.7" width="9.2" height="13.8" fill="#35a77a"/><line x1="853.5" x2="853.5" y1="142.6" y2="149.1" stroke="#d76565"/><rect x="848.9" y="144.7" width="9.2" height="4.3" fill="#d76565"/><line x1="869.9" x2="869.9" y1="145.0" y2="153.6" stroke="#d76565"/><rect x="865.3" y="149.1" width="9.2" height="3.3" fill="#d76565"/><line x1="886.3" x2="886.3" y1="145.1" y2="155.6" stroke="#35a77a"/><rect x="881.7" y="145.4" width="9.2" height="7.0" fill="#35a77a"/><line x1="902.7" x2="902.7" y1="145.1" y2="162.5" stroke="#d76565"/><rect x="898.1" y="145.5" width="9.2" height="15.7" fill="#d76565"/><line x1="919.1" x2="919.1" y1="161.7" y2="171.4" stroke="#35a77a"/><rect x="914.5" y="162.5" width="9.2" height="5.4" fill="#35a77a"/><line x1="935.5" x2="935.5" y1="154.0" y2="170.2" stroke="#35a77a"/><rect x="930.9" y="154.3" width="9.2" height="8.1" fill="#35a77a"/><line x1="951.9" x2="951.9" y1="142.0" y2="160.7" stroke="#35a77a"/><rect x="947.3" y="149.8" width="9.2" height="4.4" fill="#35a77a"/><line x1="968.3" x2="968.3" y1="144.2" y2="154.1" stroke="#35a77a"/><rect x="963.7" y="144.4" width="9.2" height="5.4" fill="#35a77a"/><line x1="984.7" x2="984.7" y1="136.6" y2="145.5" stroke="#35a77a"/><rect x="980.2" y="143.5" width="9.2" height="1.4" fill="#35a77a"/><line x1="1001.2" x2="1001.2" y1="140.2" y2="149.0" stroke="#35a77a"/><rect x="996.6" y="142.5" width="9.2" height="1.4" fill="#35a77a"/><line x1="1017.6" x2="1017.6" y1="118.5" y2="145.4" stroke="#35a77a"/><rect x="1013.0" y="118.9" width="9.2" height="24.1" fill="#35a77a"/><line x1="1034.0" x2="1034.0" y1="105.5" y2="119.7" stroke="#35a77a"/><rect x="1029.4" y="111.2" width="9.2" height="6.5" fill="#35a77a"/><line x1="1050.4" x2="1050.4" y1="108.5" y2="127.1" stroke="#d76565"/><rect x="1045.8" y="110.9" width="9.2" height="14.7" fill="#d76565"/><line x1="1066.8" x2="1066.8" y1="111.2" y2="126.8" stroke="#35a77a"/><rect x="1062.2" y="121.2" width="9.2" height="4.4" fill="#35a77a"/><line x1="476.0" x2="476.0" y1="70" y2="585" stroke="#f2f2f2" stroke-width="1.4" stroke-dasharray="5 4"/><text x="481.0" y="86" fill="#f2f2f2" class="label">AVAILABLE / QUALIFIED</text><circle cx="426.8" cy="328.7" r="5" fill="#ff6b6b"/><text x="426.8" y="319.7" text-anchor="middle" fill="#ff6b6b" class="label">B</text><circle cx="476.0" cy="341.5" r="5" fill="#a78bfa"/><text x="476.0" y="332.5" text-anchor="middle" fill="#a78bfa" class="label">F</text><circle cx="492.5" cy="341.5" r="5" fill="#62cf7c"/><text x="492.5" y="332.5" text-anchor="middle" fill="#62cf7c" class="label">R</text><circle cx="525.3" cy="341.5" r="5" fill="#ff6b6b"/><text x="525.3" y="332.5" text-anchor="middle" fill="#ff6b6b" class="label">B</text><circle cx="558.1" cy="328.7" r="5" fill="#a78bfa"/><text x="558.1" y="319.7" text-anchor="middle" fill="#a78bfa" class="label">F</text><circle cx="574.5" cy="328.7" r="5" fill="#ff6b6b"/><text x="574.5" y="319.7" text-anchor="middle" fill="#ff6b6b" class="label">B</text><text x="82.2" y="609" text-anchor="middle" class="tick">01-10 19:00</text><text x="246.3" y="609" text-anchor="middle" class="tick">01-14 15:00</text><text x="410.4" y="609" text-anchor="middle" class="tick">01-15 18:00</text><text x="574.5" y="609" text-anchor="middle" class="tick">01-17 14:30</text><text x="738.6" y="609" text-anchor="middle" class="tick">01-21 17:00</text><text x="902.7" y="609" text-anchor="middle" class="tick">01-22 20:00</text><text x="1066.8" y="609" text-anchor="middle" class="tick">01-24 16:00</text><text x="1083" y="332.7" fill="#2db784" class="label">Upper 592.97</text><text x="1083" y="345.5" fill="#2db784" class="label">Lower 591.95</text><text x="74" y="635" class="sub">T touch · R rejection · B broken · F role flip · U later evidence upgrade</text></svg>