<svg xmlns="http://www.w3.org/2000/svg" width="1300" height="720" viewBox="0 0 1300 720"><style>.title{font:500 20px sans-serif;fill:#f4f6fa}.sub{font:13px sans-serif;fill:#aeb6c4}.tick{font:11px sans-serif;fill:#9ca6b6}.level{font:500 12px sans-serif}.grid{stroke:#303642;stroke-width:1}.meta{font:500 13px sans-serif}</style><rect width="1300" height="720" fill="#11141a"/><text x="76" y="30" class="title">Trade #7 · LONG · target</text><text x="76" y="53" class="sub">Zone #351 DEMAND Q3/C3 · Trigger 2021-10-20T18:00:00Z · Entry 2021-10-20T18:15:00Z · Exit 2021-10-21T14:15:00Z · +0.97R · USD +144.17</text><line x1="76" x2="1165" y1="650.0" y2="650.0" class="grid"/><text x="68" y="654.0" text-anchor="end" class="tick">372.98</text><line x1="76" x2="1165" y1="536.4" y2="536.4" class="grid"/><text x="68" y="540.4" text-anchor="end" class="tick">373.94</text><line x1="76" x2="1165" y1="422.8" y2="422.8" class="grid"/><text x="68" y="426.8" text-anchor="end" class="tick">374.91</text><line x1="76" x2="1165" y1="309.2" y2="309.2" class="grid"/><text x="68" y="313.2" text-anchor="end" class="tick">375.87</text><line x1="76" x2="1165" y1="195.6" y2="195.6" class="grid"/><text x="68" y="199.6" text-anchor="end" class="tick">376.84</text><line x1="76" x2="1165" y1="82.0" y2="82.0" class="grid"/><text x="68" y="86.0" text-anchor="end" class="tick">377.80</text><rect x="314.8" y="497.2" width="850.2" height="106.8" fill="#35c98f" fill-opacity="0.16" stroke="#35c98f" stroke-width="1.6"/><text x="322.8" y="490.2" fill="#35c98f" class="meta">1h DEMAND · Q3/C3</text><line x1="85.6" x2="85.6" y1="379.1" y2="421.5" stroke="#e25d62"/><rect x="80.0" y="379.1" width="11.1" height="34.2" fill="#e25d62"/><line x1="104.7" x2="104.7" y1="355.5" y2="435.6" stroke="#35ae82"/><rect x="99.1" y="360.3" width="11.1" height="54.2" fill="#35ae82"/><line x1="123.8" x2="123.8" y1="262.5" y2="353.2" stroke="#e25d62"/><rect x="118.2" y="301.4" width="11.1" height="4.7" fill="#e25d62"/><line x1="142.9" x2="142.9" y1="248.4" y2="367.3" stroke="#e25d62"/><rect x="137.3" y="304.9" width="11.1" height="36.5" fill="#e25d62"/><line x1="162.0" x2="162.0" y1="312.0" y2="416.8" stroke="#35ae82"/><rect x="156.4" y="322.6" width="11.1" height="20.0" fill="#35ae82"/><line x1="181.1" x2="181.1" y1="251.9" y2="333.2" stroke="#35ae82"/><rect x="175.5" y="254.3" width="11.1" height="64.8" fill="#35ae82"/><line x1="200.2" x2="200.2" y1="227.2" y2="294.3" stroke="#e25d62"/><rect x="194.6" y="251.9" width="11.1" height="35.3" fill="#e25d62"/><line x1="219.3" x2="219.3" y1="268.4" y2="350.8" stroke="#e25d62"/><rect x="213.7" y="286.1" width="11.1" height="63.6" fill="#e25d62"/><line x1="238.4" x2="238.4" y1="332.0" y2="408.5" stroke="#e25d62"/><rect x="232.9" y="347.3" width="11.1" height="20.0" fill="#e25d62"/><line x1="257.5" x2="257.5" y1="320.2" y2="381.5" stroke="#35ae82"/><rect x="252.0" y="362.6" width="11.1" height="7.1" fill="#35ae82"/><line x1="276.6" x2="276.6" y1="328.5" y2="392.1" stroke="#35ae82"/><rect x="271.1" y="330.8" width="11.1" height="33.0" fill="#35ae82"/><line x1="295.7" x2="295.7" y1="297.8" y2="339.1" stroke="#35ae82"/><rect x="290.2" y="303.7" width="11.1" height="28.3" fill="#35ae82"/><line x1="314.8" x2="314.8" y1="301.4" y2="363.8" stroke="#e25d62"/><rect x="309.3" y="304.9" width="11.1" height="49.5" fill="#e25d62"/><line x1="333.9" x2="333.9" y1="350.8" y2="393.2" stroke="#e25d62"/><rect x="328.4" y="354.4" width="11.1" height="35.3" fill="#e25d62"/><line x1="353.0" x2="353.0" y1="355.5" y2="421.5" stroke="#e25d62"/><rect x="347.5" y="388.5" width="11.1" height="17.7" fill="#e25d62"/><line x1="372.1" x2="372.1" y1="375.6" y2="414.4" stroke="#35ae82"/><rect x="366.6" y="385.0" width="11.1" height="20.0" fill="#35ae82"/><line x1="391.2" x2="391.2" y1="374.4" y2="483.9" stroke="#e25d62"/><rect x="385.7" y="383.8" width="11.1" height="100.1" fill="#e25d62"/><line x1="410.3" x2="410.3" y1="479.2" y2="593.4" stroke="#e25d62"/><rect x="404.8" y="482.7" width="11.1" height="33.0" fill="#e25d62"/><line x1="429.4" x2="429.4" y1="495.7" y2="549.9" stroke="#35ae82"/><rect x="423.9" y="512.2" width="11.1" height="2.4" fill="#35ae82"/><line x1="448.6" x2="448.6" y1="486.3" y2="527.5" stroke="#35ae82"/><rect x="443.0" y="491.0" width="11.1" height="21.2" fill="#35ae82"/><line x1="467.7" x2="467.7" y1="446.2" y2="500.4" stroke="#35ae82"/><rect x="462.1" y="449.8" width="11.1" height="42.4" fill="#35ae82"/><line x1="486.8" x2="486.8" y1="435.6" y2="476.9" stroke="#e25d62"/><rect x="481.2" y="450.9" width="11.1" height="4.7" fill="#e25d62"/><line x1="505.9" x2="505.9" y1="426.2" y2="465.1" stroke="#e25d62"/><rect x="500.3" y="454.5" width="11.1" height="3.5" fill="#e25d62"/><line x1="525.0" x2="525.0" y1="422.7" y2="460.4" stroke="#35ae82"/><rect x="519.4" y="440.3" width="11.1" height="17.7" fill="#35ae82"/><line x1="544.1" x2="544.1" y1="402.7" y2="445.1" stroke="#35ae82"/><rect x="538.5" y="422.7" width="11.1" height="18.8" fill="#35ae82"/><line x1="563.2" x2="563.2" y1="419.1" y2="456.8" stroke="#e25d62"/><rect x="557.6" y="423.9" width="11.1" height="31.8" fill="#e25d62"/><line x1="582.3" x2="582.3" y1="446.2" y2="488.6" stroke="#35ae82"/><rect x="576.7" y="455.7" width="11.1" height="1.4" fill="#35ae82"/><line x1="601.4" x2="601.4" y1="414.4" y2="476.9" stroke="#35ae82"/><rect x="595.9" y="414.4" width="11.1" height="38.9" fill="#35ae82"/><line x1="620.5" x2="620.5" y1="422.7" y2="547.5" stroke="#35ae82"/><rect x="615.0" y="434.5" width="11.1" height="76.6" fill="#35ae82"/><line x1="639.6" x2="639.6" y1="375.6" y2="441.5" stroke="#35ae82"/><rect x="634.1" y="416.8" width="11.1" height="11.8" fill="#35ae82"/><line x1="658.7" x2="658.7" y1="347.3" y2="430.9" stroke="#35ae82"/><rect x="653.2" y="347.3" width="11.1" height="70.7" fill="#35ae82"/><line x1="677.8" x2="677.8" y1="279.0" y2="356.7" stroke="#35ae82"/><rect x="672.3" y="280.2" width="11.1" height="67.1" fill="#35ae82"/><line x1="696.9" x2="696.9" y1="257.8" y2="300.2" stroke="#35ae82"/><rect x="691.4" y="259.0" width="11.1" height="21.2" fill="#35ae82"/><line x1="716.0" x2="716.0" y1="243.7" y2="282.5" stroke="#e25d62"/><rect x="710.5" y="259.0" width="11.1" height="21.2" fill="#e25d62"/><line x1="735.1" x2="735.1" y1="228.3" y2="280.2" stroke="#35ae82"/><rect x="729.6" y="261.3" width="11.1" height="17.7" fill="#35ae82"/><line x1="754.2" x2="754.2" y1="260.1" y2="352.0" stroke="#e25d62"/><rect x="748.7" y="261.3" width="11.1" height="88.3" fill="#e25d62"/><line x1="773.3" x2="773.3" y1="319.0" y2="372.0" stroke="#35ae82"/><rect x="767.8" y="335.5" width="11.1" height="14.1" fill="#35ae82"/><line x1="792.4" x2="792.4" y1="306.1" y2="348.5" stroke="#35ae82"/><rect x="786.9" y="316.7" width="11.1" height="18.8" fill="#35ae82"/><line x1="811.6" x2="811.6" y1="280.2" y2="370.9" stroke="#35ae82"/><rect x="806.0" y="296.7" width="11.1" height="18.8" fill="#35ae82"/><line x1="830.7" x2="830.7" y1="280.2" y2="321.4" stroke="#35ae82"/><rect x="825.1" y="287.2" width="11.1" height="9.4" fill="#35ae82"/><line x1="849.8" x2="849.8" y1="277.8" y2="320.2" stroke="#e25d62"/><rect x="844.2" y="287.2" width="11.1" height="14.1" fill="#e25d62"/><line x1="868.9" x2="868.9" y1="247.2" y2="309.6" stroke="#35ae82"/><rect x="863.3" y="260.1" width="11.1" height="40.0" fill="#35ae82"/><line x1="888.0" x2="888.0" y1="257.8" y2="306.1" stroke="#e25d62"/><rect x="882.4" y="259.0" width="11.1" height="37.7" fill="#e25d62"/><line x1="907.1" x2="907.1" y1="269.6" y2="308.4" stroke="#35ae82"/><rect x="901.5" y="275.5" width="11.1" height="21.2" fill="#35ae82"/><line x1="926.2" x2="926.2" y1="251.9" y2="279.0" stroke="#35ae82"/><rect x="920.6" y="273.1" width="11.1" height="2.4" fill="#35ae82"/><line x1="945.3" x2="945.3" y1="271.9" y2="328.5" stroke="#e25d62"/><rect x="939.7" y="271.9" width="11.1" height="38.9" fill="#e25d62"/><line x1="964.4" x2="964.4" y1="288.4" y2="323.7" stroke="#e25d62"/><rect x="958.9" y="310.8" width="11.1" height="1.4" fill="#e25d62"/><line x1="983.5" x2="983.5" y1="273.1" y2="312.0" stroke="#35ae82"/><rect x="978.0" y="280.2" width="11.1" height="30.6" fill="#35ae82"/><line x1="1002.6" x2="1002.6" y1="264.9" y2="283.7" stroke="#35ae82"/><rect x="997.1" y="269.6" width="11.1" height="9.4" fill="#35ae82"/><line x1="1021.7" x2="1021.7" y1="246.0" y2="280.2" stroke="#35ae82"/><rect x="1016.2" y="246.0" width="11.1" height="22.4" fill="#35ae82"/><line x1="1040.8" x2="1040.8" y1="193.0" y2="249.5" stroke="#35ae82"/><rect x="1035.3" y="197.7" width="11.1" height="47.1" fill="#35ae82"/><line x1="1059.9" x2="1059.9" y1="157.7" y2="202.4" stroke="#35ae82"/><rect x="1054.4" y="162.4" width="11.1" height="35.3" fill="#35ae82"/><line x1="1079.0" x2="1079.0" y1="157.7" y2="200.1" stroke="#e25d62"/><rect x="1073.5" y="162.4" width="11.1" height="17.7" fill="#e25d62"/><line x1="1098.1" x2="1098.1" y1="121.2" y2="203.6" stroke="#35ae82"/><rect x="1092.6" y="143.5" width="11.1" height="37.7" fill="#35ae82"/><line x1="1117.2" x2="1117.2" y1="194.2" y2="347.3" stroke="#35ae82"/><rect x="1111.7" y="224.8" width="11.1" height="71.8" fill="#35ae82"/><line x1="1136.3" x2="1136.3" y1="221.3" y2="401.5" stroke="#e25d62"/><rect x="1130.8" y="224.8" width="11.1" height="64.8" fill="#e25d62"/><line x1="1155.4" x2="1155.4" y1="271.9" y2="343.8" stroke="#e25d62"/><rect x="1149.9" y="290.8" width="11.1" height="15.3" fill="#e25d62"/><line x1="467.7" x2="467.7" y1="82" y2="650" stroke="#ffd166" stroke-width="1.7" stroke-dasharray="5 4"/><text x="467.7" y="99" text-anchor="middle" fill="#ffd166" class="level">15m TRIGGER</text><line x1="486.8" x2="486.8" y1="82" y2="650" stroke="#f5f7fa" stroke-width="1.5" stroke-dasharray="5 4"/><text x="486.8" y="116" text-anchor="middle" fill="#f5f7fa" class="level">ENTRY</text><line x1="677.8" x2="677.8" y1="82" y2="650" stroke="#a98bf5" stroke-width="1.5" stroke-dasharray="5 4"/><text x="677.8" y="133" text-anchor="middle" fill="#a98bf5" class="level">EXIT</text><line x1="486.8" x2="1165" y1="446.5" y2="446.5" stroke="#f5f7fa" stroke-width="1.4" stroke-dasharray="7 4"/><text x="1173" y="450.5" fill="#f5f7fa" class="level">Entry 374.71</text><line x1="486.8" x2="1165" y1="610.8" y2="610.8" stroke="#ef6673" stroke-width="1.4" stroke-dasharray="7 4"/><text x="1173" y="614.8" fill="#ef6673" class="level">Stop 373.31</text><line x1="486.8" x2="1165" y1="282.2" y2="282.2" stroke="#35c98f" stroke-width="1.4" stroke-dasharray="7 4"/><text x="1173" y="286.2" fill="#35c98f" class="level">Target 376.10</text><line x1="486.8" x2="1165" y1="286.7" y2="286.7" stroke="#a98bf5" stroke-width="1.4" stroke-dasharray="7 4"/><text x="1173" y="290.7" fill="#a98bf5" class="level">Exit 376.06</text><text x="85.6" y="674" text-anchor="middle" class="tick">10-19 19:30</text><text x="257.5" y="674" text-anchor="middle" class="tick">10-20 15:15</text><text x="429.4" y="674" text-anchor="middle" class="tick">10-20 17:30</text><text x="601.4" y="674" text-anchor="middle" class="tick">10-20 19:45</text><text x="773.3" y="674" text-anchor="middle" class="tick">10-21 15:30</text><text x="945.3" y="674" text-anchor="middle" class="tick">10-21 17:45</text><text x="1117.2" y="674" text-anchor="middle" class="tick">10-22 13:30</text><text x="76" y="702" class="sub">Stop buffer: 0.058 · 1h ATR: 1.151 · Conservative collision rule: stop before target</text></svg>