<svg xmlns="http://www.w3.org/2000/svg" width="1200" height="650" viewBox="0 0 1200 650"><style>.title{font:500 19px sans-serif;fill:#f2f2f2}.sub{font:13px sans-serif;fill:#b8b8b8}.tick{font:11px sans-serif;fill:#b8b8b8}.label{font:500 11px sans-serif}.grid{stroke:#353535;stroke-width:1}</style><rect width="1200" height="650" fill="#171717"/><text x="74" y="27" class="title">Zone #1389 · SUPPLY · qualified score 2</text><text x="74" y="50" class="sub">2025-12-02T20:00:00Z · pivot|repeated_pivot</text><line x1="74" x2="1075" y1="585.0" y2="585.0" class="grid"/><text x="66" y="589.0" text-anchor="end" class="tick">672.76</text><line x1="74" x2="1075" y1="482.0" y2="482.0" class="grid"/><text x="66" y="486.0" text-anchor="end" class="tick">676.12</text><line x1="74" x2="1075" y1="379.0" y2="379.0" class="grid"/><text x="66" y="383.0" text-anchor="end" class="tick">679.48</text><line x1="74" x2="1075" y1="276.0" y2="276.0" class="grid"/><text x="66" y="280.0" text-anchor="end" class="tick">682.83</text><line x1="74" x2="1075" y1="173.0" y2="173.0" class="grid"/><text x="66" y="177.0" text-anchor="end" class="tick">686.19</text><line x1="74" x2="1075" y1="70.0" y2="70.0" class="grid"/><text x="66" y="74.0" text-anchor="end" class="tick">689.55</text><rect x="476.0" y="245.7" width="599.0" height="15.0" fill="#dc5b69" fill-opacity="0.22" stroke="#dc5b69" stroke-width="1.6"/><line x1="82.2" x2="82.2" y1="479.2" y2="549.5" stroke="#35a77a"/><rect x="77.6" y="516.3" width="9.2" height="32.5" fill="#35a77a"/><line x1="98.6" x2="98.6" y1="378.9" y2="451.6" stroke="#d76565"/><rect x="94.0" y="436.6" width="9.2" height="8.9" fill="#d76565"/><line x1="115.0" x2="115.0" y1="374.6" y2="463.6" stroke="#35a77a"/><rect x="110.4" y="376.4" width="9.2" height="69.3" fill="#35a77a"/><line x1="131.4" x2="131.4" y1="311.1" y2="378.9" stroke="#35a77a"/><rect x="126.8" y="321.2" width="9.2" height="55.2" fill="#35a77a"/><line x1="147.8" x2="147.8" y1="310.8" y2="349.7" stroke="#d76565"/><rect x="143.2" y="321.2" width="9.2" height="7.7" fill="#d76565"/><line x1="164.3" x2="164.3" y1="315.1" y2="375.5" stroke="#d76565"/><rect x="159.7" y="328.6" width="9.2" height="22.1" fill="#d76565"/><line x1="180.7" x2="180.7" y1="319.4" y2="358.9" stroke="#35a77a"/><rect x="176.1" y="336.6" width="9.2" height="14.1" fill="#35a77a"/><line x1="197.1" x2="197.1" y1="314.2" y2="374.6" stroke="#d76565"/><rect x="192.5" y="336.2" width="9.2" height="38.0" fill="#d76565"/><line x1="213.5" x2="213.5" y1="306.2" y2="347.6" stroke="#35a77a"/><rect x="208.9" y="324.9" width="9.2" height="12.0" fill="#35a77a"/><line x1="229.9" x2="229.9" y1="282.2" y2="331.3" stroke="#35a77a"/><rect x="225.3" y="287.5" width="9.2" height="37.1" fill="#35a77a"/><line x1="246.3" x2="246.3" y1="272.7" y2="312.3" stroke="#35a77a"/><rect x="241.7" y="278.6" width="9.2" height="8.9" fill="#35a77a"/><line x1="262.7" x2="262.7" y1="250.3" y2="305.3" stroke="#35a77a"/><rect x="258.1" y="258.9" width="9.2" height="19.6" fill="#35a77a"/><line x1="279.1" x2="279.1" y1="305.9" y2="401.6" stroke="#35a77a"/><rect x="274.5" y="318.4" width="9.2" height="81.3" fill="#35a77a"/><line x1="295.5" x2="295.5" y1="306.8" y2="398.5" stroke="#35a77a"/><rect x="290.9" y="312.6" width="9.2" height="5.5" fill="#35a77a"/><line x1="311.9" x2="311.9" y1="288.1" y2="359.3" stroke="#35a77a"/><rect x="307.3" y="303.7" width="9.2" height="8.6" fill="#35a77a"/><line x1="328.4" x2="328.4" y1="277.3" y2="323.4" stroke="#35a77a"/><rect x="323.8" y="300.7" width="9.2" height="2.1" fill="#35a77a"/><line x1="344.8" x2="344.8" y1="271.2" y2="302.5" stroke="#35a77a"/><rect x="340.2" y="276.4" width="9.2" height="23.9" fill="#35a77a"/><line x1="361.2" x2="361.2" y1="275.5" y2="368.5" stroke="#d76565"/><rect x="356.6" y="276.4" width="9.2" height="79.8" fill="#d76565"/><line x1="377.6" x2="377.6" y1="330.1" y2="382.3" stroke="#35a77a"/><rect x="373.0" y="350.4" width="9.2" height="6.4" fill="#35a77a"/><line x1="394.0" x2="394.0" y1="272.1" y2="317.2" stroke="#35a77a"/><rect x="389.4" y="291.4" width="9.2" height="12.6" fill="#35a77a"/><line x1="410.4" x2="410.4" y1="250.0" y2="336.9" stroke="#35a77a"/><rect x="405.8" y="255.2" width="9.2" height="36.2" fill="#35a77a"/><line x1="426.8" x2="426.8" y1="245.7" y2="383.8" stroke="#d76565"/><rect x="422.2" y="255.2" width="9.2" height="90.5" fill="#d76565"/><line x1="443.2" x2="443.2" y1="275.8" y2="358.9" stroke="#d76565"/><rect x="438.6" y="345.1" width="9.2" height="13.5" fill="#d76565"/><line x1="459.6" x2="459.6" y1="313.8" y2="365.1" stroke="#35a77a"/><rect x="455.0" y="328.9" width="9.2" height="30.1" fill="#35a77a"/><line x1="476.0" x2="476.0" y1="282.9" y2="339.6" stroke="#35a77a"/><rect x="471.4" y="290.8" width="9.2" height="38.4" fill="#35a77a"/><line x1="492.5" x2="492.5" y1="274.6" y2="321.2" stroke="#d76565"/><rect x="487.9" y="290.5" width="9.2" height="27.0" fill="#d76565"/><line x1="508.9" x2="508.9" y1="316.9" y2="372.4" stroke="#35a77a"/><rect x="504.3" y="336.2" width="9.2" height="9.2" fill="#35a77a"/><line x1="525.3" x2="525.3" y1="272.7" y2="340.2" stroke="#35a77a"/><rect x="520.7" y="291.8" width="9.2" height="42.3" fill="#35a77a"/><line x1="541.7" x2="541.7" y1="254.0" y2="313.5" stroke="#d76565"/><rect x="537.1" y="292.1" width="9.2" height="3.1" fill="#d76565"/><line x1="558.1" x2="558.1" y1="237.1" y2="298.5" stroke="#35a77a"/><rect x="553.5" y="243.6" width="9.2" height="51.5" fill="#35a77a"/><line x1="574.5" x2="574.5" y1="224.9" y2="256.5" stroke="#35a77a"/><rect x="569.9" y="242.7" width="9.2" height="1.4" fill="#35a77a"/><line x1="590.9" x2="590.9" y1="217.5" y2="244.8" stroke="#35a77a"/><rect x="586.3" y="220.9" width="9.2" height="22.1" fill="#35a77a"/><line x1="607.3" x2="607.3" y1="212.3" y2="254.0" stroke="#d76565"/><rect x="602.7" y="220.9" width="9.2" height="25.2" fill="#d76565"/><line x1="623.7" x2="623.7" y1="198.2" y2="278.6" stroke="#d76565"/><rect x="619.1" y="200.3" width="9.2" height="69.0" fill="#d76565"/><line x1="640.1" x2="640.1" y1="223.0" y2="296.4" stroke="#35a77a"/><rect x="635.5" y="262.0" width="9.2" height="7.1" fill="#35a77a"/><line x1="656.5" x2="656.5" y1="223.0" y2="295.1" stroke="#35a77a"/><rect x="652.0" y="227.3" width="9.2" height="35.0" fill="#35a77a"/><line x1="673.0" x2="673.0" y1="222.4" y2="259.5" stroke="#d76565"/><rect x="668.4" y="227.9" width="9.2" height="2.8" fill="#d76565"/><line x1="689.4" x2="689.4" y1="216.6" y2="256.8" stroke="#d76565"/><rect x="684.8" y="231.3" width="9.2" height="5.2" fill="#d76565"/><line x1="705.8" x2="705.8" y1="233.2" y2="321.8" stroke="#d76565"/><rect x="701.2" y="236.8" width="9.2" height="27.0" fill="#d76565"/><line x1="722.2" x2="722.2" y1="222.4" y2="292.1" stroke="#35a77a"/><rect x="717.6" y="227.9" width="9.2" height="35.6" fill="#35a77a"/><line x1="738.6" x2="738.6" y1="147.2" y2="199.7" stroke="#35a77a"/><rect x="734.0" y="151.5" width="9.2" height="44.2" fill="#35a77a"/><line x1="755.0" x2="755.0" y1="105.5" y2="170.9" stroke="#d76565"/><rect x="750.4" y="150.6" width="9.2" height="7.7" fill="#d76565"/><line x1="771.4" x2="771.4" y1="144.5" y2="208.9" stroke="#d76565"/><rect x="766.8" y="158.3" width="9.2" height="19.9" fill="#d76565"/><line x1="787.8" x2="787.8" y1="165.7" y2="222.4" stroke="#35a77a"/><rect x="783.2" y="171.2" width="9.2" height="7.1" fill="#35a77a"/><line x1="804.2" x2="804.2" y1="149.1" y2="193.6" stroke="#d76565"/><rect x="799.6" y="171.2" width="9.2" height="1.8" fill="#d76565"/><line x1="820.6" x2="820.6" y1="166.6" y2="192.0" stroke="#35a77a"/><rect x="816.1" y="171.2" width="9.2" height="1.8" fill="#35a77a"/><line x1="837.1" x2="837.1" y1="169.6" y2="221.8" stroke="#d76565"/><rect x="832.5" y="170.9" width="9.2" height="18.7" fill="#d76565"/><line x1="853.5" x2="853.5" y1="159.2" y2="210.1" stroke="#d76565"/><rect x="848.9" y="160.4" width="9.2" height="35.6" fill="#d76565"/><line x1="869.9" x2="869.9" y1="185.6" y2="253.4" stroke="#d76565"/><rect x="865.3" y="196.6" width="9.2" height="52.8" fill="#d76565"/><line x1="886.3" x2="886.3" y1="236.5" y2="273.7" stroke="#d76565"/><rect x="881.7" y="249.4" width="9.2" height="9.5" fill="#d76565"/><line x1="902.7" x2="902.7" y1="230.7" y2="295.7" stroke="#35a77a"/><rect x="898.1" y="236.5" width="9.2" height="22.4" fill="#35a77a"/><line x1="919.1" x2="919.1" y1="227.9" y2="314.8" stroke="#d76565"/><rect x="914.5" y="236.2" width="9.2" height="62.0" fill="#d76565"/><line x1="935.5" x2="935.5" y1="276.4" y2="312.0" stroke="#35a77a"/><rect x="930.9" y="291.4" width="9.2" height="6.1" fill="#35a77a"/><line x1="951.9" x2="951.9" y1="247.6" y2="299.7" stroke="#35a77a"/><rect x="947.3" y="251.3" width="9.2" height="39.9" fill="#35a77a"/><line x1="968.3" x2="968.3" y1="223.9" y2="276.4" stroke="#35a77a"/><rect x="963.7" y="226.7" width="9.2" height="39.3" fill="#35a77a"/><line x1="984.7" x2="984.7" y1="211.4" y2="253.1" stroke="#35a77a"/><rect x="980.2" y="224.9" width="9.2" height="1.4" fill="#35a77a"/><line x1="1001.2" x2="1001.2" y1="197.6" y2="226.7" stroke="#35a77a"/><rect x="996.6" y="210.4" width="9.2" height="14.7" fill="#35a77a"/><line x1="1017.6" x2="1017.6" y1="199.1" y2="251.9" stroke="#d76565"/><rect x="1013.0" y="210.8" width="9.2" height="21.2" fill="#d76565"/><line x1="1034.0" x2="1034.0" y1="225.2" y2="260.2" stroke="#d76565"/><rect x="1029.4" y="231.9" width="9.2" height="6.7" fill="#d76565"/><line x1="1050.4" x2="1050.4" y1="235.9" y2="264.8" stroke="#d76565"/><rect x="1045.8" y="238.4" width="9.2" height="13.2" fill="#d76565"/><line x1="1066.8" x2="1066.8" y1="244.5" y2="283.5" stroke="#d76565"/><rect x="1062.2" y="251.6" width="9.2" height="17.8" fill="#d76565"/><line x1="476.0" x2="476.0" y1="70" y2="585" stroke="#f2f2f2" stroke-width="1.4" stroke-dasharray="5 4"/><text x="481.0" y="86" fill="#f2f2f2" class="label">AVAILABLE / QUALIFIED</text><circle cx="410.4" cy="250.3" r="5" fill="#f4c95d"/><text x="410.4" y="241.3" text-anchor="middle" fill="#f4c95d" class="label">T</text><circle cx="426.8" cy="250.3" r="5" fill="#62cf7c"/><text x="426.8" y="241.3" text-anchor="middle" fill="#62cf7c" class="label">R</text><circle cx="541.7" cy="245.7" r="5" fill="#f4c95d"/><text x="541.7" y="236.7" text-anchor="middle" fill="#f4c95d" class="label">T</text><circle cx="590.9" cy="245.7" r="5" fill="#ff6b6b"/><text x="590.9" y="236.7" text-anchor="middle" fill="#ff6b6b" class="label">B</text><circle cx="656.5" cy="260.7" r="5" fill="#a78bfa"/><text x="656.5" y="251.7" text-anchor="middle" fill="#a78bfa" class="label">F</text><circle cx="722.2" cy="260.7" r="5" fill="#60a5fa"/><text x="722.2" y="251.7" text-anchor="middle" fill="#60a5fa" class="label">U</text><circle cx="869.9" cy="260.7" r="5" fill="#f4c95d"/><text x="869.9" y="251.7" text-anchor="middle" fill="#f4c95d" class="label">T</text><circle cx="902.7" cy="260.7" r="5" fill="#62cf7c"/><text x="902.7" y="251.7" text-anchor="middle" fill="#62cf7c" class="label">R</text><circle cx="919.1" cy="260.7" r="5" fill="#ff6b6b"/><text x="919.1" y="251.7" text-anchor="middle" fill="#ff6b6b" class="label">B</text><circle cx="1066.8" cy="245.7" r="5" fill="#a78bfa"/><text x="1066.8" y="236.7" text-anchor="middle" fill="#a78bfa" class="label">F</text><text x="82.2" y="609" text-anchor="middle" class="tick">11-25 20:00</text><text x="246.3" y="609" text-anchor="middle" class="tick">11-28 16:00</text><text x="410.4" y="609" text-anchor="middle" class="tick">12-02 15:00</text><text x="574.5" y="609" text-anchor="middle" class="tick">12-03 18:00</text><text x="738.6" y="609" text-anchor="middle" class="tick">12-05 14:30</text><text x="902.7" y="609" text-anchor="middle" class="tick">12-08 17:00</text><text x="1066.8" y="609" text-anchor="middle" class="tick">12-09 20:00</text><text x="1083" y="249.7" fill="#dc5b69" class="label">Upper 683.82</text><text x="1083" y="264.7" fill="#dc5b69" class="label">Lower 683.33</text><text x="74" y="635" class="sub">T touch · R rejection · B broken · F role flip · U later evidence upgrade</text></svg>