<svg xmlns="http://www.w3.org/2000/svg" width="1200" height="650" viewBox="0 0 1200 650"><style>.title{font:500 19px sans-serif;fill:#f2f2f2}.sub{font:13px sans-serif;fill:#b8b8b8}.tick{font:11px sans-serif;fill:#b8b8b8}.label{font:500 11px sans-serif}.grid{stroke:#353535;stroke-width:1}</style><rect width="1200" height="650" fill="#171717"/><text x="74" y="27" class="title">Zone #1107 · DEMAND · qualified score 2</text><text x="74" y="50" class="sub">2025-01-03T15:30:00Z · pivot|repeated_pivot</text><line x1="74" x2="1075" y1="585.0" y2="585.0" class="grid"/><text x="66" y="589.0" text-anchor="end" class="tick">573.40</text><line x1="74" x2="1075" y1="482.0" y2="482.0" class="grid"/><text x="66" y="486.0" text-anchor="end" class="tick">579.05</text><line x1="74" x2="1075" y1="379.0" y2="379.0" class="grid"/><text x="66" y="383.0" text-anchor="end" class="tick">584.70</text><line x1="74" x2="1075" y1="276.0" y2="276.0" class="grid"/><text x="66" y="280.0" text-anchor="end" class="tick">590.35</text><line x1="74" x2="1075" y1="173.0" y2="173.0" class="grid"/><text x="66" y="177.0" text-anchor="end" class="tick">596.00</text><line x1="74" x2="1075" y1="70.0" y2="70.0" class="grid"/><text x="66" y="74.0" text-anchor="end" class="tick">601.65</text><rect x="476.0" y="430.1" width="599.0" height="25.5" fill="#2db784" fill-opacity="0.22" stroke="#2db784" stroke-width="1.6"/><line x1="82.2" x2="82.2" y1="207.3" y2="248.3" stroke="#35a77a"/><rect x="77.6" y="209.3" width="9.2" height="35.2" fill="#35a77a"/><line x1="98.6" x2="98.6" y1="181.5" y2="216.4" stroke="#35a77a"/><rect x="94.0" y="186.5" width="9.2" height="23.5" fill="#35a77a"/><line x1="115.0" x2="115.0" y1="183.9" y2="236.1" stroke="#d76565"/><rect x="110.4" y="186.5" width="9.2" height="4.9" fill="#d76565"/><line x1="131.4" x2="131.4" y1="318.7" y2="370.1" stroke="#d76565"/><rect x="126.8" y="319.6" width="9.2" height="50.0" fill="#d76565"/><line x1="147.8" x2="147.8" y1="329.8" y2="384.3" stroke="#35a77a"/><rect x="143.2" y="335.1" width="9.2" height="34.6" fill="#35a77a"/><line x1="164.3" x2="164.3" y1="289.1" y2="347.8" stroke="#35a77a"/><rect x="159.7" y="295.1" width="9.2" height="40.5" fill="#35a77a"/><line x1="180.7" x2="180.7" y1="255.6" y2="297.9" stroke="#35a77a"/><rect x="176.1" y="262.5" width="9.2" height="33.0" fill="#35a77a"/><line x1="197.1" x2="197.1" y1="250.6" y2="282.9" stroke="#35a77a"/><rect x="192.5" y="262.3" width="9.2" height="1.4" fill="#35a77a"/><line x1="213.5" x2="213.5" y1="259.2" y2="292.9" stroke="#d76565"/><rect x="208.9" y="262.0" width="9.2" height="3.6" fill="#d76565"/><line x1="229.9" x2="229.9" y1="260.3" y2="317.6" stroke="#d76565"/><rect x="225.3" y="266.0" width="9.2" height="48.7" fill="#d76565"/><line x1="246.3" x2="246.3" y1="271.8" y2="308.8" stroke="#35a77a"/><rect x="241.7" y="282.2" width="9.2" height="2.0" fill="#35a77a"/><line x1="262.7" x2="262.7" y1="270.7" y2="315.7" stroke="#d76565"/><rect x="258.1" y="282.2" width="9.2" height="24.6" fill="#d76565"/><line x1="279.1" x2="279.1" y1="304.3" y2="345.5" stroke="#d76565"/><rect x="274.5" y="306.3" width="9.2" height="29.9" fill="#d76565"/><line x1="295.5" x2="295.5" y1="329.8" y2="375.4" stroke="#35a77a"/><rect x="290.9" y="333.1" width="9.2" height="2.9" fill="#35a77a"/><line x1="311.9" x2="311.9" y1="324.7" y2="377.4" stroke="#d76565"/><rect x="307.3" y="332.9" width="9.2" height="34.5" fill="#d76565"/><line x1="328.4" x2="328.4" y1="345.1" y2="384.1" stroke="#35a77a"/><rect x="323.8" y="349.3" width="9.2" height="17.7" fill="#35a77a"/><line x1="344.8" x2="344.8" y1="328.0" y2="374.1" stroke="#d76565"/><rect x="340.2" y="349.7" width="9.2" height="5.5" fill="#d76565"/><line x1="361.2" x2="361.2" y1="272.9" y2="352.8" stroke="#35a77a"/><rect x="356.6" y="279.3" width="9.2" height="14.2" fill="#35a77a"/><line x1="377.6" x2="377.6" y1="261.8" y2="349.1" stroke="#d76565"/><rect x="373.0" y="279.1" width="9.2" height="46.9" fill="#d76565"/><line x1="394.0" x2="394.0" y1="304.8" y2="369.9" stroke="#35a77a"/><rect x="389.4" y="321.0" width="9.2" height="5.3" fill="#35a77a"/><line x1="410.4" x2="410.4" y1="306.6" y2="447.6" stroke="#d76565"/><rect x="405.8" y="321.0" width="9.2" height="91.5" fill="#d76565"/><line x1="426.8" x2="426.8" y1="408.4" y2="455.6" stroke="#d76565"/><rect x="422.2" y="412.6" width="9.2" height="17.5" fill="#d76565"/><line x1="443.2" x2="443.2" y1="392.0" y2="439.0" stroke="#35a77a"/><rect x="438.6" y="425.9" width="9.2" height="4.2" fill="#35a77a"/><line x1="459.6" x2="459.6" y1="366.8" y2="425.7" stroke="#35a77a"/><rect x="455.0" y="381.2" width="9.2" height="44.1" fill="#35a77a"/><line x1="476.0" x2="476.0" y1="290.6" y2="340.9" stroke="#35a77a"/><rect x="471.4" y="318.7" width="9.2" height="8.8" fill="#35a77a"/><line x1="492.5" x2="492.5" y1="292.2" y2="347.5" stroke="#35a77a"/><rect x="487.9" y="297.9" width="9.2" height="20.6" fill="#35a77a"/><line x1="508.9" x2="508.9" y1="264.3" y2="316.7" stroke="#35a77a"/><rect x="504.3" y="275.3" width="9.2" height="22.1" fill="#35a77a"/><line x1="525.3" x2="525.3" y1="264.0" y2="284.2" stroke="#35a77a"/><rect x="520.7" y="269.8" width="9.2" height="5.5" fill="#35a77a"/><line x1="541.7" x2="541.7" y1="248.6" y2="278.7" stroke="#35a77a"/><rect x="537.1" y="258.9" width="9.2" height="10.9" fill="#35a77a"/><line x1="558.1" x2="558.1" y1="235.0" y2="262.1" stroke="#35a77a"/><rect x="553.5" y="244.6" width="9.2" height="13.9" fill="#35a77a"/><line x1="574.5" x2="574.5" y1="242.1" y2="263.2" stroke="#d76565"/><rect x="569.9" y="245.2" width="9.2" height="3.1" fill="#d76565"/><line x1="590.9" x2="590.9" y1="131.6" y2="174.8" stroke="#35a77a"/><rect x="586.3" y="138.7" width="9.2" height="29.4" fill="#35a77a"/><line x1="607.3" x2="607.3" y1="114.3" y2="142.3" stroke="#35a77a"/><rect x="602.7" y="120.7" width="9.2" height="17.7" fill="#35a77a"/><line x1="623.7" x2="623.7" y1="105.5" y2="127.8" stroke="#35a77a"/><rect x="619.1" y="109.9" width="9.2" height="10.6" fill="#35a77a"/><line x1="640.1" x2="640.1" y1="109.7" y2="147.5" stroke="#d76565"/><rect x="635.5" y="109.9" width="9.2" height="31.2" fill="#d76565"/><line x1="656.5" x2="656.5" y1="140.3" y2="180.5" stroke="#d76565"/><rect x="652.0" y="141.1" width="9.2" height="37.9" fill="#d76565"/><line x1="673.0" x2="673.0" y1="175.7" y2="204.7" stroke="#d76565"/><rect x="668.4" y="179.7" width="9.2" height="23.3" fill="#d76565"/><line x1="689.4" x2="689.4" y1="182.1" y2="216.7" stroke="#35a77a"/><rect x="684.8" y="183.9" width="9.2" height="19.7" fill="#35a77a"/><line x1="705.8" x2="705.8" y1="141.1" y2="171.2" stroke="#d76565"/><rect x="701.2" y="146.9" width="9.2" height="19.9" fill="#d76565"/><line x1="722.2" x2="722.2" y1="166.8" y2="277.5" stroke="#d76565"/><rect x="717.6" y="166.8" width="9.2" height="52.9" fill="#d76565"/><line x1="738.6" x2="738.6" y1="214.5" y2="273.1" stroke="#d76565"/><rect x="734.0" y="219.5" width="9.2" height="50.1" fill="#d76565"/><line x1="755.0" x2="755.0" y1="250.8" y2="288.9" stroke="#35a77a"/><rect x="750.4" y="266.0" width="9.2" height="3.3" fill="#35a77a"/><line x1="771.4" x2="771.4" y1="238.4" y2="269.1" stroke="#35a77a"/><rect x="766.8" y="264.1" width="9.2" height="1.6" fill="#35a77a"/><line x1="787.8" x2="787.8" y1="253.7" y2="285.5" stroke="#d76565"/><rect x="783.2" y="264.1" width="9.2" height="17.9" fill="#d76565"/><line x1="804.2" x2="804.2" y1="280.0" y2="341.1" stroke="#d76565"/><rect x="799.6" y="282.0" width="9.2" height="23.7" fill="#d76565"/><line x1="820.6" x2="820.6" y1="304.8" y2="346.2" stroke="#d76565"/><rect x="816.1" y="306.1" width="9.2" height="24.1" fill="#d76565"/><line x1="837.1" x2="837.1" y1="305.5" y2="355.3" stroke="#35a77a"/><rect x="832.5" y="311.2" width="9.2" height="20.4" fill="#35a77a"/><line x1="853.5" x2="853.5" y1="283.5" y2="333.4" stroke="#35a77a"/><rect x="848.9" y="292.8" width="9.2" height="18.4" fill="#35a77a"/><line x1="869.9" x2="869.9" y1="292.2" y2="370.1" stroke="#d76565"/><rect x="865.3" y="292.8" width="9.2" height="45.4" fill="#d76565"/><line x1="886.3" x2="886.3" y1="290.2" y2="339.3" stroke="#35a77a"/><rect x="881.7" y="323.0" width="9.2" height="15.1" fill="#35a77a"/><line x1="902.7" x2="902.7" y1="271.8" y2="335.4" stroke="#35a77a"/><rect x="898.1" y="309.2" width="9.2" height="13.3" fill="#35a77a"/><line x1="919.1" x2="919.1" y1="286.2" y2="321.0" stroke="#35a77a"/><rect x="914.5" y="292.9" width="9.2" height="16.0" fill="#35a77a"/><line x1="935.5" x2="935.5" y1="356.0" y2="423.1" stroke="#d76565"/><rect x="930.9" y="357.5" width="9.2" height="52.9" fill="#d76565"/><line x1="951.9" x2="951.9" y1="405.8" y2="480.2" stroke="#d76565"/><rect x="947.3" y="421.1" width="9.2" height="23.5" fill="#d76565"/><line x1="968.3" x2="968.3" y1="439.7" y2="486.9" stroke="#d76565"/><rect x="963.7" y="444.6" width="9.2" height="36.5" fill="#d76565"/><line x1="984.7" x2="984.7" y1="433.5" y2="491.1" stroke="#35a77a"/><rect x="980.2" y="436.3" width="9.2" height="44.5" fill="#35a77a"/><line x1="1001.2" x2="1001.2" y1="382.7" y2="446.8" stroke="#35a77a"/><rect x="996.6" y="384.1" width="9.2" height="52.3" fill="#35a77a"/><line x1="1017.6" x2="1017.6" y1="383.4" y2="442.3" stroke="#d76565"/><rect x="1013.0" y="383.7" width="9.2" height="42.7" fill="#d76565"/><line x1="1034.0" x2="1034.0" y1="421.5" y2="470.2" stroke="#d76565"/><rect x="1029.4" y="426.6" width="9.2" height="28.8" fill="#d76565"/><line x1="1050.4" x2="1050.4" y1="495.3" y2="549.5" stroke="#35a77a"/><rect x="1045.8" y="503.5" width="9.2" height="38.3" fill="#35a77a"/><line x1="1066.8" x2="1066.8" y1="479.7" y2="538.7" stroke="#35a77a"/><rect x="1062.2" y="503.0" width="9.2" height="1.4" fill="#35a77a"/><line x1="476.0" x2="476.0" y1="70" y2="585" stroke="#f2f2f2" stroke-width="1.4" stroke-dasharray="5 4"/><text x="481.0" y="86" fill="#f2f2f2" class="label">AVAILABLE / QUALIFIED</text><circle cx="410.4" cy="448.1" r="5" fill="#f4c95d"/><text x="410.4" y="439.1" text-anchor="middle" fill="#f4c95d" class="label">T</text><circle cx="459.6" cy="448.1" r="5" fill="#62cf7c"/><text x="459.6" y="439.1" text-anchor="middle" fill="#62cf7c" class="label">R</text><circle cx="951.9" cy="455.6" r="5" fill="#f4c95d"/><text x="951.9" y="446.6" text-anchor="middle" fill="#f4c95d" class="label">T</text><circle cx="968.3" cy="455.6" r="5" fill="#ff6b6b"/><text x="968.3" y="446.6" text-anchor="middle" fill="#ff6b6b" class="label">B</text><text x="82.2" y="609" text-anchor="middle" class="tick">12-27 18:00</text><text x="246.3" y="609" text-anchor="middle" class="tick">12-31 14:30</text><text x="410.4" y="609" text-anchor="middle" class="tick">01-02 17:00</text><text x="574.5" y="609" text-anchor="middle" class="tick">01-03 20:00</text><text x="738.6" y="609" text-anchor="middle" class="tick">01-07 16:00</text><text x="902.7" y="609" text-anchor="middle" class="tick">01-08 19:00</text><text x="1066.8" y="609" text-anchor="middle" class="tick">01-13 15:00</text><text x="1083" y="434.1" fill="#2db784" class="label">Upper 581.90</text><text x="1083" y="459.6" fill="#2db784" class="label">Lower 580.50</text><text x="74" y="635" class="sub">T touch · R rejection · B broken · F role flip · U later evidence upgrade</text></svg>