<svg xmlns="http://www.w3.org/2000/svg" width="1200" height="650" viewBox="0 0 1200 650"><style>.title{font:500 19px sans-serif;fill:#f2f2f2}.sub{font:13px sans-serif;fill:#b8b8b8}.tick{font:11px sans-serif;fill:#b8b8b8}.level{font:500 12px sans-serif}.grid{stroke:#3b3b3b;stroke-width:1}</style><rect width="1200" height="650" fill="#171717"/><text x="70" y="26" class="title">Trade #76 · LONG · stop</text><text x="70" y="48" class="sub">Entry 2026-07-15T16:00:00Z · Exit 2026-07-17T13:30:00Z · -1.02R · $-148.01</text><line x1="70" x2="1090" y1="592.0" y2="592.0" class="grid"/><text x="62" y="596.0" text-anchor="end" class="tick">513.29</text><line x1="70" x2="1090" y1="486.4" y2="486.4" class="grid"/><text x="62" y="490.4" text-anchor="end" class="tick">517.43</text><line x1="70" x2="1090" y1="380.8" y2="380.8" class="grid"/><text x="62" y="384.8" text-anchor="end" class="tick">521.56</text><line x1="70" x2="1090" y1="275.2" y2="275.2" class="grid"/><text x="62" y="279.2" text-anchor="end" class="tick">525.70</text><line x1="70" x2="1090" y1="169.6" y2="169.6" class="grid"/><text x="62" y="173.6" text-anchor="end" class="tick">529.83</text><line x1="70" x2="1090" y1="64.0" y2="64.0" class="grid"/><text x="62" y="68.0" text-anchor="end" class="tick">533.97</text><line x1="86.5" x2="86.5" y1="249.1" y2="362.0" stroke="#d76565"/><rect x="79.0" y="279.2" width="15.0" height="79.9" fill="#d76565"/><line x1="119.4" x2="119.4" y1="232.7" y2="312.2" stroke="#35a77a"/><rect x="111.9" y="265.4" width="15.0" height="13.8" fill="#35a77a"/><line x1="152.3" x2="152.3" y1="209.7" y2="325.4" stroke="#35a77a"/><rect x="144.8" y="220.7" width="15.0" height="43.7" fill="#35a77a"/><line x1="185.2" x2="185.2" y1="166.8" y2="271.3" stroke="#d76565"/><rect x="177.7" y="194.4" width="15.0" height="21.5" fill="#d76565"/><line x1="218.1" x2="218.1" y1="164.5" y2="225.3" stroke="#35a77a"/><rect x="210.6" y="164.5" width="15.0" height="52.9" fill="#35a77a"/><line x1="251.0" x2="251.0" y1="100.4" y2="239.1" stroke="#d76565"/><rect x="243.5" y="102.5" width="15.0" height="111.6" fill="#d76565"/><line x1="283.9" x2="283.9" y1="190.3" y2="225.6" stroke="#35a77a"/><rect x="276.4" y="204.1" width="15.0" height="8.7" fill="#35a77a"/><line x1="316.8" x2="316.8" y1="306.8" y2="420.0" stroke="#d76565"/><rect x="309.3" y="335.4" width="15.0" height="72.5" fill="#d76565"/><line x1="349.7" x2="349.7" y1="333.9" y2="408.7" stroke="#35a77a"/><rect x="342.2" y="351.2" width="15.0" height="57.5" fill="#35a77a"/><line x1="382.6" x2="382.6" y1="291.7" y2="366.3" stroke="#35a77a"/><rect x="375.1" y="311.4" width="15.0" height="16.1" fill="#35a77a"/><line x1="415.5" x2="415.5" y1="289.2" y2="330.3" stroke="#d76565"/><rect x="408.0" y="310.1" width="15.0" height="2.8" fill="#d76565"/><line x1="448.4" x2="448.4" y1="269.5" y2="376.3" stroke="#d76565"/><rect x="440.9" y="271.8" width="15.0" height="12.3" fill="#d76565"/><line x1="481.3" x2="481.3" y1="255.5" y2="297.6" stroke="#35a77a"/><rect x="473.8" y="273.3" width="15.0" height="11.0" fill="#35a77a"/><line x1="514.2" x2="514.2" y1="220.0" y2="311.4" stroke="#d76565"/><rect x="506.7" y="272.8" width="15.0" height="36.8" fill="#d76565"/><line x1="547.1" x2="547.1" y1="300.4" y2="346.6" stroke="#35a77a"/><rect x="539.6" y="307.1" width="15.0" height="4.1" fill="#35a77a"/><line x1="580.0" x2="580.0" y1="249.1" y2="355.3" stroke="#35a77a"/><rect x="572.5" y="331.1" width="15.0" height="3.3" fill="#35a77a"/><line x1="612.9" x2="612.9" y1="290.2" y2="346.4" stroke="#35a77a"/><rect x="605.4" y="301.4" width="15.0" height="28.1" fill="#35a77a"/><line x1="645.8" x2="645.8" y1="223.3" y2="305.0" stroke="#d76565"/><rect x="638.3" y="270.3" width="15.0" height="3.8" fill="#d76565"/><line x1="678.7" x2="678.7" y1="259.3" y2="326.2" stroke="#35a77a"/><rect x="671.2" y="267.5" width="15.0" height="5.1" fill="#35a77a"/><line x1="711.6" x2="711.6" y1="218.2" y2="280.7" stroke="#35a77a"/><rect x="704.1" y="241.7" width="15.0" height="5.1" fill="#35a77a"/><line x1="744.5" x2="744.5" y1="241.4" y2="342.3" stroke="#d76565"/><rect x="737.0" y="243.5" width="15.0" height="55.2" fill="#d76565"/><line x1="777.4" x2="777.4" y1="283.8" y2="448.8" stroke="#35a77a"/><rect x="769.9" y="306.5" width="15.0" height="123.1" fill="#35a77a"/><line x1="810.3" x2="810.3" y1="305.3" y2="410.8" stroke="#d76565"/><rect x="802.8" y="306.8" width="15.0" height="94.5" fill="#d76565"/><line x1="843.2" x2="843.2" y1="333.9" y2="458.0" stroke="#d76565"/><rect x="835.7" y="370.1" width="15.0" height="65.4" fill="#d76565"/><line x1="876.1" x2="876.1" y1="417.4" y2="493.3" stroke="#d76565"/><rect x="868.6" y="435.3" width="15.0" height="38.8" fill="#d76565"/><line x1="909.0" x2="909.0" y1="378.3" y2="468.7" stroke="#35a77a"/><rect x="901.5" y="385.2" width="15.0" height="45.0" fill="#35a77a"/><line x1="941.9" x2="941.9" y1="343.8" y2="389.0" stroke="#35a77a"/><rect x="934.4" y="381.6" width="15.0" height="3.3" fill="#35a77a"/><line x1="974.8" x2="974.8" y1="309.1" y2="394.9" stroke="#35a77a"/><rect x="967.3" y="335.2" width="15.0" height="44.7" fill="#35a77a"/><line x1="1007.7" x2="1007.7" y1="325.7" y2="385.5" stroke="#d76565"/><rect x="1000.2" y="333.6" width="15.0" height="48.8" fill="#d76565"/><line x1="1040.6" x2="1040.6" y1="467.5" y2="555.6" stroke="#35a77a"/><rect x="1033.1" y="513.7" width="15.0" height="33.0" fill="#35a77a"/><line x1="1073.5" x2="1073.5" y1="484.1" y2="543.8" stroke="#d76565"/><rect x="1066.0" y="511.7" width="15.0" height="5.6" fill="#d76565"/><path d="M86.5,517.3 L119.4,512.5 L152.3,507.1 L185.2,498.2 L218.1,488.9 L251.0,481.2 L283.9,471.6 L316.8,462.6 L349.7,450.5 L382.6,436.8 L415.5,423.8 L448.4,408.0 L481.3,391.6 L514.2,374.6 L547.1,361.7 L580.0,361.9 L612.9,362.6 L645.8,360.0 L678.7,356.1 L711.6,353.6 L744.5,347.7 L777.4,341.4 L810.3,340.0 L843.2,337.1 L876.1,335.6 L909.0,330.1 L941.9,327.3 L974.8,321.3 L1007.7,319.0 L1040.6,322.6 L1073.5,325.4" fill="none" stroke="#5898ff" stroke-width="2.2"/><path d="M86.5,453.6 L119.4,444.0 L152.3,437.2 L185.2,427.0 L218.1,418.0 L251.0,403.9 L283.9,387.5 L316.8,372.5 L349.7,353.3 L382.6,333.5 L415.5,313.0 L448.4,299.9 L481.3,307.8 L514.2,315.8 L547.1,317.4 L580.0,316.5 L612.9,317.3 L645.8,312.2 L678.7,306.4 L711.6,308.5 L744.5,307.7 L777.4,309.0 L810.3,303.4 L843.2,302.1 L876.1,295.5 L909.0,295.1 L941.9,304.0 L974.8,310.7 L1007.7,321.4 L1040.6,338.1 L1073.5,348.8" fill="none" stroke="#ff557f" stroke-width="2.2"/><path d="M86.5,413.7 L119.4,402.1 L152.3,392.6 L185.2,375.2 L218.1,354.7 L251.0,337.2 L283.9,313.6 L316.8,289.9 L349.7,265.8 L382.6,254.3 L415.5,276.1 L448.4,295.1 L481.3,301.9 L514.2,303.5 L547.1,307.4 L580.0,301.2 L612.9,294.1 L645.8,300.0 L678.7,300.4 L711.6,304.0 L744.5,296.0 L777.4,295.4 L810.3,286.2 L843.2,287.3 L876.1,303.1 L909.0,314.1 L941.9,330.5 L974.8,355.4 L1007.7,369.1 L1040.6,368.5 L1073.5,365.2" fill="none" stroke="#62cf7c" stroke-width="2.2"/><line x1="678.7" x2="1090" y1="271.2" y2="271.2" stroke="#f3f3f3" stroke-width="1.5" stroke-dasharray="6 4"/><text x="1098" y="275.2" fill="#f3f3f3" class="level">Entry 525.85</text><line x1="678.7" x2="1090" y1="369.1" y2="369.1" stroke="#d76565" stroke-width="1.5" stroke-dasharray="6 4"/><text x="1098" y="373.1" fill="#d76565" class="level">Stop 522.02</text><line x1="678.7" x2="1090" y1="173.3" y2="173.3" stroke="#35a77a" stroke-width="1.5" stroke-dasharray="6 4"/><text x="1098" y="177.3" fill="#35a77a" class="level">Target 529.69</text><line x1="678.7" x2="1090" y1="370.5" y2="370.5" stroke="#a78bfa" stroke-width="1.5" stroke-dasharray="6 4"/><text x="1098" y="374.5" fill="#a78bfa" class="level">Exit 521.97</text><line x1="678.7" x2="678.7" y1="64" y2="592" stroke="#f3f3f3" stroke-dasharray="4 4"/><text x="678.7" y="79" text-anchor="middle" fill="#f3f3f3" class="level">ENTRY</text><line x1="777.4" x2="777.4" y1="64" y2="592" stroke="#a78bfa" stroke-dasharray="4 4"/><text x="777.4" y="94" text-anchor="middle" fill="#a78bfa" class="level">EXIT</text></svg>